<svg xmlns="http://www.w3.org/2000/svg" xmlns:xlink="http://www.w3.org/1999/xlink" viewBox="0 0 986.52 777.6"><defs><style>.cls-1{mask:url(#mask);filter:url(#luminosity-noclip-2);}.cls-2{mix-blend-mode:multiply;fill:url(#Безымянный_градиент_13);}.cls-3{fill:#fff;}.cls-4{mask:url(#mask-2);}.cls-5{fill:url(#Безымянный_градиент_139);}.cls-6{fill:url(#Безымянный_градиент_18);}.cls-7{fill:url(#Безымянный_градиент_125);}.cls-8{fill:url(#Безымянный_градиент_125-2);}.cls-9{fill:#3f7bfc;}.cls-10{fill:url(#Безымянный_градиент_125-3);}.cls-11{filter:url(#luminosity-noclip);}</style><filter id="luminosity-noclip" x="-952.3" y="-8566.68" width="945.74" height="32766" filterUnits="userSpaceOnUse" color-interpolation-filters="sRGB"><feFlood flood-color="#fff" result="bg"/><feBlend in="SourceGraphic" in2="bg"/></filter><mask id="mask" x="-952.3" y="-8566.68" width="945.74" height="32766" maskUnits="userSpaceOnUse"><g class="cls-11"/></mask><linearGradient id="Безымянный_градиент_13" x1="2731.8" y1="1582.84" x2="3677.55" y2="1582.84" gradientTransform="translate(2725.25 2115.15) rotate(180)" gradientUnits="userSpaceOnUse"><stop offset="0" stop-color="gray"/><stop offset="0.5"/><stop offset="1" stop-color="gray"/></linearGradient><filter id="luminosity-noclip-2" x="-952.3" y="295.87" width="1922.33" height="472.87" filterUnits="userSpaceOnUse" color-interpolation-filters="sRGB"><feFlood flood-color="#fff" result="bg"/><feBlend in="SourceGraphic" in2="bg"/></filter><mask id="mask-2" x="-952.3" y="295.87" width="1922.33" height="472.87" maskUnits="userSpaceOnUse"><g class="cls-1"><path class="cls-2" d="M-715.95,768.74A235.78,235.78,0,0,0-544.46,695c34.71-36.59,83.58-56.36,134-56.38H-400a188,188,0,0,1,111.27,36.59A176.7,176.7,0,0,0-171.28,709c90.14-6.29,162-81.32,164.64-171.64A177.18,177.18,0,0,0-183.82,354.79a176.55,176.55,0,0,0-103.61,33.44c-32.93,23.75-72,37.55-112.57,37.57h-10.64c-51.48,0-100.05-21.8-136-58.64a235.37,235.37,0,0,0-169.16-71.29c-128.06,0-232.38,101.88-236.4,229C-956.36,656.89-848,768.79-715.95,768.74Z"/></g></mask><linearGradient id="Безымянный_градиент_139" x1="1755.21" y1="1618.47" x2="2487.21" y2="1618.47" gradientTransform="translate(2725.25 2115.15) rotate(180)" gradientUnits="userSpaceOnUse"><stop offset="0" stop-color="#00f9ff"/><stop offset="0.5" stop-color="#fff"/><stop offset="1" stop-color="#71c7ec"/></linearGradient><linearGradient id="Безымянный_градиент_18" x1="616.74" y1="449.19" x2="861.62" y2="204.31" gradientUnits="userSpaceOnUse"><stop offset="0" stop-color="#0078ff"/><stop offset="1" stop-color="#00f9ff"/></linearGradient><linearGradient id="Безымянный_градиент_125" x1="220.01" y1="190.13" x2="843.75" y2="550.24" gradientUnits="userSpaceOnUse"><stop offset="0" stop-color="#00f9ff"/><stop offset="1" stop-color="#0078ff"/></linearGradient><linearGradient id="Безымянный_градиент_125-2" x1="-99.83" y1="346.38" x2="116.19" y2="130.36" gradientTransform="translate(310.84 -77.02)" xlink:href="#Безымянный_градиент_125"/><linearGradient id="Безымянный_градиент_125-3" x1="150.42" y1="622.49" x2="264.79" y2="622.49" xlink:href="#Безымянный_градиент_125"/></defs><title>Ресурс 1</title><g id="Слой_2" data-name="Слой 2"><g id="_Layer_" data-name="&lt;Layer&gt;"><rect class="cls-3" width="986.52" height="777.6"/><g class="cls-4"><path class="cls-5" d="M421,679.68a182.5,182.5,0,0,0,132.73-57.1C580.56,594.26,618.39,579,657.41,579h8.07a145.42,145.42,0,0,1,86.12,28.31,136.72,136.72,0,0,0,90.93,26.18C912.3,628.57,967.91,570.5,970,500.59A137.2,137.2,0,0,0,752.64,385.17c-25.49,18.38-55.71,29.06-87.13,29.08h-8.24c-39.84,0-77.43-16.87-105.24-45.39a182.23,182.23,0,0,0-130.94-55.18c-99.11,0-179.85,78.86-183,177.23C234.89,593.11,318.72,679.72,421,679.68Z"/></g><path class="cls-6" d="M918.49,261.46a57.14,57.14,0,0,0-58.4-18.4,22.82,22.82,0,0,1-24.45-9.45A114.51,114.51,0,0,0,817.52,213c-43.41-38.88-110-38.6-153.12.65a114,114,0,0,0-37.35,88.61A15.15,15.15,0,0,1,619.57,316,76.26,76.26,0,1,0,723.64,420.08a15.17,15.17,0,0,1,13.74-7.48A114.43,114.43,0,0,0,835.66,363a22.77,22.77,0,0,1,24.43-9.43,57.18,57.18,0,0,0,58.4-92.13Z"/><path class="cls-7" d="M790.52,491.49a75.38,75.38,0,0,1-16.41-63.75,267.57,267.57,0,0,0-27.82-181.87A22.85,22.85,0,0,1,756,214.28a76.14,76.14,0,0,0,20.12-14.45c30.26-30.28,29.38-80.38-1.89-109.62a76.27,76.27,0,0,0-123.13,28,22.83,22.83,0,0,1-30.63,12.32,266.09,266.09,0,0,0-108-22.77c-112.21,0-208.23,69.23-247.71,167.29A38.54,38.54,0,0,1,232.17,299a152,152,0,0,0-94.58,44.17c-57.66,57.75-59.46,151.65-3.91,211.43a152.62,152.62,0,0,0,181.07,32.26A38.1,38.1,0,0,1,354.7,590a267.54,267.54,0,0,0,210.84,46.32,75.45,75.45,0,0,1,63.77,16.4,113.91,113.91,0,0,0,73.87,27c62.74,0,114.33-51.6,114.35-114.33A113.91,113.91,0,0,0,790.52,491.49Z"/><path class="cls-8" d="M405.89,69.68a91.29,91.29,0,0,0-66.37,28.55,71.38,71.38,0,0,1-51.85,21.82h-4a72.8,72.8,0,0,1-43.07-14.16A68.37,68.37,0,0,0,195.11,92.8c-34.89,2.43-62.69,31.47-63.72,66.42a68.6,68.6,0,0,0,108.67,57.72,74.53,74.53,0,0,1,43.56-14.54h4.12c19.92,0,38.72,8.43,52.62,22.69a91.51,91.51,0,0,0,157-61C498.93,113,457,69.66,405.89,69.68Z"/><path class="cls-9" d="M617.49,191.66a2.29,2.29,0,1,0,2.29,2.29A2.29,2.29,0,0,0,617.49,191.66Z"/><path class="cls-9" d="M617.49,206.9a2.29,2.29,0,1,0,2.29,2.29A2.3,2.3,0,0,0,617.49,206.9Z"/><path class="cls-9" d="M617.49,222.15a2.29,2.29,0,1,0,2.29,2.28A2.29,2.29,0,0,0,617.49,222.15Z"/><path class="cls-9" d="M617.49,237.39a2.29,2.29,0,1,0,2.29,2.28A2.29,2.29,0,0,0,617.49,237.39Z"/><path class="cls-9" d="M617.49,252.63a2.29,2.29,0,1,0,2.29,2.29A2.29,2.29,0,0,0,617.49,252.63Z"/><path class="cls-9" d="M617.49,267.87a2.29,2.29,0,1,0,2.29,2.29A2.3,2.3,0,0,0,617.49,267.87Z"/><path class="cls-9" d="M617.49,283.12a2.29,2.29,0,1,0,2.29,2.28A2.29,2.29,0,0,0,617.49,283.12Z"/><path class="cls-9" d="M617.49,298.36a2.29,2.29,0,1,0,2.29,2.29A2.29,2.29,0,0,0,617.49,298.36Z"/><path class="cls-9" d="M617.49,313.6a2.29,2.29,0,1,0,2.29,2.29A2.3,2.3,0,0,0,617.49,313.6Z"/><path class="cls-9" d="M617.49,328.85a2.29,2.29,0,1,0,2.29,2.28A2.29,2.29,0,0,0,617.49,328.85Z"/><path class="cls-9" d="M617.49,344.09a2.29,2.29,0,1,0,2.29,2.29A2.29,2.29,0,0,0,617.49,344.09Z"/><path class="cls-9" d="M617.49,359.33a2.29,2.29,0,1,0,2.29,2.29A2.3,2.3,0,0,0,617.49,359.33Z"/><path class="cls-9" d="M617.49,374.58a2.29,2.29,0,1,0,2.29,2.28A2.29,2.29,0,0,0,617.49,374.58Z"/><path class="cls-9" d="M617.49,389.82a2.29,2.29,0,1,0,2.29,2.28A2.29,2.29,0,0,0,617.49,389.82Z"/><path class="cls-9" d="M617.49,405.06a2.29,2.29,0,1,0,2.29,2.29A2.29,2.29,0,0,0,617.49,405.06Z"/><path class="cls-9" d="M617.49,420.3a2.29,2.29,0,1,0,2.29,2.29A2.3,2.3,0,0,0,617.49,420.3Z"/><path class="cls-9" d="M617.49,435.55a2.29,2.29,0,1,0,2.29,2.28A2.29,2.29,0,0,0,617.49,435.55Z"/><path class="cls-9" d="M617.49,450.79a2.29,2.29,0,1,0,2.29,2.29A2.29,2.29,0,0,0,617.49,450.79Z"/><path class="cls-9" d="M617.49,466a2.29,2.29,0,1,0,2.29,2.29A2.3,2.3,0,0,0,617.49,466Z"/><path class="cls-9" d="M602.25,206.9a2.29,2.29,0,1,0,2.28,2.29A2.29,2.29,0,0,0,602.25,206.9Z"/><path class="cls-9" d="M602.25,222.15a2.29,2.29,0,1,0,2.28,2.28A2.28,2.28,0,0,0,602.25,222.15Z"/><path class="cls-9" d="M602.25,237.39a2.29,2.29,0,1,0,2.28,2.28A2.28,2.28,0,0,0,602.25,237.39Z"/><path class="cls-9" d="M602.25,252.63a2.29,2.29,0,1,0,2.28,2.29A2.28,2.28,0,0,0,602.25,252.63Z"/><path class="cls-9" d="M602.25,267.87a2.29,2.29,0,1,0,2.28,2.29A2.29,2.29,0,0,0,602.25,267.87Z"/><path class="cls-9" d="M602.25,283.12a2.29,2.29,0,1,0,2.28,2.28A2.28,2.28,0,0,0,602.25,283.12Z"/><path class="cls-9" d="M602.25,298.36a2.29,2.29,0,1,0,2.28,2.29A2.28,2.28,0,0,0,602.25,298.36Z"/><path class="cls-9" d="M602.25,313.6a2.29,2.29,0,1,0,2.28,2.29A2.29,2.29,0,0,0,602.25,313.6Z"/><path class="cls-9" d="M602.25,328.85a2.29,2.29,0,1,0,2.28,2.28A2.28,2.28,0,0,0,602.25,328.85Z"/><path class="cls-9" d="M602.25,344.09a2.29,2.29,0,1,0,2.28,2.29A2.28,2.28,0,0,0,602.25,344.09Z"/><path class="cls-9" d="M602.25,359.33a2.29,2.29,0,1,0,2.28,2.29A2.29,2.29,0,0,0,602.25,359.33Z"/><path class="cls-9" d="M602.25,374.58a2.29,2.29,0,1,0,2.28,2.28A2.28,2.28,0,0,0,602.25,374.58Z"/><path class="cls-9" d="M602.25,389.82a2.29,2.29,0,1,0,2.28,2.28A2.28,2.28,0,0,0,602.25,389.82Z"/><path class="cls-9" d="M602.25,405.06a2.29,2.29,0,1,0,2.28,2.29A2.28,2.28,0,0,0,602.25,405.06Z"/><path class="cls-9" d="M602.25,420.3a2.29,2.29,0,1,0,2.28,2.29A2.29,2.29,0,0,0,602.25,420.3Z"/><path class="cls-9" d="M602.25,435.55a2.29,2.29,0,1,0,2.28,2.28A2.28,2.28,0,0,0,602.25,435.55Z"/><path class="cls-9" d="M602.25,450.79a2.29,2.29,0,1,0,2.28,2.29A2.28,2.28,0,0,0,602.25,450.79Z"/><path class="cls-9" d="M587,206.9a2.29,2.29,0,1,0,2.29,2.29A2.29,2.29,0,0,0,587,206.9Z"/><path class="cls-9" d="M587,222.15a2.29,2.29,0,1,0,2.29,2.28A2.28,2.28,0,0,0,587,222.15Z"/><path class="cls-9" d="M587,237.39a2.29,2.29,0,1,0,2.29,2.28A2.28,2.28,0,0,0,587,237.39Z"/><path class="cls-9" d="M587,252.63a2.29,2.29,0,1,0,2.29,2.29A2.28,2.28,0,0,0,587,252.63Z"/><path class="cls-9" d="M587,267.87a2.29,2.29,0,1,0,2.29,2.29A2.29,2.29,0,0,0,587,267.87Z"/><path class="cls-9" d="M587,283.12a2.29,2.29,0,1,0,2.29,2.28A2.28,2.28,0,0,0,587,283.12Z"/><path class="cls-9" d="M587,298.36a2.29,2.29,0,1,0,2.29,2.29A2.28,2.28,0,0,0,587,298.36Z"/><path class="cls-9" d="M587,313.6a2.29,2.29,0,1,0,2.29,2.29A2.29,2.29,0,0,0,587,313.6Z"/><path class="cls-9" d="M587,328.85a2.29,2.29,0,1,0,2.29,2.28A2.28,2.28,0,0,0,587,328.85Z"/><path class="cls-9" d="M587,344.09a2.29,2.29,0,1,0,2.29,2.29A2.28,2.28,0,0,0,587,344.09Z"/><path class="cls-9" d="M587,359.33a2.29,2.29,0,1,0,2.29,2.29A2.29,2.29,0,0,0,587,359.33Z"/><path class="cls-9" d="M587,374.58a2.29,2.29,0,1,0,2.29,2.28A2.28,2.28,0,0,0,587,374.58Z"/><path class="cls-9" d="M587,389.82a2.29,2.29,0,1,0,2.29,2.28A2.28,2.28,0,0,0,587,389.82Z"/><path class="cls-9" d="M587,405.06a2.29,2.29,0,1,0,2.29,2.29A2.28,2.28,0,0,0,587,405.06Z"/><path class="cls-9" d="M587,420.3a2.29,2.29,0,1,0,2.29,2.29A2.29,2.29,0,0,0,587,420.3Z"/><path class="cls-9" d="M587,435.55a2.29,2.29,0,1,0,2.29,2.28A2.28,2.28,0,0,0,587,435.55Z"/><path class="cls-9" d="M587,450.79a2.29,2.29,0,1,0,2.29,2.29A2.28,2.28,0,0,0,587,450.79Z"/><path class="cls-9" d="M571.76,222.15a2.29,2.29,0,1,0,2.29,2.28A2.28,2.28,0,0,0,571.76,222.15Z"/><path class="cls-9" d="M571.76,237.39a2.29,2.29,0,1,0,2.29,2.28A2.28,2.28,0,0,0,571.76,237.39Z"/><path class="cls-9" d="M571.76,252.63a2.29,2.29,0,1,0,2.29,2.29A2.28,2.28,0,0,0,571.76,252.63Z"/><path class="cls-9" d="M571.76,267.87a2.29,2.29,0,1,0,2.29,2.29A2.29,2.29,0,0,0,571.76,267.87Z"/><path class="cls-9" d="M571.76,283.12a2.29,2.29,0,1,0,2.29,2.28A2.28,2.28,0,0,0,571.76,283.12Z"/><path class="cls-9" d="M571.76,298.36a2.29,2.29,0,1,0,2.29,2.29A2.28,2.28,0,0,0,571.76,298.36Z"/><path class="cls-9" d="M571.76,313.6a2.29,2.29,0,1,0,2.29,2.29A2.29,2.29,0,0,0,571.76,313.6Z"/><path class="cls-9" d="M571.76,328.85a2.29,2.29,0,1,0,2.29,2.28A2.28,2.28,0,0,0,571.76,328.85Z"/><path class="cls-9" d="M571.76,344.09a2.29,2.29,0,1,0,2.29,2.29A2.28,2.28,0,0,0,571.76,344.09Z"/><path class="cls-9" d="M571.76,359.33a2.29,2.29,0,1,0,2.29,2.29A2.29,2.29,0,0,0,571.76,359.33Z"/><path class="cls-9" d="M571.76,374.58a2.29,2.29,0,1,0,2.29,2.28A2.28,2.28,0,0,0,571.76,374.58Z"/><path class="cls-9" d="M571.76,389.82a2.29,2.29,0,1,0,2.29,2.28A2.28,2.28,0,0,0,571.76,389.82Z"/><path class="cls-9" d="M571.76,405.06a2.29,2.29,0,1,0,2.29,2.29A2.28,2.28,0,0,0,571.76,405.06Z"/><path class="cls-9" d="M571.76,420.3a2.29,2.29,0,1,0,2.29,2.29A2.29,2.29,0,0,0,571.76,420.3Z"/><path class="cls-9" d="M571.76,435.55a2.29,2.29,0,1,0,2.29,2.28A2.28,2.28,0,0,0,571.76,435.55Z"/><path class="cls-9" d="M556.52,222.15a2.29,2.29,0,1,0,2.28,2.28A2.29,2.29,0,0,0,556.52,222.15Z"/><path class="cls-9" d="M556.52,237.39a2.29,2.29,0,1,0,2.28,2.28A2.29,2.29,0,0,0,556.52,237.39Z"/><path class="cls-9" d="M556.52,252.63a2.29,2.29,0,1,0,2.28,2.29A2.29,2.29,0,0,0,556.52,252.63Z"/><path class="cls-9" d="M556.52,267.87a2.29,2.29,0,1,0,2.28,2.29A2.3,2.3,0,0,0,556.52,267.87Z"/><path class="cls-9" d="M556.52,283.12a2.29,2.29,0,1,0,2.28,2.28A2.29,2.29,0,0,0,556.52,283.12Z"/><path class="cls-9" d="M556.52,298.36a2.29,2.29,0,1,0,2.28,2.29A2.29,2.29,0,0,0,556.52,298.36Z"/><path class="cls-9" d="M556.52,313.6a2.29,2.29,0,1,0,2.28,2.29A2.3,2.3,0,0,0,556.52,313.6Z"/><path class="cls-9" d="M556.52,328.85a2.29,2.29,0,1,0,2.28,2.28A2.29,2.29,0,0,0,556.52,328.85Z"/><path class="cls-9" d="M556.52,344.09a2.29,2.29,0,1,0,2.28,2.29A2.29,2.29,0,0,0,556.52,344.09Z"/><path class="cls-9" d="M556.52,359.33a2.29,2.29,0,1,0,2.28,2.29A2.3,2.3,0,0,0,556.52,359.33Z"/><path class="cls-9" d="M556.52,374.58a2.29,2.29,0,1,0,2.28,2.28A2.29,2.29,0,0,0,556.52,374.58Z"/><path class="cls-9" d="M556.52,389.82a2.29,2.29,0,1,0,2.28,2.28A2.29,2.29,0,0,0,556.52,389.82Z"/><path class="cls-9" d="M556.52,405.06a2.29,2.29,0,1,0,2.28,2.29A2.29,2.29,0,0,0,556.52,405.06Z"/><path class="cls-9" d="M556.52,420.3a2.29,2.29,0,1,0,2.28,2.29A2.3,2.3,0,0,0,556.52,420.3Z"/><path class="cls-9" d="M556.52,435.55a2.29,2.29,0,1,0,2.28,2.28A2.29,2.29,0,0,0,556.52,435.55Z"/><path class="cls-9" d="M541.28,237.39a2.29,2.29,0,1,0,2.28,2.28A2.28,2.28,0,0,0,541.28,237.39Z"/><path class="cls-9" d="M541.28,252.63a2.29,2.29,0,1,0,2.28,2.29A2.28,2.28,0,0,0,541.28,252.63Z"/><path class="cls-9" d="M541.28,267.87a2.29,2.29,0,1,0,2.28,2.29A2.29,2.29,0,0,0,541.28,267.87Z"/><path class="cls-9" d="M541.28,283.12a2.29,2.29,0,1,0,2.28,2.28A2.28,2.28,0,0,0,541.28,283.12Z"/><path class="cls-9" d="M541.28,298.36a2.29,2.29,0,1,0,2.28,2.29A2.28,2.28,0,0,0,541.28,298.36Z"/><path class="cls-9" d="M541.28,313.6a2.29,2.29,0,1,0,2.28,2.29A2.29,2.29,0,0,0,541.28,313.6Z"/><path class="cls-9" d="M541.28,328.85a2.29,2.29,0,1,0,2.28,2.28A2.28,2.28,0,0,0,541.28,328.85Z"/><path class="cls-9" d="M541.28,344.09a2.29,2.29,0,1,0,2.28,2.29A2.28,2.28,0,0,0,541.28,344.09Z"/><path class="cls-9" d="M541.28,359.33a2.29,2.29,0,1,0,2.28,2.29A2.29,2.29,0,0,0,541.28,359.33Z"/><path class="cls-9" d="M541.28,374.58a2.29,2.29,0,1,0,2.28,2.28A2.28,2.28,0,0,0,541.28,374.58Z"/><path class="cls-9" d="M541.28,389.82a2.29,2.29,0,1,0,2.28,2.28A2.28,2.28,0,0,0,541.28,389.82Z"/><path class="cls-9" d="M541.28,405.06a2.29,2.29,0,1,0,2.28,2.29A2.28,2.28,0,0,0,541.28,405.06Z"/><path class="cls-9" d="M541.28,420.3a2.29,2.29,0,1,0,2.28,2.29A2.29,2.29,0,0,0,541.28,420.3Z"/><path class="cls-9" d="M526,237.39a2.29,2.29,0,1,0,2.29,2.28A2.28,2.28,0,0,0,526,237.39Z"/><path class="cls-9" d="M526,252.63a2.29,2.29,0,1,0,2.29,2.29A2.28,2.28,0,0,0,526,252.63Z"/><path class="cls-9" d="M526,267.87a2.29,2.29,0,1,0,2.29,2.29A2.29,2.29,0,0,0,526,267.87Z"/><path class="cls-9" d="M526,283.12a2.29,2.29,0,1,0,2.29,2.28A2.28,2.28,0,0,0,526,283.12Z"/><path class="cls-9" d="M526,298.36a2.29,2.29,0,1,0,2.29,2.29A2.28,2.28,0,0,0,526,298.36Z"/><path class="cls-9" d="M526,313.6a2.29,2.29,0,1,0,2.29,2.29A2.29,2.29,0,0,0,526,313.6Z"/><path class="cls-9" d="M526,328.85a2.29,2.29,0,1,0,2.29,2.28A2.28,2.28,0,0,0,526,328.85Z"/><path class="cls-9" d="M526,344.09a2.29,2.29,0,1,0,2.29,2.29A2.28,2.28,0,0,0,526,344.09Z"/><path class="cls-9" d="M526,359.33a2.29,2.29,0,1,0,2.29,2.29A2.29,2.29,0,0,0,526,359.33Z"/><path class="cls-9" d="M526,374.58a2.29,2.29,0,1,0,2.29,2.28A2.28,2.28,0,0,0,526,374.58Z"/><path class="cls-9" d="M526,389.82a2.29,2.29,0,1,0,2.29,2.28A2.28,2.28,0,0,0,526,389.82Z"/><path class="cls-9" d="M526,405.06a2.29,2.29,0,1,0,2.29,2.29A2.28,2.28,0,0,0,526,405.06Z"/><path class="cls-9" d="M526,420.3a2.29,2.29,0,1,0,2.29,2.29A2.29,2.29,0,0,0,526,420.3Z"/><path class="cls-9" d="M510.79,252.63a2.29,2.29,0,1,0,2.28,2.29A2.29,2.29,0,0,0,510.79,252.63Z"/><path class="cls-9" d="M510.79,267.87a2.29,2.29,0,1,0,2.28,2.29A2.3,2.3,0,0,0,510.79,267.87Z"/><path class="cls-9" d="M510.79,283.12a2.29,2.29,0,1,0,2.28,2.28A2.29,2.29,0,0,0,510.79,283.12Z"/><path class="cls-9" d="M510.79,298.36a2.29,2.29,0,1,0,2.28,2.29A2.29,2.29,0,0,0,510.79,298.36Z"/><path class="cls-9" d="M510.79,313.6a2.29,2.29,0,1,0,2.28,2.29A2.3,2.3,0,0,0,510.79,313.6Z"/><path class="cls-9" d="M510.79,328.85a2.29,2.29,0,1,0,2.28,2.28A2.29,2.29,0,0,0,510.79,328.85Z"/><path class="cls-9" d="M510.79,344.09a2.29,2.29,0,1,0,2.28,2.29A2.29,2.29,0,0,0,510.79,344.09Z"/><path class="cls-9" d="M510.79,359.33a2.29,2.29,0,1,0,2.28,2.29A2.3,2.3,0,0,0,510.79,359.33Z"/><path class="cls-9" d="M510.79,374.58a2.29,2.29,0,1,0,2.28,2.28A2.29,2.29,0,0,0,510.79,374.58Z"/><path class="cls-9" d="M510.79,389.82a2.29,2.29,0,1,0,2.28,2.28A2.29,2.29,0,0,0,510.79,389.82Z"/><path class="cls-9" d="M510.79,405.06a2.29,2.29,0,1,0,2.28,2.29A2.29,2.29,0,0,0,510.79,405.06Z"/><path class="cls-9" d="M495.55,252.63a2.29,2.29,0,1,0,2.28,2.29A2.28,2.28,0,0,0,495.55,252.63Z"/><path class="cls-9" d="M495.55,267.87a2.29,2.29,0,1,0,2.28,2.29A2.29,2.29,0,0,0,495.55,267.87Z"/><path class="cls-9" d="M495.55,283.12a2.29,2.29,0,1,0,2.28,2.28A2.28,2.28,0,0,0,495.55,283.12Z"/><path class="cls-9" d="M495.55,298.36a2.29,2.29,0,1,0,2.28,2.29A2.28,2.28,0,0,0,495.55,298.36Z"/><path class="cls-9" d="M495.55,313.6a2.29,2.29,0,1,0,2.28,2.29A2.29,2.29,0,0,0,495.55,313.6Z"/><path class="cls-9" d="M495.55,328.85a2.29,2.29,0,1,0,2.28,2.28A2.28,2.28,0,0,0,495.55,328.85Z"/><path class="cls-9" d="M495.55,344.09a2.29,2.29,0,1,0,2.28,2.29A2.28,2.28,0,0,0,495.55,344.09Z"/><path class="cls-9" d="M495.55,359.33a2.29,2.29,0,1,0,2.28,2.29A2.29,2.29,0,0,0,495.55,359.33Z"/><path class="cls-9" d="M495.55,374.58a2.29,2.29,0,1,0,2.28,2.28A2.28,2.28,0,0,0,495.55,374.58Z"/><path class="cls-9" d="M495.55,389.82a2.29,2.29,0,1,0,2.28,2.28A2.28,2.28,0,0,0,495.55,389.82Z"/><path class="cls-9" d="M495.55,405.06a2.29,2.29,0,1,0,2.28,2.29A2.28,2.28,0,0,0,495.55,405.06Z"/><path class="cls-9" d="M480.3,252.63a2.29,2.29,0,1,0,2.29,2.29A2.28,2.28,0,0,0,480.3,252.63Z"/><path class="cls-9" d="M480.3,267.87a2.29,2.29,0,1,0,2.29,2.29A2.29,2.29,0,0,0,480.3,267.87Z"/><path class="cls-9" d="M480.3,283.12a2.29,2.29,0,1,0,2.29,2.28A2.28,2.28,0,0,0,480.3,283.12Z"/><path class="cls-9" d="M480.3,298.36a2.29,2.29,0,1,0,2.29,2.29A2.28,2.28,0,0,0,480.3,298.36Z"/><path class="cls-9" d="M480.3,313.6a2.29,2.29,0,1,0,2.29,2.29A2.29,2.29,0,0,0,480.3,313.6Z"/><path class="cls-9" d="M480.3,328.85a2.29,2.29,0,1,0,2.29,2.28A2.28,2.28,0,0,0,480.3,328.85Z"/><path class="cls-9" d="M480.3,344.09a2.29,2.29,0,1,0,2.29,2.29A2.28,2.28,0,0,0,480.3,344.09Z"/><path class="cls-9" d="M480.3,359.33a2.29,2.29,0,1,0,2.29,2.29A2.29,2.29,0,0,0,480.3,359.33Z"/><path class="cls-9" d="M480.3,374.58a2.29,2.29,0,1,0,2.29,2.28A2.28,2.28,0,0,0,480.3,374.58Z"/><path class="cls-9" d="M480.3,389.82a2.29,2.29,0,1,0,2.29,2.28A2.28,2.28,0,0,0,480.3,389.82Z"/><path class="cls-9" d="M480.3,405.06a2.29,2.29,0,1,0,2.29,2.29A2.28,2.28,0,0,0,480.3,405.06Z"/><path class="cls-9" d="M465.06,252.63a2.29,2.29,0,1,0,2.29,2.29A2.29,2.29,0,0,0,465.06,252.63Z"/><path class="cls-9" d="M465.06,267.87a2.29,2.29,0,1,0,2.29,2.29A2.3,2.3,0,0,0,465.06,267.87Z"/><path class="cls-9" d="M465.06,283.12a2.29,2.29,0,1,0,2.29,2.28A2.29,2.29,0,0,0,465.06,283.12Z"/><path class="cls-9" d="M465.06,298.36a2.29,2.29,0,1,0,2.29,2.29A2.29,2.29,0,0,0,465.06,298.36Z"/><path class="cls-9" d="M465.06,313.6a2.29,2.29,0,1,0,2.29,2.29A2.3,2.3,0,0,0,465.06,313.6Z"/><path class="cls-9" d="M465.06,328.85a2.29,2.29,0,1,0,2.29,2.28A2.29,2.29,0,0,0,465.06,328.85Z"/><path class="cls-9" d="M465.06,344.09a2.29,2.29,0,1,0,2.29,2.29A2.29,2.29,0,0,0,465.06,344.09Z"/><path class="cls-9" d="M465.06,359.33a2.29,2.29,0,1,0,2.29,2.29A2.3,2.3,0,0,0,465.06,359.33Z"/><path class="cls-9" d="M465.06,374.58a2.29,2.29,0,1,0,2.29,2.28A2.29,2.29,0,0,0,465.06,374.58Z"/><path class="cls-9" d="M465.06,389.82a2.29,2.29,0,1,0,2.29,2.28A2.29,2.29,0,0,0,465.06,389.82Z"/><path class="cls-9" d="M465.06,405.06a2.29,2.29,0,1,0,2.29,2.29A2.29,2.29,0,0,0,465.06,405.06Z"/><path class="cls-9" d="M449.82,252.63a2.29,2.29,0,1,0,2.28,2.29A2.28,2.28,0,0,0,449.82,252.63Z"/><path class="cls-9" d="M449.82,267.87a2.29,2.29,0,1,0,2.28,2.29A2.29,2.29,0,0,0,449.82,267.87Z"/><path class="cls-9" d="M449.82,283.12a2.29,2.29,0,1,0,2.28,2.28A2.28,2.28,0,0,0,449.82,283.12Z"/><path class="cls-9" d="M449.82,298.36a2.29,2.29,0,1,0,2.28,2.29A2.28,2.28,0,0,0,449.82,298.36Z"/><path class="cls-9" d="M449.82,313.6a2.29,2.29,0,1,0,2.28,2.29A2.29,2.29,0,0,0,449.82,313.6Z"/><path class="cls-9" d="M449.82,328.85a2.29,2.29,0,1,0,2.28,2.28A2.28,2.28,0,0,0,449.82,328.85Z"/><path class="cls-9" d="M449.82,344.09a2.29,2.29,0,1,0,2.28,2.29A2.28,2.28,0,0,0,449.82,344.09Z"/><path class="cls-9" d="M449.82,359.33a2.29,2.29,0,1,0,2.28,2.29A2.29,2.29,0,0,0,449.82,359.33Z"/><path class="cls-9" d="M449.82,374.58a2.29,2.29,0,1,0,2.28,2.28A2.28,2.28,0,0,0,449.82,374.58Z"/><path class="cls-9" d="M449.82,389.82a2.29,2.29,0,1,0,2.28,2.28A2.28,2.28,0,0,0,449.82,389.82Z"/><path class="cls-9" d="M449.82,405.06a2.29,2.29,0,1,0,2.28,2.29A2.28,2.28,0,0,0,449.82,405.06Z"/><path class="cls-9" d="M434.57,237.39a2.29,2.29,0,1,0,2.29,2.28A2.28,2.28,0,0,0,434.57,237.39Z"/><path class="cls-9" d="M434.57,252.63a2.29,2.29,0,1,0,2.29,2.29A2.28,2.28,0,0,0,434.57,252.63Z"/><path class="cls-9" d="M434.57,267.87a2.29,2.29,0,1,0,2.29,2.29A2.29,2.29,0,0,0,434.57,267.87Z"/><path class="cls-9" d="M434.57,283.12a2.29,2.29,0,1,0,2.29,2.28A2.28,2.28,0,0,0,434.57,283.12Z"/><path class="cls-9" d="M434.57,298.36a2.29,2.29,0,1,0,2.29,2.29A2.28,2.28,0,0,0,434.57,298.36Z"/><path class="cls-9" d="M434.57,313.6a2.29,2.29,0,1,0,2.29,2.29A2.29,2.29,0,0,0,434.57,313.6Z"/><path class="cls-9" d="M434.57,328.85a2.29,2.29,0,1,0,2.29,2.28A2.28,2.28,0,0,0,434.57,328.85Z"/><path class="cls-9" d="M434.57,344.09a2.29,2.29,0,1,0,2.29,2.29A2.28,2.28,0,0,0,434.57,344.09Z"/><path class="cls-9" d="M434.57,359.33a2.29,2.29,0,1,0,2.29,2.29A2.29,2.29,0,0,0,434.57,359.33Z"/><path class="cls-9" d="M434.57,374.58a2.29,2.29,0,1,0,2.29,2.28A2.28,2.28,0,0,0,434.57,374.58Z"/><path class="cls-9" d="M434.57,389.82a2.29,2.29,0,1,0,2.29,2.28A2.28,2.28,0,0,0,434.57,389.82Z"/><path class="cls-9" d="M434.57,405.06a2.29,2.29,0,1,0,2.29,2.29A2.28,2.28,0,0,0,434.57,405.06Z"/><path class="cls-9" d="M434.57,420.3a2.29,2.29,0,1,0,2.29,2.29A2.29,2.29,0,0,0,434.57,420.3Z"/><path class="cls-9" d="M419.33,237.39a2.29,2.29,0,1,0,2.29,2.28A2.29,2.29,0,0,0,419.33,237.39Z"/><path class="cls-9" d="M419.33,252.63a2.29,2.29,0,1,0,2.29,2.29A2.29,2.29,0,0,0,419.33,252.63Z"/><path class="cls-9" d="M419.33,267.87a2.29,2.29,0,1,0,2.29,2.29A2.3,2.3,0,0,0,419.33,267.87Z"/><path class="cls-9" d="M419.33,283.12a2.29,2.29,0,1,0,2.29,2.28A2.29,2.29,0,0,0,419.33,283.12Z"/><path class="cls-9" d="M419.33,298.36a2.29,2.29,0,1,0,2.29,2.29A2.29,2.29,0,0,0,419.33,298.36Z"/><path class="cls-9" d="M419.33,313.6a2.29,2.29,0,1,0,2.29,2.29A2.3,2.3,0,0,0,419.33,313.6Z"/><path class="cls-9" d="M419.33,328.85a2.29,2.29,0,1,0,2.29,2.28A2.29,2.29,0,0,0,419.33,328.85Z"/><path class="cls-9" d="M419.33,344.09a2.29,2.29,0,1,0,2.29,2.29A2.29,2.29,0,0,0,419.33,344.09Z"/><path class="cls-9" d="M419.33,359.33a2.29,2.29,0,1,0,2.29,2.29A2.3,2.3,0,0,0,419.33,359.33Z"/><path class="cls-9" d="M419.33,374.58a2.29,2.29,0,1,0,2.29,2.28A2.29,2.29,0,0,0,419.33,374.58Z"/><path class="cls-9" d="M419.33,389.82a2.29,2.29,0,1,0,2.29,2.28A2.29,2.29,0,0,0,419.33,389.82Z"/><path class="cls-9" d="M419.33,405.06a2.29,2.29,0,1,0,2.29,2.29A2.29,2.29,0,0,0,419.33,405.06Z"/><path class="cls-9" d="M419.33,420.3a2.29,2.29,0,1,0,2.29,2.29A2.3,2.3,0,0,0,419.33,420.3Z"/><path class="cls-9" d="M404.09,222.15a2.29,2.29,0,1,0,2.28,2.28A2.29,2.29,0,0,0,404.09,222.15Z"/><path class="cls-9" d="M404.09,237.39a2.29,2.29,0,1,0,2.28,2.28A2.29,2.29,0,0,0,404.09,237.39Z"/><path class="cls-9" d="M404.09,252.63a2.29,2.29,0,1,0,2.28,2.29A2.29,2.29,0,0,0,404.09,252.63Z"/><path class="cls-9" d="M404.09,267.87a2.29,2.29,0,1,0,2.28,2.29A2.3,2.3,0,0,0,404.09,267.87Z"/><path class="cls-9" d="M404.09,283.12a2.29,2.29,0,1,0,2.28,2.28A2.29,2.29,0,0,0,404.09,283.12Z"/><path class="cls-9" d="M404.09,298.36a2.29,2.29,0,1,0,2.28,2.29A2.29,2.29,0,0,0,404.09,298.36Z"/><path class="cls-9" d="M404.09,313.6a2.29,2.29,0,1,0,2.28,2.29A2.3,2.3,0,0,0,404.09,313.6Z"/><path class="cls-9" d="M404.09,328.85a2.29,2.29,0,1,0,2.28,2.28A2.29,2.29,0,0,0,404.09,328.85Z"/><path class="cls-9" d="M404.09,344.09a2.29,2.29,0,1,0,2.28,2.29A2.29,2.29,0,0,0,404.09,344.09Z"/><path class="cls-9" d="M404.09,359.33a2.29,2.29,0,1,0,2.28,2.29A2.3,2.3,0,0,0,404.09,359.33Z"/><path class="cls-9" d="M404.09,374.58a2.29,2.29,0,1,0,2.28,2.28A2.29,2.29,0,0,0,404.09,374.58Z"/><path class="cls-9" d="M404.09,389.82a2.29,2.29,0,1,0,2.28,2.28A2.29,2.29,0,0,0,404.09,389.82Z"/><path class="cls-9" d="M404.09,405.06a2.29,2.29,0,1,0,2.28,2.29A2.29,2.29,0,0,0,404.09,405.06Z"/><path class="cls-9" d="M404.09,420.3a2.29,2.29,0,1,0,2.28,2.29A2.3,2.3,0,0,0,404.09,420.3Z"/><path class="cls-9" d="M404.09,435.55a2.29,2.29,0,1,0,2.28,2.28A2.29,2.29,0,0,0,404.09,435.55Z"/><path class="cls-9" d="M388.85,222.15a2.29,2.29,0,1,0,2.28,2.28A2.28,2.28,0,0,0,388.85,222.15Z"/><path class="cls-9" d="M388.85,237.39a2.29,2.29,0,1,0,2.28,2.28A2.28,2.28,0,0,0,388.85,237.39Z"/><path class="cls-9" d="M388.85,252.63a2.29,2.29,0,1,0,2.28,2.29A2.28,2.28,0,0,0,388.85,252.63Z"/><path class="cls-9" d="M388.85,267.87a2.29,2.29,0,1,0,2.28,2.29A2.29,2.29,0,0,0,388.85,267.87Z"/><path class="cls-9" d="M388.85,283.12a2.29,2.29,0,1,0,2.28,2.28A2.28,2.28,0,0,0,388.85,283.12Z"/><path class="cls-9" d="M388.85,298.36a2.29,2.29,0,1,0,2.28,2.29A2.28,2.28,0,0,0,388.85,298.36Z"/><path class="cls-9" d="M388.85,313.6a2.29,2.29,0,1,0,2.28,2.29A2.29,2.29,0,0,0,388.85,313.6Z"/><path class="cls-9" d="M388.85,328.85a2.29,2.29,0,1,0,2.28,2.28A2.28,2.28,0,0,0,388.85,328.85Z"/><path class="cls-9" d="M388.85,344.09a2.29,2.29,0,1,0,2.28,2.29A2.28,2.28,0,0,0,388.85,344.09Z"/><path class="cls-9" d="M388.85,359.33a2.29,2.29,0,1,0,2.28,2.29A2.29,2.29,0,0,0,388.85,359.33Z"/><path class="cls-9" d="M388.85,374.58a2.29,2.29,0,1,0,2.28,2.28A2.28,2.28,0,0,0,388.85,374.58Z"/><path class="cls-9" d="M388.85,389.82a2.29,2.29,0,1,0,2.28,2.28A2.28,2.28,0,0,0,388.85,389.82Z"/><path class="cls-9" d="M388.85,405.06a2.29,2.29,0,1,0,2.28,2.29A2.28,2.28,0,0,0,388.85,405.06Z"/><path class="cls-9" d="M388.85,420.3a2.29,2.29,0,1,0,2.28,2.29A2.29,2.29,0,0,0,388.85,420.3Z"/><path class="cls-9" d="M388.85,435.55a2.29,2.29,0,1,0,2.28,2.28A2.28,2.28,0,0,0,388.85,435.55Z"/><path class="cls-9" d="M373.6,206.9a2.29,2.29,0,1,0,2.29,2.29A2.3,2.3,0,0,0,373.6,206.9Z"/><path class="cls-9" d="M373.6,222.15a2.29,2.29,0,1,0,2.29,2.28A2.29,2.29,0,0,0,373.6,222.15Z"/><path class="cls-9" d="M373.6,237.39a2.29,2.29,0,1,0,2.29,2.28A2.29,2.29,0,0,0,373.6,237.39Z"/><path class="cls-9" d="M373.6,252.63a2.29,2.29,0,1,0,2.29,2.29A2.29,2.29,0,0,0,373.6,252.63Z"/><path class="cls-9" d="M373.6,267.87a2.29,2.29,0,1,0,2.29,2.29A2.3,2.3,0,0,0,373.6,267.87Z"/><path class="cls-9" d="M373.6,283.12a2.29,2.29,0,1,0,2.29,2.28A2.29,2.29,0,0,0,373.6,283.12Z"/><path class="cls-9" d="M373.6,298.36a2.29,2.29,0,1,0,2.29,2.29A2.29,2.29,0,0,0,373.6,298.36Z"/><path class="cls-9" d="M373.6,313.6a2.29,2.29,0,1,0,2.29,2.29A2.3,2.3,0,0,0,373.6,313.6Z"/><path class="cls-9" d="M373.6,328.85a2.29,2.29,0,1,0,2.29,2.28A2.29,2.29,0,0,0,373.6,328.85Z"/><path class="cls-9" d="M373.6,344.09a2.29,2.29,0,1,0,2.29,2.29A2.29,2.29,0,0,0,373.6,344.09Z"/><path class="cls-9" d="M373.6,359.33a2.29,2.29,0,1,0,2.29,2.29A2.3,2.3,0,0,0,373.6,359.33Z"/><path class="cls-9" d="M373.6,374.58a2.29,2.29,0,1,0,2.29,2.28A2.29,2.29,0,0,0,373.6,374.58Z"/><path class="cls-9" d="M373.6,389.82a2.29,2.29,0,1,0,2.29,2.28A2.29,2.29,0,0,0,373.6,389.82Z"/><path class="cls-9" d="M373.6,405.06a2.29,2.29,0,1,0,2.29,2.29A2.29,2.29,0,0,0,373.6,405.06Z"/><path class="cls-9" d="M373.6,420.3a2.29,2.29,0,1,0,2.29,2.29A2.3,2.3,0,0,0,373.6,420.3Z"/><path class="cls-9" d="M373.6,435.55a2.29,2.29,0,1,0,2.29,2.28A2.29,2.29,0,0,0,373.6,435.55Z"/><path class="cls-9" d="M373.6,450.79a2.29,2.29,0,1,0,2.29,2.29A2.29,2.29,0,0,0,373.6,450.79Z"/><path class="cls-9" d="M358.36,191.66a2.29,2.29,0,1,0,2.29,2.29A2.29,2.29,0,0,0,358.36,191.66Z"/><path class="cls-9" d="M358.36,206.9a2.29,2.29,0,1,0,2.29,2.29A2.3,2.3,0,0,0,358.36,206.9Z"/><path class="cls-9" d="M358.36,222.15a2.29,2.29,0,1,0,2.29,2.28A2.29,2.29,0,0,0,358.36,222.15Z"/><path class="cls-9" d="M358.36,237.39a2.29,2.29,0,1,0,2.29,2.28A2.29,2.29,0,0,0,358.36,237.39Z"/><path class="cls-9" d="M358.36,252.63a2.29,2.29,0,1,0,2.29,2.29A2.29,2.29,0,0,0,358.36,252.63Z"/><path class="cls-9" d="M358.36,267.87a2.29,2.29,0,1,0,2.29,2.29A2.3,2.3,0,0,0,358.36,267.87Z"/><path class="cls-9" d="M358.36,283.12a2.29,2.29,0,1,0,2.29,2.28A2.29,2.29,0,0,0,358.36,283.12Z"/><path class="cls-9" d="M358.36,298.36a2.29,2.29,0,1,0,2.29,2.29A2.29,2.29,0,0,0,358.36,298.36Z"/><path class="cls-9" d="M358.36,313.6a2.29,2.29,0,1,0,2.29,2.29A2.3,2.3,0,0,0,358.36,313.6Z"/><path class="cls-9" d="M358.36,328.85a2.29,2.29,0,1,0,2.29,2.28A2.29,2.29,0,0,0,358.36,328.85Z"/><path class="cls-9" d="M358.36,344.09a2.29,2.29,0,1,0,2.29,2.29A2.29,2.29,0,0,0,358.36,344.09Z"/><path class="cls-9" d="M358.36,359.33a2.29,2.29,0,1,0,2.29,2.29A2.3,2.3,0,0,0,358.36,359.33Z"/><path class="cls-9" d="M358.36,374.58a2.29,2.29,0,1,0,2.29,2.28A2.29,2.29,0,0,0,358.36,374.58Z"/><path class="cls-9" d="M358.36,389.82a2.29,2.29,0,1,0,2.29,2.28A2.29,2.29,0,0,0,358.36,389.82Z"/><path class="cls-9" d="M358.36,405.06a2.29,2.29,0,1,0,2.29,2.29A2.29,2.29,0,0,0,358.36,405.06Z"/><path class="cls-9" d="M358.36,420.3a2.29,2.29,0,1,0,2.29,2.29A2.3,2.3,0,0,0,358.36,420.3Z"/><path class="cls-9" d="M358.36,435.55a2.29,2.29,0,1,0,2.29,2.28A2.29,2.29,0,0,0,358.36,435.55Z"/><path class="cls-9" d="M358.36,450.79a2.29,2.29,0,1,0,2.29,2.29A2.29,2.29,0,0,0,358.36,450.79Z"/><path class="cls-9" d="M358.36,466a2.29,2.29,0,1,0,2.29,2.29A2.3,2.3,0,0,0,358.36,466Z"/><path class="cls-9" d="M343.12,191.66A2.29,2.29,0,1,0,345.4,194,2.28,2.28,0,0,0,343.12,191.66Z"/><path class="cls-9" d="M343.12,176.42a2.29,2.29,0,1,0,2.28,2.28A2.28,2.28,0,0,0,343.12,176.42Z"/><path class="cls-9" d="M343.12,206.9a2.29,2.29,0,1,0,2.28,2.29A2.29,2.29,0,0,0,343.12,206.9Z"/><path class="cls-9" d="M343.12,222.15a2.29,2.29,0,1,0,2.28,2.28A2.28,2.28,0,0,0,343.12,222.15Z"/><path class="cls-9" d="M343.12,237.39a2.29,2.29,0,1,0,2.28,2.28A2.28,2.28,0,0,0,343.12,237.39Z"/><path class="cls-9" d="M343.12,252.63a2.29,2.29,0,1,0,2.28,2.29A2.28,2.28,0,0,0,343.12,252.63Z"/><path class="cls-9" d="M343.12,267.87a2.29,2.29,0,1,0,2.28,2.29A2.29,2.29,0,0,0,343.12,267.87Z"/><path class="cls-9" d="M343.12,283.12a2.29,2.29,0,1,0,2.28,2.28A2.28,2.28,0,0,0,343.12,283.12Z"/><path class="cls-9" d="M343.12,298.36a2.29,2.29,0,1,0,2.28,2.29A2.28,2.28,0,0,0,343.12,298.36Z"/><path class="cls-9" d="M343.12,313.6a2.29,2.29,0,1,0,2.28,2.29A2.29,2.29,0,0,0,343.12,313.6Z"/><path class="cls-9" d="M343.12,328.85a2.29,2.29,0,1,0,2.28,2.28A2.28,2.28,0,0,0,343.12,328.85Z"/><path class="cls-9" d="M343.12,344.09a2.29,2.29,0,1,0,2.28,2.29A2.28,2.28,0,0,0,343.12,344.09Z"/><path class="cls-9" d="M343.12,359.33a2.29,2.29,0,1,0,2.28,2.29A2.29,2.29,0,0,0,343.12,359.33Z"/><path class="cls-9" d="M343.12,374.58a2.29,2.29,0,1,0,2.28,2.28A2.28,2.28,0,0,0,343.12,374.58Z"/><path class="cls-9" d="M343.12,389.82a2.29,2.29,0,1,0,2.28,2.28A2.28,2.28,0,0,0,343.12,389.82Z"/><path class="cls-9" d="M343.12,405.06a2.29,2.29,0,1,0,2.28,2.29A2.28,2.28,0,0,0,343.12,405.06Z"/><path class="cls-9" d="M343.12,420.3a2.29,2.29,0,1,0,2.28,2.29A2.29,2.29,0,0,0,343.12,420.3Z"/><path class="cls-9" d="M343.12,435.55a2.29,2.29,0,1,0,2.28,2.28A2.28,2.28,0,0,0,343.12,435.55Z"/><path class="cls-9" d="M343.12,450.79a2.29,2.29,0,1,0,2.28,2.29A2.28,2.28,0,0,0,343.12,450.79Z"/><path class="cls-9" d="M343.12,466a2.29,2.29,0,1,0,2.28,2.29A2.29,2.29,0,0,0,343.12,466Z"/><path class="cls-9" d="M343.12,481.28a2.29,2.29,0,1,0,2.28,2.28A2.28,2.28,0,0,0,343.12,481.28Z"/><path class="cls-9" d="M327.87,191.66a2.29,2.29,0,1,0,2.29,2.29A2.28,2.28,0,0,0,327.87,191.66Z"/><path class="cls-9" d="M327.87,176.42a2.29,2.29,0,1,0,2.29,2.28A2.28,2.28,0,0,0,327.87,176.42Z"/><path class="cls-9" d="M327.87,206.9a2.29,2.29,0,1,0,2.29,2.29A2.29,2.29,0,0,0,327.87,206.9Z"/><path class="cls-9" d="M327.87,222.15a2.29,2.29,0,1,0,2.29,2.28A2.28,2.28,0,0,0,327.87,222.15Z"/><path class="cls-9" d="M327.87,237.39a2.29,2.29,0,1,0,2.29,2.28A2.28,2.28,0,0,0,327.87,237.39Z"/><path class="cls-9" d="M327.87,252.63a2.29,2.29,0,1,0,2.29,2.29A2.28,2.28,0,0,0,327.87,252.63Z"/><path class="cls-9" d="M327.87,267.87a2.29,2.29,0,1,0,2.29,2.29A2.29,2.29,0,0,0,327.87,267.87Z"/><path class="cls-9" d="M327.87,283.12a2.29,2.29,0,1,0,2.29,2.28A2.28,2.28,0,0,0,327.87,283.12Z"/><path class="cls-9" d="M327.87,298.36a2.29,2.29,0,1,0,2.29,2.29A2.28,2.28,0,0,0,327.87,298.36Z"/><path class="cls-9" d="M327.87,313.6a2.29,2.29,0,1,0,2.29,2.29A2.29,2.29,0,0,0,327.87,313.6Z"/><path class="cls-9" d="M327.87,328.85a2.29,2.29,0,1,0,2.29,2.28A2.28,2.28,0,0,0,327.87,328.85Z"/><path class="cls-9" d="M327.87,344.09a2.29,2.29,0,1,0,2.29,2.29A2.28,2.28,0,0,0,327.87,344.09Z"/><path class="cls-9" d="M327.87,359.33a2.29,2.29,0,1,0,2.29,2.29A2.29,2.29,0,0,0,327.87,359.33Z"/><path class="cls-9" d="M327.87,374.58a2.29,2.29,0,1,0,2.29,2.28A2.28,2.28,0,0,0,327.87,374.58Z"/><path class="cls-9" d="M327.87,389.82a2.29,2.29,0,1,0,2.29,2.28A2.28,2.28,0,0,0,327.87,389.82Z"/><path class="cls-9" d="M327.87,405.06a2.29,2.29,0,1,0,2.29,2.29A2.28,2.28,0,0,0,327.87,405.06Z"/><path class="cls-9" d="M327.87,420.3a2.29,2.29,0,1,0,2.29,2.29A2.29,2.29,0,0,0,327.87,420.3Z"/><path class="cls-9" d="M327.87,435.55a2.29,2.29,0,1,0,2.29,2.28A2.28,2.28,0,0,0,327.87,435.55Z"/><path class="cls-9" d="M327.87,450.79a2.29,2.29,0,1,0,2.29,2.29A2.28,2.28,0,0,0,327.87,450.79Z"/><path class="cls-9" d="M327.87,466a2.29,2.29,0,1,0,2.29,2.29A2.29,2.29,0,0,0,327.87,466Z"/><path class="cls-9" d="M327.87,481.28a2.29,2.29,0,1,0,2.29,2.28A2.28,2.28,0,0,0,327.87,481.28Z"/><path class="cls-9" d="M312.63,191.66a2.29,2.29,0,1,0,2.29,2.29A2.29,2.29,0,0,0,312.63,191.66Z"/><path class="cls-9" d="M312.63,176.42a2.29,2.29,0,1,0,2.29,2.28A2.29,2.29,0,0,0,312.63,176.42Z"/><path class="cls-9" d="M312.63,161.17a2.29,2.29,0,1,0,2.29,2.29A2.3,2.3,0,0,0,312.63,161.17Z"/><path class="cls-9" d="M312.63,206.9a2.29,2.29,0,1,0,2.29,2.29A2.3,2.3,0,0,0,312.63,206.9Z"/><path class="cls-9" d="M312.63,222.15a2.29,2.29,0,1,0,2.29,2.28A2.29,2.29,0,0,0,312.63,222.15Z"/><path class="cls-9" d="M312.63,237.39a2.29,2.29,0,1,0,2.29,2.28A2.29,2.29,0,0,0,312.63,237.39Z"/><path class="cls-9" d="M312.63,252.63a2.29,2.29,0,1,0,2.29,2.29A2.29,2.29,0,0,0,312.63,252.63Z"/><path class="cls-9" d="M312.63,267.87a2.29,2.29,0,1,0,2.29,2.29A2.3,2.3,0,0,0,312.63,267.87Z"/><path class="cls-9" d="M312.63,283.12a2.29,2.29,0,1,0,2.29,2.28A2.29,2.29,0,0,0,312.63,283.12Z"/><path class="cls-9" d="M312.63,298.36a2.29,2.29,0,1,0,2.29,2.29A2.29,2.29,0,0,0,312.63,298.36Z"/><path class="cls-9" d="M312.63,313.6a2.29,2.29,0,1,0,2.29,2.29A2.3,2.3,0,0,0,312.63,313.6Z"/><path class="cls-9" d="M312.63,328.85a2.29,2.29,0,1,0,2.29,2.28A2.29,2.29,0,0,0,312.63,328.85Z"/><path class="cls-9" d="M312.63,344.09a2.29,2.29,0,1,0,2.29,2.29A2.29,2.29,0,0,0,312.63,344.09Z"/><path class="cls-9" d="M312.63,359.33a2.29,2.29,0,1,0,2.29,2.29A2.3,2.3,0,0,0,312.63,359.33Z"/><path class="cls-9" d="M312.63,374.58a2.29,2.29,0,1,0,2.29,2.28A2.29,2.29,0,0,0,312.63,374.58Z"/><path class="cls-9" d="M312.63,389.82a2.29,2.29,0,1,0,2.29,2.28A2.29,2.29,0,0,0,312.63,389.82Z"/><path class="cls-9" d="M312.63,405.06a2.29,2.29,0,1,0,2.29,2.29A2.29,2.29,0,0,0,312.63,405.06Z"/><path class="cls-9" d="M312.63,420.3a2.29,2.29,0,1,0,2.29,2.29A2.3,2.3,0,0,0,312.63,420.3Z"/><path class="cls-9" d="M312.63,435.55a2.29,2.29,0,1,0,2.29,2.28A2.29,2.29,0,0,0,312.63,435.55Z"/><path class="cls-9" d="M312.63,450.79a2.29,2.29,0,1,0,2.29,2.29A2.29,2.29,0,0,0,312.63,450.79Z"/><path class="cls-9" d="M312.63,466a2.29,2.29,0,1,0,2.29,2.29A2.3,2.3,0,0,0,312.63,466Z"/><path class="cls-9" d="M312.63,481.28a2.29,2.29,0,1,0,2.29,2.28A2.29,2.29,0,0,0,312.63,481.28Z"/><path class="cls-9" d="M312.63,496.52a2.29,2.29,0,1,0,2.29,2.28A2.29,2.29,0,0,0,312.63,496.52Z"/><path class="cls-9" d="M297.39,191.66a2.29,2.29,0,1,0,2.28,2.29A2.28,2.28,0,0,0,297.39,191.66Z"/><path class="cls-9" d="M297.39,176.42a2.29,2.29,0,1,0,2.28,2.28A2.28,2.28,0,0,0,297.39,176.42Z"/><path class="cls-9" d="M297.39,161.17a2.29,2.29,0,1,0,2.28,2.29A2.29,2.29,0,0,0,297.39,161.17Z"/><path class="cls-9" d="M297.39,206.9a2.29,2.29,0,1,0,2.28,2.29A2.29,2.29,0,0,0,297.39,206.9Z"/><path class="cls-9" d="M297.39,222.15a2.29,2.29,0,1,0,2.28,2.28A2.28,2.28,0,0,0,297.39,222.15Z"/><path class="cls-9" d="M297.39,237.39a2.29,2.29,0,1,0,2.28,2.28A2.28,2.28,0,0,0,297.39,237.39Z"/><path class="cls-9" d="M297.39,252.63a2.29,2.29,0,1,0,2.28,2.29A2.28,2.28,0,0,0,297.39,252.63Z"/><path class="cls-9" d="M297.39,267.87a2.29,2.29,0,1,0,2.28,2.29A2.29,2.29,0,0,0,297.39,267.87Z"/><path class="cls-9" d="M297.39,283.12a2.29,2.29,0,1,0,2.28,2.28A2.28,2.28,0,0,0,297.39,283.12Z"/><path class="cls-9" d="M297.39,298.36a2.29,2.29,0,1,0,2.28,2.29A2.28,2.28,0,0,0,297.39,298.36Z"/><path class="cls-9" d="M297.39,313.6a2.29,2.29,0,1,0,2.28,2.29A2.29,2.29,0,0,0,297.39,313.6Z"/><path class="cls-9" d="M297.39,328.85a2.29,2.29,0,1,0,2.28,2.28A2.28,2.28,0,0,0,297.39,328.85Z"/><path class="cls-9" d="M297.39,344.09a2.29,2.29,0,1,0,2.28,2.29A2.28,2.28,0,0,0,297.39,344.09Z"/><path class="cls-9" d="M297.39,359.33a2.29,2.29,0,1,0,2.28,2.29A2.29,2.29,0,0,0,297.39,359.33Z"/><path class="cls-9" d="M297.39,374.58a2.29,2.29,0,1,0,2.28,2.28A2.28,2.28,0,0,0,297.39,374.58Z"/><path class="cls-9" d="M297.39,389.82a2.29,2.29,0,1,0,2.28,2.28A2.28,2.28,0,0,0,297.39,389.82Z"/><path class="cls-9" d="M297.39,405.06a2.29,2.29,0,1,0,2.28,2.29A2.28,2.28,0,0,0,297.39,405.06Z"/><path class="cls-9" d="M297.39,420.3a2.29,2.29,0,1,0,2.28,2.29A2.29,2.29,0,0,0,297.39,420.3Z"/><path class="cls-9" d="M297.39,435.55a2.29,2.29,0,1,0,2.28,2.28A2.28,2.28,0,0,0,297.39,435.55Z"/><path class="cls-9" d="M297.39,450.79a2.29,2.29,0,1,0,2.28,2.29A2.28,2.28,0,0,0,297.39,450.79Z"/><path class="cls-9" d="M297.39,466a2.29,2.29,0,1,0,2.28,2.29A2.29,2.29,0,0,0,297.39,466Z"/><path class="cls-9" d="M297.39,481.28a2.29,2.29,0,1,0,2.28,2.28A2.28,2.28,0,0,0,297.39,481.28Z"/><path class="cls-9" d="M297.39,496.52a2.29,2.29,0,1,0,2.28,2.28A2.28,2.28,0,0,0,297.39,496.52Z"/><path class="cls-9" d="M282.14,191.66a2.29,2.29,0,1,0,2.29,2.29A2.28,2.28,0,0,0,282.14,191.66Z"/><path class="cls-9" d="M282.14,176.42a2.29,2.29,0,1,0,2.29,2.28A2.28,2.28,0,0,0,282.14,176.42Z"/><path class="cls-9" d="M282.14,161.17a2.29,2.29,0,1,0,2.29,2.29A2.29,2.29,0,0,0,282.14,161.17Z"/><path class="cls-9" d="M282.14,145.93a2.29,2.29,0,1,0,2.29,2.29A2.28,2.28,0,0,0,282.14,145.93Z"/><path class="cls-9" d="M282.14,206.9a2.29,2.29,0,1,0,2.29,2.29A2.29,2.29,0,0,0,282.14,206.9Z"/><path class="cls-9" d="M282.14,222.15a2.29,2.29,0,1,0,2.29,2.28A2.28,2.28,0,0,0,282.14,222.15Z"/><path class="cls-9" d="M282.14,237.39a2.29,2.29,0,1,0,2.29,2.28A2.28,2.28,0,0,0,282.14,237.39Z"/><path class="cls-9" d="M282.14,252.63a2.29,2.29,0,1,0,2.29,2.29A2.28,2.28,0,0,0,282.14,252.63Z"/><path class="cls-9" d="M282.14,267.87a2.29,2.29,0,1,0,2.29,2.29A2.29,2.29,0,0,0,282.14,267.87Z"/><path class="cls-9" d="M282.14,283.12a2.29,2.29,0,1,0,2.29,2.28A2.28,2.28,0,0,0,282.14,283.12Z"/><path class="cls-9" d="M282.14,298.36a2.29,2.29,0,1,0,2.29,2.29A2.28,2.28,0,0,0,282.14,298.36Z"/><path class="cls-9" d="M282.14,313.6a2.29,2.29,0,1,0,2.29,2.29A2.29,2.29,0,0,0,282.14,313.6Z"/><path class="cls-9" d="M282.14,328.85a2.29,2.29,0,1,0,2.29,2.28A2.28,2.28,0,0,0,282.14,328.85Z"/><path class="cls-9" d="M282.14,344.09a2.29,2.29,0,1,0,2.29,2.29A2.28,2.28,0,0,0,282.14,344.09Z"/><path class="cls-9" d="M282.14,359.33a2.29,2.29,0,1,0,2.29,2.29A2.29,2.29,0,0,0,282.14,359.33Z"/><path class="cls-9" d="M282.14,374.58a2.29,2.29,0,1,0,2.29,2.28A2.28,2.28,0,0,0,282.14,374.58Z"/><path class="cls-9" d="M282.14,389.82a2.29,2.29,0,1,0,2.29,2.28A2.28,2.28,0,0,0,282.14,389.82Z"/><path class="cls-9" d="M282.14,405.06a2.29,2.29,0,1,0,2.29,2.29A2.28,2.28,0,0,0,282.14,405.06Z"/><path class="cls-9" d="M282.14,420.3a2.29,2.29,0,1,0,2.29,2.29A2.29,2.29,0,0,0,282.14,420.3Z"/><path class="cls-9" d="M282.14,435.55a2.29,2.29,0,1,0,2.29,2.28A2.28,2.28,0,0,0,282.14,435.55Z"/><path class="cls-9" d="M282.14,450.79a2.29,2.29,0,1,0,2.29,2.29A2.28,2.28,0,0,0,282.14,450.79Z"/><path class="cls-9" d="M282.14,466a2.29,2.29,0,1,0,2.29,2.29A2.29,2.29,0,0,0,282.14,466Z"/><path class="cls-9" d="M282.14,481.28a2.29,2.29,0,1,0,2.29,2.28A2.28,2.28,0,0,0,282.14,481.28Z"/><path class="cls-9" d="M282.14,496.52a2.29,2.29,0,1,0,2.29,2.28A2.28,2.28,0,0,0,282.14,496.52Z"/><path class="cls-9" d="M282.14,511.76a2.29,2.29,0,1,0,2.29,2.29A2.28,2.28,0,0,0,282.14,511.76Z"/><path class="cls-9" d="M266.9,191.66a2.29,2.29,0,1,0,2.29,2.29A2.29,2.29,0,0,0,266.9,191.66Z"/><path class="cls-9" d="M266.9,176.42a2.29,2.29,0,1,0,2.29,2.28A2.29,2.29,0,0,0,266.9,176.42Z"/><path class="cls-9" d="M266.9,161.17a2.29,2.29,0,1,0,2.29,2.29A2.3,2.3,0,0,0,266.9,161.17Z"/><path class="cls-9" d="M266.9,145.93a2.29,2.29,0,1,0,2.29,2.29A2.29,2.29,0,0,0,266.9,145.93Z"/><path class="cls-9" d="M266.9,206.9a2.29,2.29,0,1,0,2.29,2.29A2.3,2.3,0,0,0,266.9,206.9Z"/><path class="cls-9" d="M266.9,222.15a2.29,2.29,0,1,0,2.29,2.28A2.29,2.29,0,0,0,266.9,222.15Z"/><path class="cls-9" d="M266.9,237.39a2.29,2.29,0,1,0,2.29,2.28A2.29,2.29,0,0,0,266.9,237.39Z"/><path class="cls-9" d="M266.9,252.63a2.29,2.29,0,1,0,2.29,2.29A2.29,2.29,0,0,0,266.9,252.63Z"/><path class="cls-9" d="M266.9,267.87a2.29,2.29,0,1,0,2.29,2.29A2.3,2.3,0,0,0,266.9,267.87Z"/><path class="cls-9" d="M266.9,283.12a2.29,2.29,0,1,0,2.29,2.28A2.29,2.29,0,0,0,266.9,283.12Z"/><path class="cls-9" d="M266.9,298.36a2.29,2.29,0,1,0,2.29,2.29A2.29,2.29,0,0,0,266.9,298.36Z"/><path class="cls-9" d="M266.9,313.6a2.29,2.29,0,1,0,2.29,2.29A2.3,2.3,0,0,0,266.9,313.6Z"/><path class="cls-9" d="M266.9,328.85a2.29,2.29,0,1,0,2.29,2.28A2.29,2.29,0,0,0,266.9,328.85Z"/><path class="cls-9" d="M266.9,344.09a2.29,2.29,0,1,0,2.29,2.29A2.29,2.29,0,0,0,266.9,344.09Z"/><path class="cls-9" d="M266.9,359.33a2.29,2.29,0,1,0,2.29,2.29A2.3,2.3,0,0,0,266.9,359.33Z"/><path class="cls-9" d="M266.9,374.58a2.29,2.29,0,1,0,2.29,2.28A2.29,2.29,0,0,0,266.9,374.58Z"/><path class="cls-9" d="M266.9,389.82a2.29,2.29,0,1,0,2.29,2.28A2.29,2.29,0,0,0,266.9,389.82Z"/><path class="cls-9" d="M266.9,405.06a2.29,2.29,0,1,0,2.29,2.29A2.29,2.29,0,0,0,266.9,405.06Z"/><path class="cls-9" d="M266.9,420.3a2.29,2.29,0,1,0,2.29,2.29A2.3,2.3,0,0,0,266.9,420.3Z"/><path class="cls-9" d="M266.9,435.55a2.29,2.29,0,1,0,2.29,2.28A2.29,2.29,0,0,0,266.9,435.55Z"/><path class="cls-9" d="M266.9,450.79a2.29,2.29,0,1,0,2.29,2.29A2.29,2.29,0,0,0,266.9,450.79Z"/><path class="cls-9" d="M266.9,466a2.29,2.29,0,1,0,2.29,2.29A2.3,2.3,0,0,0,266.9,466Z"/><path class="cls-9" d="M266.9,481.28a2.29,2.29,0,1,0,2.29,2.28A2.29,2.29,0,0,0,266.9,481.28Z"/><path class="cls-9" d="M266.9,496.52a2.29,2.29,0,1,0,2.29,2.28A2.29,2.29,0,0,0,266.9,496.52Z"/><path class="cls-9" d="M266.9,511.76a2.29,2.29,0,1,0,2.29,2.29A2.29,2.29,0,0,0,266.9,511.76Z"/><path class="cls-9" d="M251.66,191.66a2.29,2.29,0,1,0,2.28,2.29A2.29,2.29,0,0,0,251.66,191.66Z"/><path class="cls-9" d="M251.66,176.42a2.29,2.29,0,1,0,2.28,2.28A2.29,2.29,0,0,0,251.66,176.42Z"/><path class="cls-9" d="M251.66,161.17a2.29,2.29,0,1,0,2.28,2.29A2.3,2.3,0,0,0,251.66,161.17Z"/><path class="cls-9" d="M251.66,145.93a2.29,2.29,0,1,0,2.28,2.29A2.29,2.29,0,0,0,251.66,145.93Z"/><path class="cls-9" d="M251.66,206.9a2.29,2.29,0,1,0,2.28,2.29A2.3,2.3,0,0,0,251.66,206.9Z"/><path class="cls-9" d="M251.66,222.15a2.29,2.29,0,1,0,2.28,2.28A2.29,2.29,0,0,0,251.66,222.15Z"/><path class="cls-9" d="M251.66,237.39a2.29,2.29,0,1,0,2.28,2.28A2.29,2.29,0,0,0,251.66,237.39Z"/><path class="cls-9" d="M251.66,252.63a2.29,2.29,0,1,0,2.28,2.29A2.29,2.29,0,0,0,251.66,252.63Z"/><path class="cls-9" d="M251.66,267.87a2.29,2.29,0,1,0,2.28,2.29A2.3,2.3,0,0,0,251.66,267.87Z"/><path class="cls-9" d="M251.66,283.12a2.29,2.29,0,1,0,2.28,2.28A2.29,2.29,0,0,0,251.66,283.12Z"/><path class="cls-9" d="M251.66,298.36a2.29,2.29,0,1,0,2.28,2.29A2.29,2.29,0,0,0,251.66,298.36Z"/><path class="cls-9" d="M251.66,313.6a2.29,2.29,0,1,0,2.28,2.29A2.3,2.3,0,0,0,251.66,313.6Z"/><path class="cls-9" d="M251.66,328.85a2.29,2.29,0,1,0,2.28,2.28A2.29,2.29,0,0,0,251.66,328.85Z"/><path class="cls-9" d="M251.66,344.09a2.29,2.29,0,1,0,2.28,2.29A2.29,2.29,0,0,0,251.66,344.09Z"/><path class="cls-9" d="M251.66,359.33a2.29,2.29,0,1,0,2.28,2.29A2.3,2.3,0,0,0,251.66,359.33Z"/><path class="cls-9" d="M251.66,374.58a2.29,2.29,0,1,0,2.28,2.28A2.29,2.29,0,0,0,251.66,374.58Z"/><path class="cls-9" d="M251.66,389.82a2.29,2.29,0,1,0,2.28,2.28A2.29,2.29,0,0,0,251.66,389.82Z"/><path class="cls-9" d="M251.66,405.06a2.29,2.29,0,1,0,2.28,2.29A2.29,2.29,0,0,0,251.66,405.06Z"/><path class="cls-9" d="M251.66,420.3a2.29,2.29,0,1,0,2.28,2.29A2.3,2.3,0,0,0,251.66,420.3Z"/><path class="cls-9" d="M251.66,435.55a2.29,2.29,0,1,0,2.28,2.28A2.29,2.29,0,0,0,251.66,435.55Z"/><path class="cls-9" d="M251.66,450.79a2.29,2.29,0,1,0,2.28,2.29A2.29,2.29,0,0,0,251.66,450.79Z"/><path class="cls-9" d="M251.66,466a2.29,2.29,0,1,0,2.28,2.29A2.3,2.3,0,0,0,251.66,466Z"/><path class="cls-9" d="M251.66,481.28a2.29,2.29,0,1,0,2.28,2.28A2.29,2.29,0,0,0,251.66,481.28Z"/><path class="cls-9" d="M251.66,496.52a2.29,2.29,0,1,0,2.28,2.28A2.29,2.29,0,0,0,251.66,496.52Z"/><path class="cls-9" d="M251.66,511.76a2.29,2.29,0,1,0,2.28,2.29A2.29,2.29,0,0,0,251.66,511.76Z"/><path class="cls-9" d="M236.42,191.66A2.29,2.29,0,1,0,238.7,194,2.28,2.28,0,0,0,236.42,191.66Z"/><path class="cls-9" d="M236.42,176.42a2.29,2.29,0,1,0,2.28,2.28A2.28,2.28,0,0,0,236.42,176.42Z"/><path class="cls-9" d="M236.42,161.17a2.29,2.29,0,1,0,2.28,2.29A2.29,2.29,0,0,0,236.42,161.17Z"/><path class="cls-9" d="M236.42,145.93a2.29,2.29,0,1,0,2.28,2.29A2.28,2.28,0,0,0,236.42,145.93Z"/><path class="cls-9" d="M236.42,206.9a2.29,2.29,0,1,0,2.28,2.29A2.29,2.29,0,0,0,236.42,206.9Z"/><path class="cls-9" d="M236.42,222.15a2.29,2.29,0,1,0,2.28,2.28A2.28,2.28,0,0,0,236.42,222.15Z"/><path class="cls-9" d="M236.42,237.39a2.29,2.29,0,1,0,2.28,2.28A2.28,2.28,0,0,0,236.42,237.39Z"/><path class="cls-9" d="M236.42,252.63a2.29,2.29,0,1,0,2.28,2.29A2.28,2.28,0,0,0,236.42,252.63Z"/><path class="cls-9" d="M236.42,267.87a2.29,2.29,0,1,0,2.28,2.29A2.29,2.29,0,0,0,236.42,267.87Z"/><path class="cls-9" d="M236.42,283.12a2.29,2.29,0,1,0,2.28,2.28A2.28,2.28,0,0,0,236.42,283.12Z"/><path class="cls-9" d="M236.42,298.36a2.29,2.29,0,1,0,2.28,2.29A2.28,2.28,0,0,0,236.42,298.36Z"/><path class="cls-9" d="M236.42,313.6a2.29,2.29,0,1,0,2.28,2.29A2.29,2.29,0,0,0,236.42,313.6Z"/><path class="cls-9" d="M236.42,328.85a2.29,2.29,0,1,0,2.28,2.28A2.28,2.28,0,0,0,236.42,328.85Z"/><path class="cls-9" d="M236.42,344.09a2.29,2.29,0,1,0,2.28,2.29A2.28,2.28,0,0,0,236.42,344.09Z"/><path class="cls-9" d="M236.42,359.33a2.29,2.29,0,1,0,2.28,2.29A2.29,2.29,0,0,0,236.42,359.33Z"/><path class="cls-9" d="M236.42,374.58a2.29,2.29,0,1,0,2.28,2.28A2.28,2.28,0,0,0,236.42,374.58Z"/><path class="cls-9" d="M236.42,389.82a2.29,2.29,0,1,0,2.28,2.28A2.28,2.28,0,0,0,236.42,389.82Z"/><path class="cls-9" d="M236.42,405.06a2.29,2.29,0,1,0,2.28,2.29A2.28,2.28,0,0,0,236.42,405.06Z"/><path class="cls-9" d="M236.42,420.3a2.29,2.29,0,1,0,2.28,2.29A2.29,2.29,0,0,0,236.42,420.3Z"/><path class="cls-9" d="M236.42,435.55a2.29,2.29,0,1,0,2.28,2.28A2.28,2.28,0,0,0,236.42,435.55Z"/><path class="cls-9" d="M236.42,450.79a2.29,2.29,0,1,0,2.28,2.29A2.28,2.28,0,0,0,236.42,450.79Z"/><path class="cls-9" d="M236.42,466a2.29,2.29,0,1,0,2.28,2.29A2.29,2.29,0,0,0,236.42,466Z"/><path class="cls-9" d="M236.42,481.28a2.29,2.29,0,1,0,2.28,2.28A2.28,2.28,0,0,0,236.42,481.28Z"/><path class="cls-9" d="M236.42,496.52a2.29,2.29,0,1,0,2.28,2.28A2.28,2.28,0,0,0,236.42,496.52Z"/><path class="cls-9" d="M236.42,511.76a2.29,2.29,0,1,0,2.28,2.29A2.28,2.28,0,0,0,236.42,511.76Z"/><path class="cls-9" d="M221.17,191.66a2.29,2.29,0,1,0,2.29,2.29A2.28,2.28,0,0,0,221.17,191.66Z"/><path class="cls-9" d="M221.17,176.42a2.29,2.29,0,1,0,2.29,2.28A2.28,2.28,0,0,0,221.17,176.42Z"/><path class="cls-9" d="M221.17,161.17a2.29,2.29,0,1,0,2.29,2.29A2.29,2.29,0,0,0,221.17,161.17Z"/><path class="cls-9" d="M221.17,145.93a2.29,2.29,0,1,0,2.29,2.29A2.28,2.28,0,0,0,221.17,145.93Z"/><path class="cls-9" d="M221.17,206.9a2.29,2.29,0,1,0,2.29,2.29A2.29,2.29,0,0,0,221.17,206.9Z"/><path class="cls-9" d="M221.17,222.15a2.29,2.29,0,1,0,2.29,2.28A2.28,2.28,0,0,0,221.17,222.15Z"/><path class="cls-9" d="M221.17,237.39a2.29,2.29,0,1,0,2.29,2.28A2.28,2.28,0,0,0,221.17,237.39Z"/><path class="cls-9" d="M221.17,252.63a2.29,2.29,0,1,0,2.29,2.29A2.28,2.28,0,0,0,221.17,252.63Z"/><path class="cls-9" d="M221.17,267.87a2.29,2.29,0,1,0,2.29,2.29A2.29,2.29,0,0,0,221.17,267.87Z"/><path class="cls-9" d="M221.17,283.12a2.29,2.29,0,1,0,2.29,2.28A2.28,2.28,0,0,0,221.17,283.12Z"/><path class="cls-9" d="M221.17,298.36a2.29,2.29,0,1,0,2.29,2.29A2.28,2.28,0,0,0,221.17,298.36Z"/><path class="cls-9" d="M221.17,313.6a2.29,2.29,0,1,0,2.29,2.29A2.29,2.29,0,0,0,221.17,313.6Z"/><path class="cls-9" d="M221.17,328.85a2.29,2.29,0,1,0,2.29,2.28A2.28,2.28,0,0,0,221.17,328.85Z"/><path class="cls-9" d="M221.17,344.09a2.29,2.29,0,1,0,2.29,2.29A2.28,2.28,0,0,0,221.17,344.09Z"/><path class="cls-9" d="M221.17,359.33a2.29,2.29,0,1,0,2.29,2.29A2.29,2.29,0,0,0,221.17,359.33Z"/><path class="cls-9" d="M221.17,374.58a2.29,2.29,0,1,0,2.29,2.28A2.28,2.28,0,0,0,221.17,374.58Z"/><path class="cls-9" d="M221.17,389.82a2.29,2.29,0,1,0,2.29,2.28A2.28,2.28,0,0,0,221.17,389.82Z"/><path class="cls-9" d="M221.17,405.06a2.29,2.29,0,1,0,2.29,2.29A2.28,2.28,0,0,0,221.17,405.06Z"/><path class="cls-9" d="M221.17,420.3a2.29,2.29,0,1,0,2.29,2.29A2.29,2.29,0,0,0,221.17,420.3Z"/><path class="cls-9" d="M221.17,435.55a2.29,2.29,0,1,0,2.29,2.28A2.28,2.28,0,0,0,221.17,435.55Z"/><path class="cls-9" d="M221.17,450.79a2.29,2.29,0,1,0,2.29,2.29A2.28,2.28,0,0,0,221.17,450.79Z"/><path class="cls-9" d="M221.17,466a2.29,2.29,0,1,0,2.29,2.29A2.29,2.29,0,0,0,221.17,466Z"/><path class="cls-9" d="M221.17,481.28a2.29,2.29,0,1,0,2.29,2.28A2.28,2.28,0,0,0,221.17,481.28Z"/><path class="cls-9" d="M221.17,496.52a2.29,2.29,0,1,0,2.29,2.28A2.28,2.28,0,0,0,221.17,496.52Z"/><path class="cls-9" d="M221.17,511.76a2.29,2.29,0,1,0,2.29,2.29A2.28,2.28,0,0,0,221.17,511.76Z"/><path class="cls-9" d="M205.93,191.66a2.29,2.29,0,1,0,2.29,2.29A2.29,2.29,0,0,0,205.93,191.66Z"/><path class="cls-9" d="M205.93,176.42a2.29,2.29,0,1,0,2.29,2.28A2.29,2.29,0,0,0,205.93,176.42Z"/><path class="cls-9" d="M205.93,161.17a2.29,2.29,0,1,0,2.29,2.29A2.3,2.3,0,0,0,205.93,161.17Z"/><path class="cls-9" d="M205.93,145.93a2.29,2.29,0,1,0,2.29,2.29A2.29,2.29,0,0,0,205.93,145.93Z"/><path class="cls-9" d="M205.93,206.9a2.29,2.29,0,1,0,2.29,2.29A2.3,2.3,0,0,0,205.93,206.9Z"/><path class="cls-9" d="M205.93,222.15a2.29,2.29,0,1,0,2.29,2.28A2.29,2.29,0,0,0,205.93,222.15Z"/><path class="cls-9" d="M205.93,237.39a2.29,2.29,0,1,0,2.29,2.28A2.29,2.29,0,0,0,205.93,237.39Z"/><path class="cls-9" d="M205.93,252.63a2.29,2.29,0,1,0,2.29,2.29A2.29,2.29,0,0,0,205.93,252.63Z"/><path class="cls-9" d="M205.93,267.87a2.29,2.29,0,1,0,2.29,2.29A2.3,2.3,0,0,0,205.93,267.87Z"/><path class="cls-9" d="M205.93,283.12a2.29,2.29,0,1,0,2.29,2.28A2.29,2.29,0,0,0,205.93,283.12Z"/><path class="cls-9" d="M205.93,298.36a2.29,2.29,0,1,0,2.29,2.29A2.29,2.29,0,0,0,205.93,298.36Z"/><path class="cls-9" d="M205.93,313.6a2.29,2.29,0,1,0,2.29,2.29A2.3,2.3,0,0,0,205.93,313.6Z"/><path class="cls-9" d="M205.93,328.85a2.29,2.29,0,1,0,2.29,2.28A2.29,2.29,0,0,0,205.93,328.85Z"/><path class="cls-9" d="M205.93,344.09a2.29,2.29,0,1,0,2.29,2.29A2.29,2.29,0,0,0,205.93,344.09Z"/><path class="cls-9" d="M205.93,359.33a2.29,2.29,0,1,0,2.29,2.29A2.3,2.3,0,0,0,205.93,359.33Z"/><path class="cls-9" d="M205.93,374.58a2.29,2.29,0,1,0,2.29,2.28A2.29,2.29,0,0,0,205.93,374.58Z"/><path class="cls-9" d="M205.93,389.82a2.29,2.29,0,1,0,2.29,2.28A2.29,2.29,0,0,0,205.93,389.82Z"/><path class="cls-9" d="M205.93,405.06a2.29,2.29,0,1,0,2.29,2.29A2.29,2.29,0,0,0,205.93,405.06Z"/><path class="cls-9" d="M205.93,420.3a2.29,2.29,0,1,0,2.29,2.29A2.3,2.3,0,0,0,205.93,420.3Z"/><path class="cls-9" d="M205.93,435.55a2.29,2.29,0,1,0,2.29,2.28A2.29,2.29,0,0,0,205.93,435.55Z"/><path class="cls-9" d="M205.93,450.79a2.29,2.29,0,1,0,2.29,2.29A2.29,2.29,0,0,0,205.93,450.79Z"/><path class="cls-9" d="M205.93,466a2.29,2.29,0,1,0,2.29,2.29A2.3,2.3,0,0,0,205.93,466Z"/><path class="cls-9" d="M205.93,481.28a2.29,2.29,0,1,0,2.29,2.28A2.29,2.29,0,0,0,205.93,481.28Z"/><path class="cls-9" d="M205.93,496.52a2.29,2.29,0,1,0,2.29,2.28A2.29,2.29,0,0,0,205.93,496.52Z"/><path class="cls-9" d="M205.93,511.76a2.29,2.29,0,1,0,2.29,2.29A2.29,2.29,0,0,0,205.93,511.76Z"/><path class="cls-9" d="M190.69,191.66A2.29,2.29,0,1,0,193,194,2.28,2.28,0,0,0,190.69,191.66Z"/><path class="cls-9" d="M190.69,176.42A2.29,2.29,0,1,0,193,178.7,2.28,2.28,0,0,0,190.69,176.42Z"/><path class="cls-9" d="M190.69,161.17a2.29,2.29,0,1,0,2.28,2.29A2.29,2.29,0,0,0,190.69,161.17Z"/><path class="cls-9" d="M190.69,145.93a2.29,2.29,0,1,0,2.28,2.29A2.28,2.28,0,0,0,190.69,145.93Z"/><path class="cls-9" d="M190.69,206.9a2.29,2.29,0,1,0,2.28,2.29A2.29,2.29,0,0,0,190.69,206.9Z"/><path class="cls-9" d="M190.69,222.15a2.29,2.29,0,1,0,2.28,2.28A2.28,2.28,0,0,0,190.69,222.15Z"/><path class="cls-9" d="M190.69,237.39a2.29,2.29,0,1,0,2.28,2.28A2.28,2.28,0,0,0,190.69,237.39Z"/><path class="cls-9" d="M190.69,252.63a2.29,2.29,0,1,0,2.28,2.29A2.28,2.28,0,0,0,190.69,252.63Z"/><path class="cls-9" d="M190.69,267.87a2.29,2.29,0,1,0,2.28,2.29A2.29,2.29,0,0,0,190.69,267.87Z"/><path class="cls-9" d="M190.69,283.12A2.29,2.29,0,1,0,193,285.4,2.28,2.28,0,0,0,190.69,283.12Z"/><path class="cls-9" d="M190.69,298.36a2.29,2.29,0,1,0,2.28,2.29A2.28,2.28,0,0,0,190.69,298.36Z"/><path class="cls-9" d="M190.69,313.6a2.29,2.29,0,1,0,2.28,2.29A2.29,2.29,0,0,0,190.69,313.6Z"/><path class="cls-9" d="M190.69,328.85a2.29,2.29,0,1,0,2.28,2.28A2.28,2.28,0,0,0,190.69,328.85Z"/><path class="cls-9" d="M190.69,344.09a2.29,2.29,0,1,0,2.28,2.29A2.28,2.28,0,0,0,190.69,344.09Z"/><path class="cls-9" d="M190.69,359.33a2.29,2.29,0,1,0,2.28,2.29A2.29,2.29,0,0,0,190.69,359.33Z"/><path class="cls-9" d="M190.69,374.58a2.29,2.29,0,1,0,2.28,2.28A2.28,2.28,0,0,0,190.69,374.58Z"/><path class="cls-9" d="M190.69,389.82A2.29,2.29,0,1,0,193,392.1,2.28,2.28,0,0,0,190.69,389.82Z"/><path class="cls-9" d="M190.69,405.06a2.29,2.29,0,1,0,2.28,2.29A2.28,2.28,0,0,0,190.69,405.06Z"/><path class="cls-9" d="M190.69,420.3a2.29,2.29,0,1,0,2.28,2.29A2.29,2.29,0,0,0,190.69,420.3Z"/><path class="cls-9" d="M190.69,435.55a2.29,2.29,0,1,0,2.28,2.28A2.28,2.28,0,0,0,190.69,435.55Z"/><path class="cls-9" d="M190.69,450.79a2.29,2.29,0,1,0,2.28,2.29A2.28,2.28,0,0,0,190.69,450.79Z"/><path class="cls-9" d="M190.69,466a2.29,2.29,0,1,0,2.28,2.29A2.29,2.29,0,0,0,190.69,466Z"/><path class="cls-9" d="M190.69,481.28a2.29,2.29,0,1,0,2.28,2.28A2.28,2.28,0,0,0,190.69,481.28Z"/><path class="cls-9" d="M190.69,496.52A2.29,2.29,0,1,0,193,498.8,2.28,2.28,0,0,0,190.69,496.52Z"/><path class="cls-9" d="M190.69,511.76a2.29,2.29,0,1,0,2.28,2.29A2.28,2.28,0,0,0,190.69,511.76Z"/><path class="cls-9" d="M175.44,191.66a2.29,2.29,0,1,0,2.29,2.29A2.28,2.28,0,0,0,175.44,191.66Z"/><path class="cls-9" d="M175.44,176.42a2.29,2.29,0,1,0,2.29,2.28A2.28,2.28,0,0,0,175.44,176.42Z"/><path class="cls-9" d="M175.44,161.17a2.29,2.29,0,1,0,2.29,2.29A2.29,2.29,0,0,0,175.44,161.17Z"/><path class="cls-9" d="M175.44,145.93a2.29,2.29,0,1,0,2.29,2.29A2.28,2.28,0,0,0,175.44,145.93Z"/><path class="cls-9" d="M175.44,206.9a2.29,2.29,0,1,0,2.29,2.29A2.29,2.29,0,0,0,175.44,206.9Z"/><path class="cls-9" d="M175.44,222.15a2.29,2.29,0,1,0,2.29,2.28A2.28,2.28,0,0,0,175.44,222.15Z"/><path class="cls-9" d="M175.44,237.39a2.29,2.29,0,1,0,2.29,2.28A2.28,2.28,0,0,0,175.44,237.39Z"/><path class="cls-9" d="M175.44,252.63a2.29,2.29,0,1,0,2.29,2.29A2.28,2.28,0,0,0,175.44,252.63Z"/><path class="cls-9" d="M175.44,267.87a2.29,2.29,0,1,0,2.29,2.29A2.29,2.29,0,0,0,175.44,267.87Z"/><path class="cls-9" d="M175.44,283.12a2.29,2.29,0,1,0,2.29,2.28A2.28,2.28,0,0,0,175.44,283.12Z"/><path class="cls-9" d="M175.44,298.36a2.29,2.29,0,1,0,2.29,2.29A2.28,2.28,0,0,0,175.44,298.36Z"/><path class="cls-9" d="M175.44,313.6a2.29,2.29,0,1,0,2.29,2.29A2.29,2.29,0,0,0,175.44,313.6Z"/><path class="cls-9" d="M175.44,328.85a2.29,2.29,0,1,0,2.29,2.28A2.28,2.28,0,0,0,175.44,328.85Z"/><path class="cls-9" d="M175.44,344.09a2.29,2.29,0,1,0,2.29,2.29A2.28,2.28,0,0,0,175.44,344.09Z"/><path class="cls-9" d="M175.44,359.33a2.29,2.29,0,1,0,2.29,2.29A2.29,2.29,0,0,0,175.44,359.33Z"/><path class="cls-9" d="M175.44,374.58a2.29,2.29,0,1,0,2.29,2.28A2.28,2.28,0,0,0,175.44,374.58Z"/><path class="cls-9" d="M175.44,389.82a2.29,2.29,0,1,0,2.29,2.28A2.28,2.28,0,0,0,175.44,389.82Z"/><path class="cls-9" d="M175.44,405.06a2.29,2.29,0,1,0,2.29,2.29A2.28,2.28,0,0,0,175.44,405.06Z"/><path class="cls-9" d="M175.44,420.3a2.29,2.29,0,1,0,2.29,2.29A2.29,2.29,0,0,0,175.44,420.3Z"/><path class="cls-9" d="M175.44,435.55a2.29,2.29,0,1,0,2.29,2.28A2.28,2.28,0,0,0,175.44,435.55Z"/><path class="cls-9" d="M175.44,450.79a2.29,2.29,0,1,0,2.29,2.29A2.28,2.28,0,0,0,175.44,450.79Z"/><path class="cls-9" d="M175.44,466a2.29,2.29,0,1,0,2.29,2.29A2.29,2.29,0,0,0,175.44,466Z"/><path class="cls-9" d="M175.44,481.28a2.29,2.29,0,1,0,2.29,2.28A2.28,2.28,0,0,0,175.44,481.28Z"/><path class="cls-9" d="M175.44,496.52a2.29,2.29,0,1,0,2.29,2.28A2.28,2.28,0,0,0,175.44,496.52Z"/><path class="cls-9" d="M175.44,511.76a2.29,2.29,0,1,0,2.29,2.29A2.28,2.28,0,0,0,175.44,511.76Z"/><path class="cls-9" d="M160.2,191.66a2.29,2.29,0,1,0,2.29,2.29A2.29,2.29,0,0,0,160.2,191.66Z"/><path class="cls-9" d="M160.2,176.42a2.29,2.29,0,1,0,2.29,2.28A2.29,2.29,0,0,0,160.2,176.42Z"/><path class="cls-9" d="M160.2,161.17a2.29,2.29,0,1,0,2.29,2.29A2.3,2.3,0,0,0,160.2,161.17Z"/><path class="cls-9" d="M160.2,206.9a2.29,2.29,0,1,0,2.29,2.29A2.3,2.3,0,0,0,160.2,206.9Z"/><path class="cls-9" d="M160.2,222.15a2.29,2.29,0,1,0,2.29,2.28A2.29,2.29,0,0,0,160.2,222.15Z"/><path class="cls-9" d="M160.2,237.39a2.29,2.29,0,1,0,2.29,2.28A2.29,2.29,0,0,0,160.2,237.39Z"/><path class="cls-9" d="M160.2,252.63a2.29,2.29,0,1,0,2.29,2.29A2.29,2.29,0,0,0,160.2,252.63Z"/><path class="cls-9" d="M160.2,267.87a2.29,2.29,0,1,0,2.29,2.29A2.3,2.3,0,0,0,160.2,267.87Z"/><path class="cls-9" d="M160.2,283.12a2.29,2.29,0,1,0,2.29,2.28A2.29,2.29,0,0,0,160.2,283.12Z"/><path class="cls-9" d="M160.2,298.36a2.29,2.29,0,1,0,2.29,2.29A2.29,2.29,0,0,0,160.2,298.36Z"/><path class="cls-9" d="M160.2,313.6a2.29,2.29,0,1,0,2.29,2.29A2.3,2.3,0,0,0,160.2,313.6Z"/><path class="cls-9" d="M160.2,328.85a2.29,2.29,0,1,0,2.29,2.28A2.29,2.29,0,0,0,160.2,328.85Z"/><path class="cls-9" d="M160.2,344.09a2.29,2.29,0,1,0,2.29,2.29A2.29,2.29,0,0,0,160.2,344.09Z"/><path class="cls-9" d="M160.2,359.33a2.29,2.29,0,1,0,2.29,2.29A2.3,2.3,0,0,0,160.2,359.33Z"/><path class="cls-9" d="M160.2,374.58a2.29,2.29,0,1,0,2.29,2.28A2.29,2.29,0,0,0,160.2,374.58Z"/><path class="cls-9" d="M160.2,389.82a2.29,2.29,0,1,0,2.29,2.28A2.29,2.29,0,0,0,160.2,389.82Z"/><path class="cls-9" d="M160.2,405.06a2.29,2.29,0,1,0,2.29,2.29A2.29,2.29,0,0,0,160.2,405.06Z"/><path class="cls-9" d="M160.2,420.3a2.29,2.29,0,1,0,2.29,2.29A2.3,2.3,0,0,0,160.2,420.3Z"/><path class="cls-9" d="M160.2,435.55a2.29,2.29,0,1,0,2.29,2.28A2.29,2.29,0,0,0,160.2,435.55Z"/><path class="cls-9" d="M160.2,450.79a2.29,2.29,0,1,0,2.29,2.29A2.29,2.29,0,0,0,160.2,450.79Z"/><path class="cls-9" d="M160.2,466a2.29,2.29,0,1,0,2.29,2.29A2.3,2.3,0,0,0,160.2,466Z"/><path class="cls-9" d="M160.2,481.28a2.29,2.29,0,1,0,2.29,2.28A2.29,2.29,0,0,0,160.2,481.28Z"/><path class="cls-9" d="M160.2,496.52a2.29,2.29,0,1,0,2.29,2.28A2.29,2.29,0,0,0,160.2,496.52Z"/><path class="cls-9" d="M145,191.66a2.29,2.29,0,1,0,2.28,2.29A2.28,2.28,0,0,0,145,191.66Z"/><path class="cls-9" d="M145,176.42a2.29,2.29,0,1,0,2.28,2.28A2.28,2.28,0,0,0,145,176.42Z"/><path class="cls-9" d="M145,161.17a2.29,2.29,0,1,0,2.28,2.29A2.29,2.29,0,0,0,145,161.17Z"/><path class="cls-9" d="M145,206.9a2.29,2.29,0,1,0,2.28,2.29A2.29,2.29,0,0,0,145,206.9Z"/><path class="cls-9" d="M145,222.15a2.29,2.29,0,1,0,2.28,2.28A2.28,2.28,0,0,0,145,222.15Z"/><path class="cls-9" d="M145,237.39a2.29,2.29,0,1,0,2.28,2.28A2.28,2.28,0,0,0,145,237.39Z"/><path class="cls-9" d="M145,252.63a2.29,2.29,0,1,0,2.28,2.29A2.28,2.28,0,0,0,145,252.63Z"/><path class="cls-9" d="M145,267.87a2.29,2.29,0,1,0,2.28,2.29A2.29,2.29,0,0,0,145,267.87Z"/><path class="cls-9" d="M145,283.12a2.29,2.29,0,1,0,2.28,2.28A2.28,2.28,0,0,0,145,283.12Z"/><path class="cls-9" d="M145,298.36a2.29,2.29,0,1,0,2.28,2.29A2.28,2.28,0,0,0,145,298.36Z"/><path class="cls-9" d="M145,313.6a2.29,2.29,0,1,0,2.28,2.29A2.29,2.29,0,0,0,145,313.6Z"/><path class="cls-9" d="M145,328.85a2.29,2.29,0,1,0,2.28,2.28A2.28,2.28,0,0,0,145,328.85Z"/><path class="cls-9" d="M145,344.09a2.29,2.29,0,1,0,2.28,2.29A2.28,2.28,0,0,0,145,344.09Z"/><path class="cls-9" d="M145,359.33a2.29,2.29,0,1,0,2.28,2.29A2.29,2.29,0,0,0,145,359.33Z"/><path class="cls-9" d="M145,374.58a2.29,2.29,0,1,0,2.28,2.28A2.28,2.28,0,0,0,145,374.58Z"/><path class="cls-9" d="M145,389.82a2.29,2.29,0,1,0,2.28,2.28A2.28,2.28,0,0,0,145,389.82Z"/><path class="cls-9" d="M145,405.06a2.29,2.29,0,1,0,2.28,2.29A2.28,2.28,0,0,0,145,405.06Z"/><path class="cls-9" d="M145,420.3a2.29,2.29,0,1,0,2.28,2.29A2.29,2.29,0,0,0,145,420.3Z"/><path class="cls-9" d="M145,435.55a2.29,2.29,0,1,0,2.28,2.28A2.28,2.28,0,0,0,145,435.55Z"/><path class="cls-9" d="M145,450.79a2.29,2.29,0,1,0,2.28,2.29A2.28,2.28,0,0,0,145,450.79Z"/><path class="cls-9" d="M145,466a2.29,2.29,0,1,0,2.28,2.29A2.29,2.29,0,0,0,145,466Z"/><path class="cls-9" d="M145,481.28a2.29,2.29,0,1,0,2.28,2.28A2.28,2.28,0,0,0,145,481.28Z"/><path class="cls-9" d="M145,496.52a2.29,2.29,0,1,0,2.28,2.28A2.28,2.28,0,0,0,145,496.52Z"/><path class="cls-9" d="M129.71,191.66A2.29,2.29,0,1,0,132,194,2.28,2.28,0,0,0,129.71,191.66Z"/><path class="cls-9" d="M129.71,176.42A2.29,2.29,0,1,0,132,178.7,2.28,2.28,0,0,0,129.71,176.42Z"/><path class="cls-9" d="M129.71,206.9a2.29,2.29,0,1,0,2.29,2.29A2.29,2.29,0,0,0,129.71,206.9Z"/><path class="cls-9" d="M129.71,222.15a2.29,2.29,0,1,0,2.29,2.28A2.28,2.28,0,0,0,129.71,222.15Z"/><path class="cls-9" d="M129.71,237.39a2.29,2.29,0,1,0,2.29,2.28A2.28,2.28,0,0,0,129.71,237.39Z"/><path class="cls-9" d="M129.71,252.63a2.29,2.29,0,1,0,2.29,2.29A2.28,2.28,0,0,0,129.71,252.63Z"/><path class="cls-9" d="M129.71,267.87a2.29,2.29,0,1,0,2.29,2.29A2.29,2.29,0,0,0,129.71,267.87Z"/><path class="cls-9" d="M129.71,283.12A2.29,2.29,0,1,0,132,285.4,2.28,2.28,0,0,0,129.71,283.12Z"/><path class="cls-9" d="M129.71,298.36a2.29,2.29,0,1,0,2.29,2.29A2.28,2.28,0,0,0,129.71,298.36Z"/><path class="cls-9" d="M129.71,313.6a2.29,2.29,0,1,0,2.29,2.29A2.29,2.29,0,0,0,129.71,313.6Z"/><path class="cls-9" d="M129.71,328.85a2.29,2.29,0,1,0,2.29,2.28A2.28,2.28,0,0,0,129.71,328.85Z"/><path class="cls-9" d="M129.71,344.09a2.29,2.29,0,1,0,2.29,2.29A2.28,2.28,0,0,0,129.71,344.09Z"/><path class="cls-9" d="M129.71,359.33a2.29,2.29,0,1,0,2.29,2.29A2.29,2.29,0,0,0,129.71,359.33Z"/><path class="cls-9" d="M129.71,374.58a2.29,2.29,0,1,0,2.29,2.28A2.28,2.28,0,0,0,129.71,374.58Z"/><path class="cls-9" d="M129.71,389.82A2.29,2.29,0,1,0,132,392.1,2.28,2.28,0,0,0,129.71,389.82Z"/><path class="cls-9" d="M129.71,405.06a2.29,2.29,0,1,0,2.29,2.29A2.28,2.28,0,0,0,129.71,405.06Z"/><path class="cls-9" d="M129.71,420.3a2.29,2.29,0,1,0,2.29,2.29A2.29,2.29,0,0,0,129.71,420.3Z"/><path class="cls-9" d="M129.71,435.55a2.29,2.29,0,1,0,2.29,2.28A2.28,2.28,0,0,0,129.71,435.55Z"/><path class="cls-9" d="M129.71,450.79a2.29,2.29,0,1,0,2.29,2.29A2.28,2.28,0,0,0,129.71,450.79Z"/><path class="cls-9" d="M129.71,466a2.29,2.29,0,1,0,2.29,2.29A2.29,2.29,0,0,0,129.71,466Z"/><path class="cls-9" d="M129.71,481.28a2.29,2.29,0,1,0,2.29,2.28A2.28,2.28,0,0,0,129.71,481.28Z"/><path class="cls-9" d="M114.47,191.66a2.29,2.29,0,1,0,2.29,2.29A2.28,2.28,0,0,0,114.47,191.66Z"/><path class="cls-9" d="M114.47,176.42a2.29,2.29,0,1,0,2.29,2.28A2.28,2.28,0,0,0,114.47,176.42Z"/><path class="cls-9" d="M114.47,206.9a2.29,2.29,0,1,0,2.29,2.29A2.29,2.29,0,0,0,114.47,206.9Z"/><path class="cls-9" d="M114.47,222.15a2.29,2.29,0,1,0,2.29,2.28A2.28,2.28,0,0,0,114.47,222.15Z"/><path class="cls-9" d="M114.47,237.39a2.29,2.29,0,1,0,2.29,2.28A2.28,2.28,0,0,0,114.47,237.39Z"/><circle class="cls-9" cx="114.47" cy="254.92" r="2.29"/><path class="cls-9" d="M114.47,267.87a2.29,2.29,0,1,0,2.29,2.29A2.29,2.29,0,0,0,114.47,267.87Z"/><path class="cls-9" d="M114.47,283.12a2.29,2.29,0,1,0,2.29,2.28A2.28,2.28,0,0,0,114.47,283.12Z"/><path class="cls-9" d="M114.47,298.36a2.29,2.29,0,1,0,2.29,2.29A2.28,2.28,0,0,0,114.47,298.36Z"/><path class="cls-9" d="M114.47,313.6a2.29,2.29,0,1,0,2.29,2.29A2.29,2.29,0,0,0,114.47,313.6Z"/><path class="cls-9" d="M114.47,328.85a2.29,2.29,0,1,0,2.29,2.28A2.28,2.28,0,0,0,114.47,328.85Z"/><path class="cls-9" d="M114.47,344.09a2.29,2.29,0,1,0,2.29,2.29A2.28,2.28,0,0,0,114.47,344.09Z"/><path class="cls-9" d="M114.47,359.33a2.29,2.29,0,1,0,2.29,2.29A2.29,2.29,0,0,0,114.47,359.33Z"/><path class="cls-9" d="M114.47,374.58a2.29,2.29,0,1,0,2.29,2.28A2.28,2.28,0,0,0,114.47,374.58Z"/><path class="cls-9" d="M114.47,389.82a2.29,2.29,0,1,0,2.29,2.28A2.28,2.28,0,0,0,114.47,389.82Z"/><path class="cls-9" d="M114.47,405.06a2.29,2.29,0,1,0,2.29,2.29A2.28,2.28,0,0,0,114.47,405.06Z"/><path class="cls-9" d="M114.47,420.3a2.29,2.29,0,1,0,2.29,2.29A2.29,2.29,0,0,0,114.47,420.3Z"/><path class="cls-9" d="M114.47,435.55a2.29,2.29,0,1,0,2.29,2.28A2.28,2.28,0,0,0,114.47,435.55Z"/><path class="cls-9" d="M114.47,450.79a2.29,2.29,0,1,0,2.29,2.29A2.28,2.28,0,0,0,114.47,450.79Z"/><path class="cls-9" d="M114.47,466a2.29,2.29,0,1,0,2.29,2.29A2.29,2.29,0,0,0,114.47,466Z"/><path class="cls-9" d="M114.47,481.28a2.29,2.29,0,1,0,2.29,2.28A2.28,2.28,0,0,0,114.47,481.28Z"/><path class="cls-9" d="M99.23,191.66a2.29,2.29,0,1,0,2.28,2.29A2.29,2.29,0,0,0,99.23,191.66Z"/><path class="cls-9" d="M99.23,206.9a2.29,2.29,0,1,0,2.28,2.29A2.3,2.3,0,0,0,99.23,206.9Z"/><path class="cls-9" d="M99.23,222.15a2.29,2.29,0,1,0,2.28,2.28A2.29,2.29,0,0,0,99.23,222.15Z"/><path class="cls-9" d="M99.23,237.39a2.29,2.29,0,1,0,2.28,2.28A2.29,2.29,0,0,0,99.23,237.39Z"/><path class="cls-9" d="M99.23,252.63a2.29,2.29,0,1,0,2.28,2.29A2.29,2.29,0,0,0,99.23,252.63Z"/><path class="cls-9" d="M99.23,267.87a2.29,2.29,0,1,0,2.28,2.29A2.3,2.3,0,0,0,99.23,267.87Z"/><path class="cls-9" d="M99.23,283.12a2.29,2.29,0,1,0,2.28,2.28A2.29,2.29,0,0,0,99.23,283.12Z"/><path class="cls-9" d="M99.23,298.36a2.29,2.29,0,1,0,2.28,2.29A2.29,2.29,0,0,0,99.23,298.36Z"/><path class="cls-9" d="M99.23,313.6a2.29,2.29,0,1,0,2.28,2.29A2.3,2.3,0,0,0,99.23,313.6Z"/><path class="cls-9" d="M99.23,328.85a2.29,2.29,0,1,0,2.28,2.28A2.29,2.29,0,0,0,99.23,328.85Z"/><path class="cls-9" d="M99.23,344.09a2.29,2.29,0,1,0,2.28,2.29A2.29,2.29,0,0,0,99.23,344.09Z"/><path class="cls-9" d="M99.23,359.33a2.29,2.29,0,1,0,2.28,2.29A2.3,2.3,0,0,0,99.23,359.33Z"/><path class="cls-9" d="M99.23,374.58a2.29,2.29,0,1,0,2.28,2.28A2.29,2.29,0,0,0,99.23,374.58Z"/><path class="cls-9" d="M99.23,389.82a2.29,2.29,0,1,0,2.28,2.28A2.29,2.29,0,0,0,99.23,389.82Z"/><path class="cls-9" d="M99.23,405.06a2.29,2.29,0,1,0,2.28,2.29A2.29,2.29,0,0,0,99.23,405.06Z"/><path class="cls-9" d="M99.23,420.3a2.29,2.29,0,1,0,2.28,2.29A2.3,2.3,0,0,0,99.23,420.3Z"/><path class="cls-9" d="M99.23,435.55a2.29,2.29,0,1,0,2.28,2.28A2.29,2.29,0,0,0,99.23,435.55Z"/><path class="cls-9" d="M99.23,450.79a2.29,2.29,0,1,0,2.28,2.29A2.29,2.29,0,0,0,99.23,450.79Z"/><path class="cls-9" d="M99.23,466a2.29,2.29,0,1,0,2.28,2.29A2.3,2.3,0,0,0,99.23,466Z"/><path class="cls-9" d="M84,206.9a2.29,2.29,0,1,0,2.29,2.29A2.29,2.29,0,0,0,84,206.9Z"/><path class="cls-9" d="M84,222.15a2.29,2.29,0,1,0,2.29,2.28A2.28,2.28,0,0,0,84,222.15Z"/><path class="cls-9" d="M84,237.39a2.29,2.29,0,1,0,2.29,2.28A2.28,2.28,0,0,0,84,237.39Z"/><circle class="cls-9" cx="83.98" cy="254.92" r="2.29"/><path class="cls-9" d="M84,267.87a2.29,2.29,0,1,0,2.29,2.29A2.29,2.29,0,0,0,84,267.87Z"/><path class="cls-9" d="M84,283.12a2.29,2.29,0,1,0,2.29,2.28A2.28,2.28,0,0,0,84,283.12Z"/><path class="cls-9" d="M84,298.36a2.29,2.29,0,1,0,2.29,2.29A2.28,2.28,0,0,0,84,298.36Z"/><path class="cls-9" d="M84,313.6a2.29,2.29,0,1,0,2.29,2.29A2.29,2.29,0,0,0,84,313.6Z"/><path class="cls-9" d="M84,328.85a2.29,2.29,0,1,0,2.29,2.28A2.28,2.28,0,0,0,84,328.85Z"/><path class="cls-9" d="M84,344.09a2.29,2.29,0,1,0,2.29,2.29A2.28,2.28,0,0,0,84,344.09Z"/><path class="cls-9" d="M84,359.33a2.29,2.29,0,1,0,2.29,2.29A2.29,2.29,0,0,0,84,359.33Z"/><path class="cls-9" d="M84,374.58a2.29,2.29,0,1,0,2.29,2.28A2.28,2.28,0,0,0,84,374.58Z"/><path class="cls-9" d="M84,389.82a2.29,2.29,0,1,0,2.29,2.28A2.28,2.28,0,0,0,84,389.82Z"/><path class="cls-9" d="M84,405.06a2.29,2.29,0,1,0,2.29,2.29A2.28,2.28,0,0,0,84,405.06Z"/><path class="cls-9" d="M84,420.3a2.29,2.29,0,1,0,2.29,2.29A2.29,2.29,0,0,0,84,420.3Z"/><path class="cls-9" d="M84,435.55a2.29,2.29,0,1,0,2.29,2.28A2.28,2.28,0,0,0,84,435.55Z"/><path class="cls-9" d="M84,450.79a2.29,2.29,0,1,0,2.29,2.29A2.28,2.28,0,0,0,84,450.79Z"/><path class="cls-9" d="M68.74,222.15A2.29,2.29,0,1,0,71,224.43,2.28,2.28,0,0,0,68.74,222.15Z"/><path class="cls-9" d="M68.74,237.39A2.29,2.29,0,1,0,71,239.67,2.28,2.28,0,0,0,68.74,237.39Z"/><circle class="cls-9" cx="68.74" cy="254.92" r="2.29"/><path class="cls-9" d="M68.74,267.87A2.29,2.29,0,1,0,71,270.16,2.29,2.29,0,0,0,68.74,267.87Z"/><path class="cls-9" d="M68.74,283.12A2.29,2.29,0,1,0,71,285.4,2.28,2.28,0,0,0,68.74,283.12Z"/><path class="cls-9" d="M68.74,298.36A2.29,2.29,0,1,0,71,300.65,2.28,2.28,0,0,0,68.74,298.36Z"/><path class="cls-9" d="M68.74,313.6A2.29,2.29,0,1,0,71,315.89,2.29,2.29,0,0,0,68.74,313.6Z"/><path class="cls-9" d="M68.74,328.85A2.29,2.29,0,1,0,71,331.13,2.28,2.28,0,0,0,68.74,328.85Z"/><path class="cls-9" d="M68.74,344.09A2.29,2.29,0,1,0,71,346.38,2.28,2.28,0,0,0,68.74,344.09Z"/><path class="cls-9" d="M68.74,359.33A2.29,2.29,0,1,0,71,361.62,2.29,2.29,0,0,0,68.74,359.33Z"/><path class="cls-9" d="M68.74,374.58A2.29,2.29,0,1,0,71,376.86,2.28,2.28,0,0,0,68.74,374.58Z"/><path class="cls-9" d="M68.74,389.82A2.29,2.29,0,1,0,71,392.1,2.28,2.28,0,0,0,68.74,389.82Z"/><path class="cls-9" d="M68.74,405.06A2.29,2.29,0,1,0,71,407.35,2.28,2.28,0,0,0,68.74,405.06Z"/><path class="cls-9" d="M68.74,420.3A2.29,2.29,0,1,0,71,422.59,2.29,2.29,0,0,0,68.74,420.3Z"/><path class="cls-9" d="M68.74,435.55A2.29,2.29,0,1,0,71,437.83,2.28,2.28,0,0,0,68.74,435.55Z"/><path class="cls-9" d="M53.5,252.63a2.29,2.29,0,1,0,2.29,2.29A2.29,2.29,0,0,0,53.5,252.63Z"/><path class="cls-9" d="M53.5,267.87a2.29,2.29,0,1,0,2.29,2.29A2.3,2.3,0,0,0,53.5,267.87Z"/><path class="cls-9" d="M53.5,283.12a2.29,2.29,0,1,0,2.29,2.28A2.29,2.29,0,0,0,53.5,283.12Z"/><path class="cls-9" d="M53.5,298.36a2.29,2.29,0,1,0,2.29,2.29A2.29,2.29,0,0,0,53.5,298.36Z"/><path class="cls-9" d="M53.5,313.6a2.29,2.29,0,1,0,2.29,2.29A2.3,2.3,0,0,0,53.5,313.6Z"/><path class="cls-9" d="M53.5,328.85a2.29,2.29,0,1,0,2.29,2.28A2.29,2.29,0,0,0,53.5,328.85Z"/><path class="cls-9" d="M53.5,344.09a2.29,2.29,0,1,0,2.29,2.29A2.29,2.29,0,0,0,53.5,344.09Z"/><path class="cls-9" d="M53.5,359.33a2.29,2.29,0,1,0,2.29,2.29A2.3,2.3,0,0,0,53.5,359.33Z"/><path class="cls-9" d="M53.5,374.58a2.29,2.29,0,1,0,2.29,2.28A2.29,2.29,0,0,0,53.5,374.58Z"/><path class="cls-9" d="M53.5,389.82a2.29,2.29,0,1,0,2.29,2.28A2.29,2.29,0,0,0,53.5,389.82Z"/><path class="cls-9" d="M53.5,405.06a2.29,2.29,0,1,0,2.29,2.29A2.29,2.29,0,0,0,53.5,405.06Z"/><path class="cls-9" d="M38.26,283.12a2.29,2.29,0,1,0,2.28,2.28A2.28,2.28,0,0,0,38.26,283.12Z"/><path class="cls-9" d="M38.26,298.36a2.29,2.29,0,1,0,2.28,2.29A2.28,2.28,0,0,0,38.26,298.36Z"/><path class="cls-9" d="M38.26,313.6a2.29,2.29,0,1,0,2.28,2.29A2.29,2.29,0,0,0,38.26,313.6Z"/><path class="cls-9" d="M38.26,328.85a2.29,2.29,0,1,0,2.28,2.28A2.28,2.28,0,0,0,38.26,328.85Z"/><path class="cls-9" d="M38.26,344.09a2.29,2.29,0,1,0,2.28,2.29A2.28,2.28,0,0,0,38.26,344.09Z"/><path class="cls-9" d="M38.26,359.33a2.29,2.29,0,1,0,2.28,2.29A2.29,2.29,0,0,0,38.26,359.33Z"/><path class="cls-9" d="M38.26,374.58a2.29,2.29,0,1,0,2.28,2.28A2.28,2.28,0,0,0,38.26,374.58Z"/><path class="cls-9" d="M632.73,191.66A2.29,2.29,0,1,0,635,194,2.28,2.28,0,0,0,632.73,191.66Z"/><path class="cls-9" d="M632.73,206.9a2.29,2.29,0,1,0,2.29,2.29A2.29,2.29,0,0,0,632.73,206.9Z"/><path class="cls-9" d="M632.73,222.15a2.29,2.29,0,1,0,2.29,2.28A2.28,2.28,0,0,0,632.73,222.15Z"/><path class="cls-9" d="M632.73,237.39a2.29,2.29,0,1,0,2.29,2.28A2.28,2.28,0,0,0,632.73,237.39Z"/><path class="cls-9" d="M632.73,252.63a2.29,2.29,0,1,0,2.29,2.29A2.28,2.28,0,0,0,632.73,252.63Z"/><path class="cls-9" d="M632.73,267.87a2.29,2.29,0,1,0,2.29,2.29A2.29,2.29,0,0,0,632.73,267.87Z"/><path class="cls-9" d="M632.73,283.12A2.29,2.29,0,1,0,635,285.4,2.28,2.28,0,0,0,632.73,283.12Z"/><path class="cls-9" d="M632.73,298.36a2.29,2.29,0,1,0,2.29,2.29A2.28,2.28,0,0,0,632.73,298.36Z"/><path class="cls-9" d="M632.73,313.6a2.29,2.29,0,1,0,2.29,2.29A2.29,2.29,0,0,0,632.73,313.6Z"/><path class="cls-9" d="M632.73,328.85a2.29,2.29,0,1,0,2.29,2.28A2.28,2.28,0,0,0,632.73,328.85Z"/><path class="cls-9" d="M632.73,344.09a2.29,2.29,0,1,0,2.29,2.29A2.28,2.28,0,0,0,632.73,344.09Z"/><path class="cls-9" d="M632.73,359.33a2.29,2.29,0,1,0,2.29,2.29A2.29,2.29,0,0,0,632.73,359.33Z"/><path class="cls-9" d="M632.73,374.58a2.29,2.29,0,1,0,2.29,2.28A2.28,2.28,0,0,0,632.73,374.58Z"/><path class="cls-9" d="M632.73,389.82A2.29,2.29,0,1,0,635,392.1,2.28,2.28,0,0,0,632.73,389.82Z"/><path class="cls-9" d="M632.73,405.06a2.29,2.29,0,1,0,2.29,2.29A2.28,2.28,0,0,0,632.73,405.06Z"/><path class="cls-9" d="M632.73,420.3a2.29,2.29,0,1,0,2.29,2.29A2.29,2.29,0,0,0,632.73,420.3Z"/><path class="cls-9" d="M632.73,435.55a2.29,2.29,0,1,0,2.29,2.28A2.28,2.28,0,0,0,632.73,435.55Z"/><path class="cls-9" d="M632.73,450.79a2.29,2.29,0,1,0,2.29,2.29A2.28,2.28,0,0,0,632.73,450.79Z"/><path class="cls-9" d="M632.73,466a2.29,2.29,0,1,0,2.29,2.29A2.29,2.29,0,0,0,632.73,466Z"/><path class="cls-9" d="M648,191.66a2.29,2.29,0,1,0,2.28,2.29A2.28,2.28,0,0,0,648,191.66Z"/><path class="cls-9" d="M648,206.9a2.29,2.29,0,1,0,2.28,2.29A2.29,2.29,0,0,0,648,206.9Z"/><path class="cls-9" d="M648,222.15a2.29,2.29,0,1,0,2.28,2.28A2.28,2.28,0,0,0,648,222.15Z"/><path class="cls-9" d="M648,237.39a2.29,2.29,0,1,0,2.28,2.28A2.28,2.28,0,0,0,648,237.39Z"/><path class="cls-9" d="M648,252.63a2.29,2.29,0,1,0,2.28,2.29A2.28,2.28,0,0,0,648,252.63Z"/><path class="cls-9" d="M648,267.87a2.29,2.29,0,1,0,2.28,2.29A2.29,2.29,0,0,0,648,267.87Z"/><path class="cls-9" d="M648,283.12a2.29,2.29,0,1,0,2.28,2.28A2.28,2.28,0,0,0,648,283.12Z"/><path class="cls-9" d="M648,298.36a2.29,2.29,0,1,0,2.28,2.29A2.28,2.28,0,0,0,648,298.36Z"/><path class="cls-9" d="M648,313.6a2.29,2.29,0,1,0,2.28,2.29A2.29,2.29,0,0,0,648,313.6Z"/><path class="cls-9" d="M648,328.85a2.29,2.29,0,1,0,2.28,2.28A2.28,2.28,0,0,0,648,328.85Z"/><path class="cls-9" d="M648,344.09a2.29,2.29,0,1,0,2.28,2.29A2.28,2.28,0,0,0,648,344.09Z"/><path class="cls-9" d="M648,359.33a2.29,2.29,0,1,0,2.28,2.29A2.29,2.29,0,0,0,648,359.33Z"/><path class="cls-9" d="M648,374.58a2.29,2.29,0,1,0,2.28,2.28A2.28,2.28,0,0,0,648,374.58Z"/><path class="cls-9" d="M648,389.82a2.29,2.29,0,1,0,2.28,2.28A2.28,2.28,0,0,0,648,389.82Z"/><path class="cls-9" d="M648,405.06a2.29,2.29,0,1,0,2.28,2.29A2.28,2.28,0,0,0,648,405.06Z"/><path class="cls-9" d="M648,420.3a2.29,2.29,0,1,0,2.28,2.29A2.29,2.29,0,0,0,648,420.3Z"/><path class="cls-9" d="M648,435.55a2.29,2.29,0,1,0,2.28,2.28A2.28,2.28,0,0,0,648,435.55Z"/><path class="cls-9" d="M648,450.79a2.29,2.29,0,1,0,2.28,2.29A2.28,2.28,0,0,0,648,450.79Z"/><path class="cls-9" d="M648,466a2.29,2.29,0,1,0,2.28,2.29A2.29,2.29,0,0,0,648,466Z"/><path class="cls-9" d="M663.22,191.66A2.29,2.29,0,1,0,665.5,194,2.29,2.29,0,0,0,663.22,191.66Z"/><path class="cls-9" d="M663.22,206.9a2.29,2.29,0,1,0,2.28,2.29A2.3,2.3,0,0,0,663.22,206.9Z"/><path class="cls-9" d="M663.22,222.15a2.29,2.29,0,1,0,2.28,2.28A2.29,2.29,0,0,0,663.22,222.15Z"/><path class="cls-9" d="M663.22,237.39a2.29,2.29,0,1,0,2.28,2.28A2.29,2.29,0,0,0,663.22,237.39Z"/><path class="cls-9" d="M663.22,252.63a2.29,2.29,0,1,0,2.28,2.29A2.29,2.29,0,0,0,663.22,252.63Z"/><path class="cls-9" d="M663.22,267.87a2.29,2.29,0,1,0,2.28,2.29A2.3,2.3,0,0,0,663.22,267.87Z"/><path class="cls-9" d="M663.22,283.12a2.29,2.29,0,1,0,2.28,2.28A2.29,2.29,0,0,0,663.22,283.12Z"/><path class="cls-9" d="M663.22,298.36a2.29,2.29,0,1,0,2.28,2.29A2.29,2.29,0,0,0,663.22,298.36Z"/><path class="cls-9" d="M663.22,313.6a2.29,2.29,0,1,0,2.28,2.29A2.3,2.3,0,0,0,663.22,313.6Z"/><path class="cls-9" d="M663.22,328.85a2.29,2.29,0,1,0,2.28,2.28A2.29,2.29,0,0,0,663.22,328.85Z"/><path class="cls-9" d="M663.22,344.09a2.29,2.29,0,1,0,2.28,2.29A2.29,2.29,0,0,0,663.22,344.09Z"/><path class="cls-9" d="M663.22,359.33a2.29,2.29,0,1,0,2.28,2.29A2.3,2.3,0,0,0,663.22,359.33Z"/><path class="cls-9" d="M663.22,374.58a2.29,2.29,0,1,0,2.28,2.28A2.29,2.29,0,0,0,663.22,374.58Z"/><path class="cls-9" d="M663.22,389.82a2.29,2.29,0,1,0,2.28,2.28A2.29,2.29,0,0,0,663.22,389.82Z"/><path class="cls-9" d="M663.22,405.06a2.29,2.29,0,1,0,2.28,2.29A2.29,2.29,0,0,0,663.22,405.06Z"/><path class="cls-9" d="M663.22,420.3a2.29,2.29,0,1,0,2.28,2.29A2.3,2.3,0,0,0,663.22,420.3Z"/><path class="cls-9" d="M663.22,435.55a2.29,2.29,0,1,0,2.28,2.28A2.29,2.29,0,0,0,663.22,435.55Z"/><path class="cls-9" d="M663.22,450.79a2.29,2.29,0,1,0,2.28,2.29A2.29,2.29,0,0,0,663.22,450.79Z"/><path class="cls-9" d="M663.22,466a2.29,2.29,0,1,0,2.28,2.29A2.3,2.3,0,0,0,663.22,466Z"/><path class="cls-9" d="M678.46,191.66a2.29,2.29,0,1,0,2.29,2.29A2.28,2.28,0,0,0,678.46,191.66Z"/><path class="cls-9" d="M678.46,206.9a2.29,2.29,0,1,0,2.29,2.29A2.29,2.29,0,0,0,678.46,206.9Z"/><path class="cls-9" d="M678.46,222.15a2.29,2.29,0,1,0,2.29,2.28A2.28,2.28,0,0,0,678.46,222.15Z"/><path class="cls-9" d="M678.46,237.39a2.29,2.29,0,1,0,2.29,2.28A2.28,2.28,0,0,0,678.46,237.39Z"/><path class="cls-9" d="M678.46,252.63a2.29,2.29,0,1,0,2.29,2.29A2.28,2.28,0,0,0,678.46,252.63Z"/><path class="cls-9" d="M678.46,267.87a2.29,2.29,0,1,0,2.29,2.29A2.29,2.29,0,0,0,678.46,267.87Z"/><path class="cls-9" d="M678.46,283.12a2.29,2.29,0,1,0,2.29,2.28A2.28,2.28,0,0,0,678.46,283.12Z"/><path class="cls-9" d="M678.46,298.36a2.29,2.29,0,1,0,2.29,2.29A2.28,2.28,0,0,0,678.46,298.36Z"/><path class="cls-9" d="M678.46,313.6a2.29,2.29,0,1,0,2.29,2.29A2.29,2.29,0,0,0,678.46,313.6Z"/><path class="cls-9" d="M678.46,328.85a2.29,2.29,0,1,0,2.29,2.28A2.28,2.28,0,0,0,678.46,328.85Z"/><path class="cls-9" d="M678.46,344.09a2.29,2.29,0,1,0,2.29,2.29A2.28,2.28,0,0,0,678.46,344.09Z"/><path class="cls-9" d="M678.46,359.33a2.29,2.29,0,1,0,2.29,2.29A2.29,2.29,0,0,0,678.46,359.33Z"/><path class="cls-9" d="M678.46,374.58a2.29,2.29,0,1,0,2.29,2.28A2.28,2.28,0,0,0,678.46,374.58Z"/><path class="cls-9" d="M678.46,389.82a2.29,2.29,0,1,0,2.29,2.28A2.28,2.28,0,0,0,678.46,389.82Z"/><path class="cls-9" d="M678.46,405.06a2.29,2.29,0,1,0,2.29,2.29A2.28,2.28,0,0,0,678.46,405.06Z"/><path class="cls-9" d="M678.46,420.3a2.29,2.29,0,1,0,2.29,2.29A2.29,2.29,0,0,0,678.46,420.3Z"/><path class="cls-9" d="M678.46,435.55a2.29,2.29,0,1,0,2.29,2.28A2.28,2.28,0,0,0,678.46,435.55Z"/><path class="cls-9" d="M678.46,450.79a2.29,2.29,0,1,0,2.29,2.29A2.28,2.28,0,0,0,678.46,450.79Z"/><path class="cls-9" d="M678.46,466a2.29,2.29,0,1,0,2.29,2.29A2.29,2.29,0,0,0,678.46,466Z"/><path class="cls-9" d="M693.71,191.66A2.29,2.29,0,1,0,696,194,2.28,2.28,0,0,0,693.71,191.66Z"/><path class="cls-9" d="M693.71,206.9a2.29,2.29,0,1,0,2.28,2.29A2.29,2.29,0,0,0,693.71,206.9Z"/><path class="cls-9" d="M693.71,222.15a2.29,2.29,0,1,0,2.28,2.28A2.28,2.28,0,0,0,693.71,222.15Z"/><path class="cls-9" d="M693.71,237.39a2.29,2.29,0,1,0,2.28,2.28A2.28,2.28,0,0,0,693.71,237.39Z"/><path class="cls-9" d="M693.71,252.63a2.29,2.29,0,1,0,2.28,2.29A2.28,2.28,0,0,0,693.71,252.63Z"/><path class="cls-9" d="M693.71,267.87a2.29,2.29,0,1,0,2.28,2.29A2.29,2.29,0,0,0,693.71,267.87Z"/><path class="cls-9" d="M693.71,283.12A2.29,2.29,0,1,0,696,285.4,2.28,2.28,0,0,0,693.71,283.12Z"/><path class="cls-9" d="M693.71,298.36a2.29,2.29,0,1,0,2.28,2.29A2.28,2.28,0,0,0,693.71,298.36Z"/><path class="cls-9" d="M693.71,313.6a2.29,2.29,0,1,0,2.28,2.29A2.29,2.29,0,0,0,693.71,313.6Z"/><path class="cls-9" d="M693.71,328.85a2.29,2.29,0,1,0,2.28,2.28A2.28,2.28,0,0,0,693.71,328.85Z"/><path class="cls-9" d="M693.71,344.09a2.29,2.29,0,1,0,2.28,2.29A2.28,2.28,0,0,0,693.71,344.09Z"/><path class="cls-9" d="M693.71,359.33a2.29,2.29,0,1,0,2.28,2.29A2.29,2.29,0,0,0,693.71,359.33Z"/><path class="cls-9" d="M693.71,374.58a2.29,2.29,0,1,0,2.28,2.28A2.28,2.28,0,0,0,693.71,374.58Z"/><path class="cls-9" d="M693.71,389.82A2.29,2.29,0,1,0,696,392.1,2.28,2.28,0,0,0,693.71,389.82Z"/><path class="cls-9" d="M693.71,405.06a2.29,2.29,0,1,0,2.28,2.29A2.28,2.28,0,0,0,693.71,405.06Z"/><path class="cls-9" d="M693.71,420.3a2.29,2.29,0,1,0,2.28,2.29A2.29,2.29,0,0,0,693.71,420.3Z"/><path class="cls-9" d="M693.71,435.55a2.29,2.29,0,1,0,2.28,2.28A2.28,2.28,0,0,0,693.71,435.55Z"/><path class="cls-9" d="M693.71,450.79a2.29,2.29,0,1,0,2.28,2.29A2.28,2.28,0,0,0,693.71,450.79Z"/><path class="cls-9" d="M709,206.9a2.29,2.29,0,1,0,2.28,2.29A2.3,2.3,0,0,0,709,206.9Z"/><path class="cls-9" d="M709,222.15a2.29,2.29,0,1,0,2.28,2.28A2.29,2.29,0,0,0,709,222.15Z"/><path class="cls-9" d="M709,237.39a2.29,2.29,0,1,0,2.28,2.28A2.29,2.29,0,0,0,709,237.39Z"/><path class="cls-9" d="M709,252.63a2.29,2.29,0,1,0,2.28,2.29A2.29,2.29,0,0,0,709,252.63Z"/><path class="cls-9" d="M709,267.87a2.29,2.29,0,1,0,2.28,2.29A2.3,2.3,0,0,0,709,267.87Z"/><path class="cls-9" d="M709,283.12a2.29,2.29,0,1,0,2.28,2.28A2.29,2.29,0,0,0,709,283.12Z"/><path class="cls-9" d="M709,298.36a2.29,2.29,0,1,0,2.28,2.29A2.29,2.29,0,0,0,709,298.36Z"/><path class="cls-9" d="M709,313.6a2.29,2.29,0,1,0,2.28,2.29A2.3,2.3,0,0,0,709,313.6Z"/><path class="cls-9" d="M709,328.85a2.29,2.29,0,1,0,2.28,2.28A2.29,2.29,0,0,0,709,328.85Z"/><path class="cls-9" d="M709,344.09a2.29,2.29,0,1,0,2.28,2.29A2.29,2.29,0,0,0,709,344.09Z"/><path class="cls-9" d="M709,359.33a2.29,2.29,0,1,0,2.28,2.29A2.3,2.3,0,0,0,709,359.33Z"/><path class="cls-9" d="M709,374.58a2.29,2.29,0,1,0,2.28,2.28A2.29,2.29,0,0,0,709,374.58Z"/><path class="cls-9" d="M709,389.82a2.29,2.29,0,1,0,2.28,2.28A2.29,2.29,0,0,0,709,389.82Z"/><path class="cls-9" d="M709,405.06a2.29,2.29,0,1,0,2.28,2.29A2.29,2.29,0,0,0,709,405.06Z"/><path class="cls-9" d="M709,420.3a2.29,2.29,0,1,0,2.28,2.29A2.3,2.3,0,0,0,709,420.3Z"/><path class="cls-9" d="M709,435.55a2.29,2.29,0,1,0,2.28,2.28A2.29,2.29,0,0,0,709,435.55Z"/><path class="cls-9" d="M709,450.79a2.29,2.29,0,1,0,2.28,2.29A2.29,2.29,0,0,0,709,450.79Z"/><path class="cls-9" d="M724.19,206.9a2.29,2.29,0,1,0,2.29,2.29A2.3,2.3,0,0,0,724.19,206.9Z"/><path class="cls-9" d="M724.19,222.15a2.29,2.29,0,1,0,2.29,2.28A2.29,2.29,0,0,0,724.19,222.15Z"/><path class="cls-9" d="M724.19,237.39a2.29,2.29,0,1,0,2.29,2.28A2.29,2.29,0,0,0,724.19,237.39Z"/><path class="cls-9" d="M724.19,252.63a2.29,2.29,0,1,0,2.29,2.29A2.29,2.29,0,0,0,724.19,252.63Z"/><path class="cls-9" d="M724.19,267.87a2.29,2.29,0,1,0,2.29,2.29A2.3,2.3,0,0,0,724.19,267.87Z"/><path class="cls-9" d="M724.19,283.12a2.29,2.29,0,1,0,2.29,2.28A2.29,2.29,0,0,0,724.19,283.12Z"/><path class="cls-9" d="M724.19,298.36a2.29,2.29,0,1,0,2.29,2.29A2.29,2.29,0,0,0,724.19,298.36Z"/><path class="cls-9" d="M724.19,313.6a2.29,2.29,0,1,0,2.29,2.29A2.3,2.3,0,0,0,724.19,313.6Z"/><path class="cls-9" d="M724.19,328.85a2.29,2.29,0,1,0,2.29,2.28A2.29,2.29,0,0,0,724.19,328.85Z"/><path class="cls-9" d="M724.19,344.09a2.29,2.29,0,1,0,2.29,2.29A2.29,2.29,0,0,0,724.19,344.09Z"/><path class="cls-9" d="M724.19,359.33a2.29,2.29,0,1,0,2.29,2.29A2.3,2.3,0,0,0,724.19,359.33Z"/><path class="cls-9" d="M724.19,374.58a2.29,2.29,0,1,0,2.29,2.28A2.29,2.29,0,0,0,724.19,374.58Z"/><path class="cls-9" d="M724.19,389.82a2.29,2.29,0,1,0,2.29,2.28A2.29,2.29,0,0,0,724.19,389.82Z"/><path class="cls-9" d="M724.19,405.06a2.29,2.29,0,1,0,2.29,2.29A2.29,2.29,0,0,0,724.19,405.06Z"/><path class="cls-9" d="M724.19,420.3a2.29,2.29,0,1,0,2.29,2.29A2.3,2.3,0,0,0,724.19,420.3Z"/><path class="cls-9" d="M724.19,435.55a2.29,2.29,0,1,0,2.29,2.28A2.29,2.29,0,0,0,724.19,435.55Z"/><path class="cls-9" d="M739.43,222.15a2.29,2.29,0,1,0,2.29,2.28A2.28,2.28,0,0,0,739.43,222.15Z"/><path class="cls-9" d="M739.43,237.39a2.29,2.29,0,1,0,2.29,2.28A2.28,2.28,0,0,0,739.43,237.39Z"/><path class="cls-9" d="M739.43,252.63a2.29,2.29,0,1,0,2.29,2.29A2.28,2.28,0,0,0,739.43,252.63Z"/><path class="cls-9" d="M739.43,267.87a2.29,2.29,0,1,0,2.29,2.29A2.29,2.29,0,0,0,739.43,267.87Z"/><path class="cls-9" d="M739.43,283.12a2.29,2.29,0,1,0,2.29,2.28A2.28,2.28,0,0,0,739.43,283.12Z"/><path class="cls-9" d="M739.43,298.36a2.29,2.29,0,1,0,2.29,2.29A2.28,2.28,0,0,0,739.43,298.36Z"/><path class="cls-9" d="M739.43,313.6a2.29,2.29,0,1,0,2.29,2.29A2.29,2.29,0,0,0,739.43,313.6Z"/><path class="cls-9" d="M739.43,328.85a2.29,2.29,0,1,0,2.29,2.28A2.28,2.28,0,0,0,739.43,328.85Z"/><path class="cls-9" d="M739.43,344.09a2.29,2.29,0,1,0,2.29,2.29A2.28,2.28,0,0,0,739.43,344.09Z"/><path class="cls-9" d="M739.43,359.33a2.29,2.29,0,1,0,2.29,2.29A2.29,2.29,0,0,0,739.43,359.33Z"/><path class="cls-9" d="M739.43,374.58a2.29,2.29,0,1,0,2.29,2.28A2.28,2.28,0,0,0,739.43,374.58Z"/><path class="cls-9" d="M739.43,389.82a2.29,2.29,0,1,0,2.29,2.28A2.28,2.28,0,0,0,739.43,389.82Z"/><path class="cls-9" d="M739.43,405.06a2.29,2.29,0,1,0,2.29,2.29A2.28,2.28,0,0,0,739.43,405.06Z"/><path class="cls-9" d="M739.43,420.3a2.29,2.29,0,1,0,2.29,2.29A2.29,2.29,0,0,0,739.43,420.3Z"/><path class="cls-9" d="M739.43,435.55a2.29,2.29,0,1,0,2.29,2.28A2.28,2.28,0,0,0,739.43,435.55Z"/><path class="cls-9" d="M754.68,222.15a2.29,2.29,0,1,0,2.28,2.28A2.28,2.28,0,0,0,754.68,222.15Z"/><path class="cls-9" d="M754.68,237.39a2.29,2.29,0,1,0,2.28,2.28A2.28,2.28,0,0,0,754.68,237.39Z"/><path class="cls-9" d="M754.68,252.63a2.29,2.29,0,1,0,2.28,2.29A2.28,2.28,0,0,0,754.68,252.63Z"/><path class="cls-9" d="M754.68,267.87a2.29,2.29,0,1,0,2.28,2.29A2.29,2.29,0,0,0,754.68,267.87Z"/><path class="cls-9" d="M754.68,283.12A2.29,2.29,0,1,0,757,285.4,2.28,2.28,0,0,0,754.68,283.12Z"/><path class="cls-9" d="M754.68,298.36a2.29,2.29,0,1,0,2.28,2.29A2.28,2.28,0,0,0,754.68,298.36Z"/><path class="cls-9" d="M754.68,313.6a2.29,2.29,0,1,0,2.28,2.29A2.29,2.29,0,0,0,754.68,313.6Z"/><path class="cls-9" d="M754.68,328.85a2.29,2.29,0,1,0,2.28,2.28A2.28,2.28,0,0,0,754.68,328.85Z"/><path class="cls-9" d="M754.68,344.09a2.29,2.29,0,1,0,2.28,2.29A2.28,2.28,0,0,0,754.68,344.09Z"/><path class="cls-9" d="M754.68,359.33a2.29,2.29,0,1,0,2.28,2.29A2.29,2.29,0,0,0,754.68,359.33Z"/><path class="cls-9" d="M754.68,374.58a2.29,2.29,0,1,0,2.28,2.28A2.28,2.28,0,0,0,754.68,374.58Z"/><path class="cls-9" d="M754.68,389.82A2.29,2.29,0,1,0,757,392.1,2.28,2.28,0,0,0,754.68,389.82Z"/><path class="cls-9" d="M754.68,405.06a2.29,2.29,0,1,0,2.28,2.29A2.28,2.28,0,0,0,754.68,405.06Z"/><path class="cls-9" d="M754.68,420.3a2.29,2.29,0,1,0,2.28,2.29A2.29,2.29,0,0,0,754.68,420.3Z"/><path class="cls-9" d="M769.92,237.39a2.29,2.29,0,1,0,2.29,2.28A2.29,2.29,0,0,0,769.92,237.39Z"/><path class="cls-9" d="M769.92,252.63a2.29,2.29,0,1,0,2.29,2.29A2.29,2.29,0,0,0,769.92,252.63Z"/><path class="cls-9" d="M769.92,267.87a2.29,2.29,0,1,0,2.29,2.29A2.3,2.3,0,0,0,769.92,267.87Z"/><path class="cls-9" d="M769.92,283.12a2.29,2.29,0,1,0,2.29,2.28A2.29,2.29,0,0,0,769.92,283.12Z"/><path class="cls-9" d="M769.92,298.36a2.29,2.29,0,1,0,2.29,2.29A2.29,2.29,0,0,0,769.92,298.36Z"/><path class="cls-9" d="M769.92,313.6a2.29,2.29,0,1,0,2.29,2.29A2.3,2.3,0,0,0,769.92,313.6Z"/><path class="cls-9" d="M769.92,328.85a2.29,2.29,0,1,0,2.29,2.28A2.29,2.29,0,0,0,769.92,328.85Z"/><path class="cls-9" d="M769.92,344.09a2.29,2.29,0,1,0,2.29,2.29A2.29,2.29,0,0,0,769.92,344.09Z"/><path class="cls-9" d="M769.92,359.33a2.29,2.29,0,1,0,2.29,2.29A2.3,2.3,0,0,0,769.92,359.33Z"/><path class="cls-9" d="M769.92,374.58a2.29,2.29,0,1,0,2.29,2.28A2.29,2.29,0,0,0,769.92,374.58Z"/><path class="cls-9" d="M769.92,389.82a2.29,2.29,0,1,0,2.29,2.28A2.29,2.29,0,0,0,769.92,389.82Z"/><path class="cls-9" d="M785.16,267.87a2.29,2.29,0,1,0,2.29,2.29A2.29,2.29,0,0,0,785.16,267.87Z"/><path class="cls-9" d="M785.16,283.12a2.29,2.29,0,1,0,2.29,2.28A2.28,2.28,0,0,0,785.16,283.12Z"/><path class="cls-9" d="M785.16,298.36a2.29,2.29,0,1,0,2.29,2.29A2.28,2.28,0,0,0,785.16,298.36Z"/><path class="cls-9" d="M785.16,313.6a2.29,2.29,0,1,0,2.29,2.29A2.29,2.29,0,0,0,785.16,313.6Z"/><path class="cls-9" d="M785.16,328.85a2.29,2.29,0,1,0,2.29,2.28A2.28,2.28,0,0,0,785.16,328.85Z"/><path class="cls-9" d="M785.16,344.09a2.29,2.29,0,1,0,2.29,2.29A2.28,2.28,0,0,0,785.16,344.09Z"/><path class="cls-9" d="M785.16,359.33a2.29,2.29,0,1,0,2.29,2.29A2.29,2.29,0,0,0,785.16,359.33Z"/><path class="cls-9" d="M800.4,302.93a2.29,2.29,0,1,0-2.28-2.28A2.28,2.28,0,0,0,800.4,302.93Z"/><path class="cls-9" d="M800.4,313.6a2.29,2.29,0,1,0,2.29,2.29A2.29,2.29,0,0,0,800.4,313.6Z"/><path class="cls-9" d="M800.4,328.85a2.29,2.29,0,1,0,2.29,2.28A2.28,2.28,0,0,0,800.4,328.85Z"/><path class="cls-9" d="M800.4,344.09a2.29,2.29,0,1,0,2.29,2.29A2.28,2.28,0,0,0,800.4,344.09Z"/><path class="cls-9" d="M800.4,359.33a2.29,2.29,0,1,0,2.29,2.29A2.29,2.29,0,0,0,800.4,359.33Z"/><path class="cls-9" d="M785.16,374.58a2.29,2.29,0,1,0,2.29,2.28A2.28,2.28,0,0,0,785.16,374.58Z"/><path class="cls-9" d="M785.16,389.82a2.29,2.29,0,1,0,2.29,2.28A2.28,2.28,0,0,0,785.16,389.82Z"/><path class="cls-9" d="M769.92,405.06a2.29,2.29,0,1,0,2.29,2.29A2.29,2.29,0,0,0,769.92,405.06Z"/><path class="cls-9" d="M769.92,420.3a2.29,2.29,0,1,0,2.29,2.29A2.3,2.3,0,0,0,769.92,420.3Z"/><path class="cls-9" d="M754.68,435.55a2.29,2.29,0,1,0,2.28,2.28A2.28,2.28,0,0,0,754.68,435.55Z"/><path class="cls-9" d="M724.19,450.79a2.29,2.29,0,1,0,2.29,2.29A2.29,2.29,0,0,0,724.19,450.79Z"/><path class="cls-9" d="M693.71,466a2.29,2.29,0,1,0,2.28,2.29A2.29,2.29,0,0,0,693.71,466Z"/><circle class="cls-10" cx="207.61" cy="622.49" r="57.19"/></g></g></svg>