<svg xmlns="http://www.w3.org/2000/svg" viewBox="0 0 286.33 217.47"><defs><style>.cls-1,.cls-2{fill:#303030;stroke:#fff;}.cls-1,.cls-2,.cls-20{stroke-miterlimit:10;}.cls-10,.cls-11,.cls-12,.cls-13,.cls-14,.cls-15,.cls-2,.cls-4,.cls-5,.cls-8,.cls-9{isolation:isolate;}.cls-14,.cls-3{fill:#407bff;}.cls-11,.cls-13,.cls-16,.cls-17,.cls-18,.cls-22,.cls-23,.cls-4,.cls-6,.cls-8,.cls-9{fill:#fff;}.cls-4{opacity:0.3;}.cls-14,.cls-17,.cls-5,.cls-8{opacity:0.6;}.cls-7{fill:#263238;}.cls-12,.cls-15,.cls-18,.cls-9{opacity:0.4;}.cls-10,.cls-13,.cls-22{opacity:0.2;}.cls-11{opacity:0.5;}.cls-16{opacity:0.9;}.cls-19{fill:#ebb376;}.cls-20{fill:none;stroke:#263238;stroke-width:0.5px;}.cls-21{fill:#e4897b;}.cls-23{font-size:8.35px;font-family:FranklinGothic-Demi, Franklin Gothic Demi;font-weight:300;}</style></defs><title>Ресурс 5</title><g id="Слой_2" data-name="Слой 2"><g id="Background_Complete" data-name="Background Complete"><path class="cls-1" d="M44.43,177.55c-.77,0-1.54,0-2.33-.05l.14-2.78c41.45,2,53.45-53.56,61.39-90.31,3-14,5.42-25.15,8.75-29.91,12.11-17.32,32.1-14.71,32.3-14.69l-.41,2.76h0c-.78-.11-18.45-2.34-29.52,13.49-3,4.31-5.47,15.72-8.32,28.92C98.44,122,86.45,177.55,44.43,177.55Z"/><path class="cls-1" d="M28.09,168.44l-.2-2.77C52.1,164,65.72,138.08,78.91,113,86.31,98.87,93.31,85.55,102,76.5c24.7-25.61,36.61-21.91,37.1-21.74l-.95,2.63.48-1.32-.46,1.32c-.1,0-11-2.94-34.08,21-8.45,8.76-15.35,21.91-22.66,35.83C67.91,140,53.91,166.7,28.09,168.44Z"/><path class="cls-1" d="M42.32,173.74l-.88-2.65c8.35-2.62,13.46-12.2,19.37-23.28C68,134.28,76.19,119,92.87,110.46c30.53-15.55,67.84,4.49,69.41,5.35l-1.4,2.43c-.38-.2-37.54-20.16-66.69-5.31-15.87,8.08-23.82,23-30.84,36.16C57.15,160.72,51.79,170.77,42.32,173.74Z"/><path class="cls-1" d="M37.79,182.83l-.13-2.78c.4,0,40.83-2.09,62.78-22,22.93-20.77,50.82-13.23,51.1-13.15l-.8,2.67c-.26-.07-26.63-7.15-48.35,12.52C79.66,180.7,39.49,182.76,37.79,182.83Z"/><rect class="cls-1" x="0.5" y="155.48" width="37.22" height="27.63" rx="2.39"/><rect class="cls-1" x="14.81" y="155.48" width="37.22" height="27.63" rx="2.39"/><path class="cls-1" d="M36,178H30.87a.35.35,0,1,1,0-.69H36a.35.35,0,1,1,0,.69Z"/><path class="cls-1" d="M39.37,176.11H27.48a.35.35,0,1,1,0-.7H39.37a.35.35,0,1,1,0,.7Z"/><path class="cls-1" d="M41,174.26H25.88a.35.35,0,1,1,0-.7H41a.35.35,0,1,1,0,.7Z"/><path class="cls-1" d="M41.88,172.41H25a.35.35,0,1,1,0-.69H41.88a.35.35,0,1,1,0,.69Z"/><path class="cls-1" d="M42.3,170.56H24.55a.35.35,0,1,1,0-.69H42.3a.35.35,0,1,1,0,.69Z"/><path class="cls-1" d="M42.3,168.72H24.55a.35.35,0,1,1,0-.7H42.3a.35.35,0,1,1,0,.7Z"/><path class="cls-1" d="M41.88,166.86H25a.35.35,0,1,1,0-.69h16.9a.35.35,0,1,1,0,.69Z"/><path class="cls-1" d="M41,165H25.88a.35.35,0,0,1-.36-.35.36.36,0,0,1,.36-.35H41a.36.36,0,0,1,.36.35A.35.35,0,0,1,41,165Z"/><path class="cls-1" d="M39.37,163.17H27.48a.35.35,0,1,1,0-.7H39.37a.35.35,0,1,1,0,.7Z"/><path class="cls-1" d="M36,161.32H30.87a.35.35,0,1,1,0-.69H36a.35.35,0,1,1,0,.69Z"/><rect class="cls-1" x="57.76" y="155.48" width="37.22" height="27.63" rx="2.39"/><rect class="cls-1" x="72.07" y="155.48" width="37.22" height="27.63" rx="2.39"/><path class="cls-1" d="M93.24,178H88.13a.35.35,0,1,1,0-.69h5.11a.35.35,0,1,1,0,.69Z"/><path class="cls-1" d="M96.63,176.11H84.74a.35.35,0,1,1,0-.7H96.63a.35.35,0,1,1,0,.7Z"/><path class="cls-1" d="M98.24,174.26H83.14a.35.35,0,1,1,0-.7h15.1a.35.35,0,1,1,0,.7Z"/><path class="cls-1" d="M99.14,172.41H82.23a.35.35,0,1,1,0-.69H99.14a.35.35,0,1,1,0,.69Z"/><path class="cls-1" d="M99.56,170.56H81.81a.35.35,0,1,1,0-.69H99.56a.35.35,0,1,1,0,.69Z"/><path class="cls-1" d="M99.56,168.72H81.81a.35.35,0,0,1,0-.7H99.56a.35.35,0,1,1,0,.7Z"/><path class="cls-1" d="M99.14,166.86H82.24a.35.35,0,1,1,0-.69h16.9a.35.35,0,1,1,0,.69Z"/><path class="cls-1" d="M98.24,165H83.14a.35.35,0,0,1-.36-.35.36.36,0,0,1,.36-.35h15.1a.36.36,0,0,1,.36.35A.35.35,0,0,1,98.24,165Z"/><path class="cls-1" d="M96.63,163.17H84.74a.35.35,0,1,1,0-.7H96.63a.35.35,0,1,1,0,.7Z"/><path class="cls-1" d="M93.24,161.32H88.13a.35.35,0,1,1,0-.69h5.11a.35.35,0,1,1,0,.69Z"/><rect class="cls-1" x="154.42" y="11.14" width="131.42" height="171.63"/><rect class="cls-1" x="129.4" y="11.14" width="131.42" height="171.63"/><rect class="cls-1" x="132.15" y="13.35" width="126.14" height="169.42"/><rect class="cls-1" x="147.24" y="169.33" width="30.27" height="8.64" rx="1.65"/><rect class="cls-2" x="147.24" y="169.33" width="30.27" height="8.64" rx="1.65"/><rect class="cls-1" x="136.93" y="169.33" width="30.27" height="8.64" rx="1.65"/><path class="cls-1" d="M164.21,173.66a1.87,1.87,0,1,1-1.87-1.82A1.84,1.84,0,0,1,164.21,173.66Z"/><ellipse class="cls-1" cx="162.34" cy="173.66" rx="0.95" ry="0.92"/><rect class="cls-1" x="156.22" y="172.62" width="2.13" height="2.07"/><rect class="cls-1" x="147.24" y="159.9" width="30.27" height="8.64" rx="1.65"/><rect class="cls-2" x="147.24" y="159.9" width="30.27" height="8.64" rx="1.65"/><rect class="cls-1" x="136.93" y="159.9" width="30.27" height="8.64" rx="1.65"/><ellipse class="cls-1" cx="162.34" cy="164.22" rx="1.87" ry="1.82"/><ellipse class="cls-1" cx="162.34" cy="164.22" rx="0.95" ry="0.92"/><rect class="cls-1" x="156.22" y="163.18" width="2.13" height="2.07"/><rect class="cls-1" x="147.24" y="150.46" width="30.27" height="8.64" rx="1.65"/><rect class="cls-2" x="147.24" y="150.46" width="30.27" height="8.64" rx="1.65"/><rect class="cls-1" x="136.93" y="150.46" width="30.27" height="8.64" rx="1.65"/><path class="cls-1" d="M164.21,154.78a1.87,1.87,0,1,1-1.87-1.82A1.84,1.84,0,0,1,164.21,154.78Z"/><path class="cls-1" d="M163.29,154.78a1,1,0,0,1-1.9,0,1,1,0,0,1,1.9,0Z"/><rect class="cls-1" x="156.22" y="153.75" width="2.13" height="2.07"/><rect class="cls-1" x="147.24" y="141.02" width="30.27" height="8.64" rx="1.65"/><rect class="cls-2" x="147.24" y="141.02" width="30.27" height="8.64" rx="1.65"/><rect class="cls-1" x="136.93" y="141.02" width="30.27" height="8.64" rx="1.65"/><ellipse class="cls-1" cx="162.34" cy="145.34" rx="1.87" ry="1.82"/><ellipse class="cls-1" cx="162.34" cy="145.34" rx="0.95" ry="0.92"/><rect class="cls-1" x="156.22" y="144.31" width="2.13" height="2.07"/><rect class="cls-1" x="147.3" y="131.58" width="30.27" height="8.64" rx="1.65"/><rect class="cls-2" x="147.3" y="131.58" width="30.27" height="8.64" rx="1.65"/><rect class="cls-1" x="136.99" y="131.58" width="30.27" height="8.64" rx="1.65"/><ellipse class="cls-1" cx="162.41" cy="135.9" rx="1.87" ry="1.82"/><ellipse class="cls-1" cx="162.41" cy="135.9" rx="0.95" ry="0.92"/><rect class="cls-1" x="156.28" y="134.87" width="2.13" height="2.07"/><rect class="cls-1" x="147.36" y="122.14" width="30.27" height="8.64" rx="1.65"/><rect class="cls-2" x="147.36" y="122.14" width="30.27" height="8.64" rx="1.65"/><rect class="cls-1" x="137.05" y="122.14" width="30.27" height="8.64" rx="1.65"/><path class="cls-1" d="M164.33,126.46a1.87,1.87,0,1,1-1.86-1.81A1.84,1.84,0,0,1,164.33,126.46Z"/><ellipse class="cls-1" cx="162.47" cy="126.46" rx="0.95" ry="0.92"/><rect class="cls-1" x="156.34" y="125.43" width="2.13" height="2.07"/><rect class="cls-1" x="147.42" y="112.7" width="30.27" height="8.64" rx="1.65"/><rect class="cls-2" x="147.42" y="112.7" width="30.27" height="8.64" rx="1.65"/><rect class="cls-1" x="137.11" y="112.7" width="30.27" height="8.64" rx="1.65"/><path class="cls-1" d="M164.4,117a1.87,1.87,0,1,1-1.87-1.82A1.84,1.84,0,0,1,164.4,117Z"/><ellipse class="cls-1" cx="162.53" cy="117.03" rx="0.95" ry="0.92"/><rect class="cls-1" x="156.4" y="115.99" width="2.13" height="2.07"/><rect class="cls-1" x="147.48" y="103.26" width="30.27" height="8.64" rx="1.65"/><rect class="cls-2" x="147.48" y="103.26" width="30.27" height="8.64" rx="1.65"/><rect class="cls-1" x="137.17" y="103.26" width="30.27" height="8.64" rx="1.65"/><path class="cls-1" d="M164.46,107.59a1.87,1.87,0,1,1-1.87-1.82A1.84,1.84,0,0,1,164.46,107.59Z"/><path class="cls-1" d="M163.54,107.59a1,1,0,1,1-.95-.93A.94.94,0,0,1,163.54,107.59Z"/><rect class="cls-1" x="156.46" y="106.55" width="2.13" height="2.07"/><rect class="cls-1" x="147.54" y="93.83" width="30.27" height="8.64" rx="1.65"/><rect class="cls-2" x="147.54" y="93.83" width="30.27" height="8.64" rx="1.65"/><rect class="cls-1" x="137.23" y="93.83" width="30.27" height="8.64" rx="1.65"/><ellipse class="cls-1" cx="162.65" cy="98.15" rx="1.87" ry="1.82"/><path class="cls-1" d="M163.6,98.15a1,1,0,1,1-.95-.93A.94.94,0,0,1,163.6,98.15Z"/><rect class="cls-1" x="156.52" y="97.11" width="2.13" height="2.07"/><rect class="cls-1" x="147.6" y="84.39" width="30.27" height="8.64" rx="1.65"/><rect class="cls-2" x="147.6" y="84.39" width="30.27" height="8.64" rx="1.65"/><rect class="cls-1" x="137.29" y="84.39" width="30.27" height="8.64" rx="1.65"/><ellipse class="cls-1" cx="162.71" cy="88.71" rx="1.87" ry="1.82"/><ellipse class="cls-1" cx="162.71" cy="88.71" rx="0.95" ry="0.92"/><rect class="cls-1" x="156.58" y="87.68" width="2.13" height="2.07"/><rect class="cls-1" x="147.67" y="74.95" width="30.27" height="8.64" rx="1.65"/><rect class="cls-2" x="147.67" y="74.95" width="30.27" height="8.64" rx="1.65"/><rect class="cls-1" x="137.35" y="74.95" width="30.27" height="8.64" rx="1.65"/><ellipse class="cls-1" cx="162.77" cy="79.27" rx="1.87" ry="1.82"/><ellipse class="cls-1" cx="162.77" cy="79.27" rx="0.95" ry="0.92"/><rect class="cls-1" x="156.64" y="78.24" width="2.13" height="2.07"/><rect class="cls-1" x="147.73" y="65.51" width="30.27" height="8.64" rx="1.65"/><rect class="cls-2" x="147.73" y="65.51" width="30.27" height="8.64" rx="1.65"/><rect class="cls-1" x="137.41" y="65.51" width="30.27" height="8.64" rx="1.65"/><path class="cls-1" d="M164.7,69.83A1.87,1.87,0,1,1,162.83,68,1.84,1.84,0,0,1,164.7,69.83Z"/><ellipse class="cls-1" cx="162.83" cy="69.83" rx="0.95" ry="0.92"/><rect class="cls-1" x="156.71" y="68.8" width="2.13" height="2.07"/><rect class="cls-1" x="147.79" y="56.07" width="30.27" height="8.64" rx="1.65"/><rect class="cls-2" x="147.79" y="56.07" width="30.27" height="8.64" rx="1.65"/><rect class="cls-1" x="137.48" y="56.07" width="30.27" height="8.64" rx="1.65"/><path class="cls-1" d="M164.76,60.39a1.87,1.87,0,1,1-1.87-1.81A1.84,1.84,0,0,1,164.76,60.39Z"/><ellipse class="cls-1" cx="162.89" cy="60.39" rx="0.95" ry="0.92"/><rect class="cls-1" x="156.77" y="59.36" width="2.13" height="2.07"/><rect class="cls-1" x="147.85" y="46.63" width="30.27" height="8.64" rx="1.65"/><rect class="cls-2" x="147.85" y="46.63" width="30.27" height="8.64" rx="1.65"/><rect class="cls-1" x="137.54" y="46.63" width="30.27" height="8.64" rx="1.65"/><path class="cls-1" d="M164.82,51A1.87,1.87,0,1,1,163,49.14,1.83,1.83,0,0,1,164.82,51Z"/><path class="cls-1" d="M163.91,51A1,1,0,1,1,163,50,.94.94,0,0,1,163.91,51Z"/><rect class="cls-1" x="156.83" y="49.92" width="2.13" height="2.07"/><rect class="cls-1" x="147.91" y="37.2" width="30.27" height="8.64" rx="1.65"/><rect class="cls-2" x="147.91" y="37.2" width="30.27" height="8.64" rx="1.65"/><rect class="cls-1" x="137.6" y="37.2" width="30.27" height="8.64" rx="1.65"/><ellipse class="cls-1" cx="163.02" cy="41.52" rx="1.87" ry="1.82"/><path class="cls-1" d="M164,41.52a1,1,0,1,1-.95-.93A.94.94,0,0,1,164,41.52Z"/><rect class="cls-1" x="156.89" y="40.48" width="2.13" height="2.07"/><rect class="cls-1" x="147.97" y="27.76" width="30.27" height="8.64" rx="1.65"/><rect class="cls-2" x="147.97" y="27.76" width="30.27" height="8.64" rx="1.65"/><rect class="cls-1" x="137.66" y="27.76" width="30.27" height="8.64" rx="1.65"/><ellipse class="cls-1" cx="163.08" cy="32.08" rx="1.87" ry="1.82"/><path class="cls-1" d="M164,32.08a1,1,0,1,1-.95-.92A.94.94,0,0,1,164,32.08Z"/><rect class="cls-1" x="156.95" y="31.05" width="2.13" height="2.07"/><rect class="cls-1" x="148.03" y="18.32" width="30.27" height="8.64" rx="1.65"/><rect class="cls-2" x="148.03" y="18.32" width="30.27" height="8.64" rx="1.65"/><rect class="cls-1" x="137.72" y="18.32" width="30.27" height="8.64" rx="1.65"/><ellipse class="cls-1" cx="163.14" cy="22.64" rx="1.87" ry="1.82"/><ellipse class="cls-1" cx="163.14" cy="22.64" rx="0.95" ry="0.92"/><rect class="cls-1" x="157.01" y="21.61" width="2.13" height="2.07"/><rect class="cls-1" x="184.76" y="169.33" width="30.27" height="8.64" rx="1.65"/><rect class="cls-2" x="184.76" y="169.33" width="30.27" height="8.64" rx="1.65"/><rect class="cls-1" x="174.45" y="169.33" width="30.27" height="8.64" rx="1.65"/><path class="cls-1" d="M201.74,173.66a1.87,1.87,0,1,1-1.87-1.82A1.84,1.84,0,0,1,201.74,173.66Z"/><path class="cls-1" d="M200.82,173.66a1,1,0,1,1-.95-.93A.94.94,0,0,1,200.82,173.66Z"/><rect class="cls-1" x="193.74" y="172.62" width="2.13" height="2.07"/><rect class="cls-1" x="184.76" y="159.9" width="30.27" height="8.64" rx="1.65"/><rect class="cls-2" x="184.76" y="159.9" width="30.27" height="8.64" rx="1.65"/><rect class="cls-1" x="174.45" y="159.9" width="30.27" height="8.64" rx="1.65"/><ellipse class="cls-1" cx="199.87" cy="164.22" rx="1.87" ry="1.82"/><path class="cls-1" d="M200.82,164.22a1,1,0,1,1-.95-.93A.94.94,0,0,1,200.82,164.22Z"/><rect class="cls-1" x="193.74" y="163.18" width="2.13" height="2.07"/><rect class="cls-1" x="184.76" y="150.46" width="30.27" height="8.64" rx="1.65"/><rect class="cls-2" x="184.76" y="150.46" width="30.27" height="8.64" rx="1.65"/><rect class="cls-1" x="174.45" y="150.46" width="30.27" height="8.64" rx="1.65"/><path class="cls-1" d="M201.74,154.78a1.87,1.87,0,1,1-1.87-1.82A1.85,1.85,0,0,1,201.74,154.78Z"/><path class="cls-1" d="M200.82,154.78a1,1,0,1,1-.95-.93A.94.94,0,0,1,200.82,154.78Z"/><rect class="cls-1" x="193.74" y="153.75" width="2.13" height="2.07"/><rect class="cls-1" x="184.76" y="141.02" width="30.27" height="8.64" rx="1.65"/><rect class="cls-2" x="184.76" y="141.02" width="30.27" height="8.64" rx="1.65"/><rect class="cls-1" x="174.45" y="141.02" width="30.27" height="8.64" rx="1.65"/><ellipse class="cls-1" cx="199.87" cy="145.34" rx="1.87" ry="1.82"/><path class="cls-1" d="M200.82,145.34a1,1,0,1,1-.95-.92A.94.94,0,0,1,200.82,145.34Z"/><rect class="cls-1" x="193.74" y="144.31" width="2.13" height="2.07"/><rect class="cls-1" x="184.83" y="131.58" width="30.27" height="8.64" rx="1.65"/><rect class="cls-2" x="184.83" y="131.58" width="30.27" height="8.64" rx="1.65"/><rect class="cls-1" x="174.51" y="131.58" width="30.27" height="8.64" rx="1.65"/><ellipse class="cls-1" cx="199.93" cy="135.9" rx="1.87" ry="1.82"/><ellipse class="cls-1" cx="199.93" cy="135.9" rx="0.95" ry="0.92"/><rect class="cls-1" x="193.8" y="134.87" width="2.13" height="2.07"/><rect class="cls-1" x="184.89" y="122.14" width="30.27" height="8.64" rx="1.65"/><rect class="cls-2" x="184.89" y="122.14" width="30.27" height="8.64" rx="1.65"/><rect class="cls-1" x="174.57" y="122.14" width="30.27" height="8.64" rx="1.65"/><ellipse class="cls-1" cx="199.99" cy="126.46" rx="1.87" ry="1.82"/><ellipse class="cls-1" cx="199.99" cy="126.46" rx="0.95" ry="0.92"/><rect class="cls-1" x="193.87" y="125.43" width="2.13" height="2.07"/><rect class="cls-1" x="184.95" y="112.7" width="30.27" height="8.64" rx="1.65"/><rect class="cls-2" x="184.95" y="112.7" width="30.27" height="8.64" rx="1.65"/><rect class="cls-1" x="174.64" y="112.7" width="30.27" height="8.64" rx="1.65"/><path class="cls-1" d="M201.92,117a1.87,1.87,0,1,1-1.87-1.82A1.84,1.84,0,0,1,201.92,117Z"/><ellipse class="cls-1" cx="200.05" cy="117.03" rx="0.95" ry="0.92"/><rect class="cls-1" x="193.93" y="115.99" width="2.13" height="2.07"/><rect class="cls-1" x="185.01" y="103.26" width="30.27" height="8.64" rx="1.65"/><rect class="cls-2" x="185.01" y="103.26" width="30.27" height="8.64" rx="1.65"/><rect class="cls-1" x="174.7" y="103.26" width="30.27" height="8.64" rx="1.65"/><path class="cls-1" d="M202,107.59a1.87,1.87,0,1,1-1.87-1.82A1.84,1.84,0,0,1,202,107.59Z"/><ellipse class="cls-1" cx="200.11" cy="107.59" rx="0.95" ry="0.92"/><rect class="cls-1" x="193.99" y="106.55" width="2.13" height="2.07"/><rect class="cls-1" x="185.07" y="93.83" width="30.27" height="8.64" rx="1.65"/><rect class="cls-2" x="185.07" y="93.83" width="30.27" height="8.64" rx="1.65"/><rect class="cls-1" x="174.76" y="93.83" width="30.27" height="8.64" rx="1.65"/><path class="cls-1" d="M202,98.15a1.87,1.87,0,1,1-1.86-1.82A1.83,1.83,0,0,1,202,98.15Z"/><path class="cls-1" d="M201.13,98.15a1,1,0,1,1-.95-.93A.94.94,0,0,1,201.13,98.15Z"/><rect class="cls-1" x="194.05" y="97.11" width="2.13" height="2.07"/><rect class="cls-1" x="185.13" y="84.39" width="30.27" height="8.64" rx="1.65"/><rect class="cls-2" x="185.13" y="84.39" width="30.27" height="8.64" rx="1.65"/><rect class="cls-1" x="174.82" y="84.39" width="30.27" height="8.64" rx="1.65"/><ellipse class="cls-1" cx="200.24" cy="88.71" rx="1.87" ry="1.82"/><path class="cls-1" d="M201.19,88.71a1,1,0,1,1-.95-.92A.94.94,0,0,1,201.19,88.71Z"/><rect class="cls-1" x="194.11" y="87.68" width="2.13" height="2.07"/><rect class="cls-1" x="185.19" y="74.95" width="30.27" height="8.64" rx="1.65"/><rect class="cls-2" x="185.19" y="74.95" width="30.27" height="8.64" rx="1.65"/><rect class="cls-1" x="174.88" y="74.95" width="30.27" height="8.64" rx="1.65"/><ellipse class="cls-1" cx="200.3" cy="79.27" rx="1.87" ry="1.82"/><ellipse class="cls-1" cx="200.3" cy="79.27" rx="0.95" ry="0.92"/><rect class="cls-1" x="194.17" y="78.24" width="2.13" height="2.07"/><rect class="cls-1" x="185.25" y="65.51" width="30.27" height="8.64" rx="1.65"/><rect class="cls-2" x="185.25" y="65.51" width="30.27" height="8.64" rx="1.65"/><rect class="cls-1" x="174.94" y="65.51" width="30.27" height="8.64" rx="1.65"/><ellipse class="cls-1" cx="200.36" cy="69.83" rx="1.87" ry="1.82"/><ellipse class="cls-1" cx="200.36" cy="69.83" rx="0.95" ry="0.92"/><rect class="cls-1" x="194.23" y="68.8" width="2.13" height="2.07"/><rect class="cls-1" x="185.31" y="56.07" width="30.27" height="8.64" rx="1.65"/><rect class="cls-2" x="185.31" y="56.07" width="30.27" height="8.64" rx="1.65"/><rect class="cls-1" x="175" y="56.07" width="30.27" height="8.64" rx="1.65"/><path class="cls-1" d="M202.29,60.39a1.87,1.87,0,1,1-1.87-1.81A1.84,1.84,0,0,1,202.29,60.39Z"/><ellipse class="cls-1" cx="200.42" cy="60.39" rx="0.95" ry="0.92"/><rect class="cls-1" x="194.29" y="59.36" width="2.13" height="2.07"/><rect class="cls-1" x="185.38" y="46.63" width="30.27" height="8.64" rx="1.65"/><rect class="cls-2" x="185.38" y="46.63" width="30.27" height="8.64" rx="1.65"/><rect class="cls-1" x="175.06" y="46.63" width="30.27" height="8.64" rx="1.65"/><path class="cls-1" d="M202.35,51a1.87,1.87,0,1,1-1.87-1.82A1.84,1.84,0,0,1,202.35,51Z"/><ellipse class="cls-1" cx="200.48" cy="50.96" rx="0.95" ry="0.92"/><rect class="cls-1" x="194.35" y="49.92" width="2.13" height="2.07"/><rect class="cls-1" x="185.44" y="37.2" width="30.27" height="8.64" rx="1.65"/><rect class="cls-2" x="185.44" y="37.2" width="30.27" height="8.64" rx="1.65"/><rect class="cls-1" x="175.12" y="37.2" width="30.27" height="8.64" rx="1.65"/><path class="cls-1" d="M202.41,41.52a1.87,1.87,0,1,1-1.87-1.82A1.84,1.84,0,0,1,202.41,41.52Z"/><path class="cls-1" d="M201.49,41.52a1,1,0,0,1-1.9,0,1,1,0,0,1,1.9,0Z"/><rect class="cls-1" x="194.42" y="40.48" width="2.13" height="2.07"/><rect class="cls-1" x="185.5" y="27.76" width="30.27" height="8.64" rx="1.65"/><rect class="cls-2" x="185.5" y="27.76" width="30.27" height="8.64" rx="1.65"/><rect class="cls-1" x="175.19" y="27.76" width="30.27" height="8.64" rx="1.65"/><path class="cls-1" d="M202.47,32.08a1.87,1.87,0,1,1-1.87-1.82A1.84,1.84,0,0,1,202.47,32.08Z"/><path class="cls-1" d="M201.55,32.08a1,1,0,1,1-1-.92A.93.93,0,0,1,201.55,32.08Z"/><rect class="cls-1" x="194.48" y="31.05" width="2.13" height="2.07"/><rect class="cls-1" x="185.56" y="18.32" width="30.27" height="8.64" rx="1.65"/><rect class="cls-2" x="185.56" y="18.32" width="30.27" height="8.64" rx="1.65"/><rect class="cls-1" x="175.25" y="18.32" width="30.27" height="8.64" rx="1.65"/><ellipse class="cls-1" cx="200.66" cy="22.64" rx="1.87" ry="1.82"/><path class="cls-1" d="M201.61,22.64a1,1,0,1,1-1-.92A.93.93,0,0,1,201.61,22.64Z"/><rect class="cls-1" x="194.54" y="21.61" width="2.13" height="2.07"/><rect class="cls-1" x="222.29" y="169.33" width="30.27" height="8.64" rx="1.65"/><rect class="cls-2" x="222.29" y="169.33" width="30.27" height="8.64" rx="1.65"/><rect class="cls-1" x="211.98" y="169.33" width="30.27" height="8.64" rx="1.65"/><path class="cls-1" d="M239.26,173.66a1.87,1.87,0,1,1-1.86-1.82A1.83,1.83,0,0,1,239.26,173.66Z"/><path class="cls-1" d="M238.35,173.66a1,1,0,1,1-.95-.93A.94.94,0,0,1,238.35,173.66Z"/><rect class="cls-1" x="231.27" y="172.62" width="2.13" height="2.07"/><rect class="cls-1" x="222.29" y="159.9" width="30.27" height="8.64" rx="1.65"/><rect class="cls-2" x="222.29" y="159.9" width="30.27" height="8.64" rx="1.65"/><rect class="cls-1" x="211.98" y="159.9" width="30.27" height="8.64" rx="1.65"/><path class="cls-1" d="M239.26,164.22a1.87,1.87,0,1,1-1.86-1.82A1.83,1.83,0,0,1,239.26,164.22Z"/><path class="cls-1" d="M238.35,164.22a1,1,0,1,1-.95-.93A.94.94,0,0,1,238.35,164.22Z"/><rect class="cls-1" x="231.27" y="163.18" width="2.13" height="2.07"/><rect class="cls-1" x="222.29" y="150.46" width="30.27" height="8.64" rx="1.65"/><rect class="cls-2" x="222.29" y="150.46" width="30.27" height="8.64" rx="1.65"/><rect class="cls-1" x="211.98" y="150.46" width="30.27" height="8.64" rx="1.65"/><path class="cls-1" d="M239.26,154.78A1.87,1.87,0,1,1,237.4,153,1.84,1.84,0,0,1,239.26,154.78Z"/><path class="cls-1" d="M238.35,154.78a1,1,0,1,1-.95-.93A.94.94,0,0,1,238.35,154.78Z"/><rect class="cls-1" x="231.27" y="153.75" width="2.13" height="2.07"/><rect class="cls-1" x="222.29" y="141.02" width="30.27" height="8.64" rx="1.65"/><rect class="cls-2" x="222.29" y="141.02" width="30.27" height="8.64" rx="1.65"/><rect class="cls-1" x="211.98" y="141.02" width="30.27" height="8.64" rx="1.65"/><path class="cls-1" d="M239.26,145.34a1.87,1.87,0,1,1-1.86-1.82A1.84,1.84,0,0,1,239.26,145.34Z"/><path class="cls-1" d="M238.35,145.34a1,1,0,1,1-.95-.92A.94.94,0,0,1,238.35,145.34Z"/><rect class="cls-1" x="231.27" y="144.31" width="2.13" height="2.07"/><rect class="cls-1" x="222.35" y="131.58" width="30.27" height="8.64" rx="1.65"/><rect class="cls-2" x="222.35" y="131.58" width="30.27" height="8.64" rx="1.65"/><rect class="cls-1" x="212.04" y="131.58" width="30.27" height="8.64" rx="1.65"/><ellipse class="cls-1" cx="237.46" cy="135.9" rx="1.87" ry="1.82"/><path class="cls-1" d="M238.41,135.9a1,1,0,0,1-1.9,0,1,1,0,0,1,1.9,0Z"/><rect class="cls-1" x="231.33" y="134.87" width="2.13" height="2.07"/><rect class="cls-1" x="222.41" y="122.14" width="30.27" height="8.64" rx="1.65"/><rect class="cls-2" x="222.41" y="122.14" width="30.27" height="8.64" rx="1.65"/><rect class="cls-1" x="212.1" y="122.14" width="30.27" height="8.64" rx="1.65"/><ellipse class="cls-1" cx="237.52" cy="126.46" rx="1.87" ry="1.82"/><ellipse class="cls-1" cx="237.52" cy="126.46" rx="0.95" ry="0.92"/><rect class="cls-1" x="231.39" y="125.43" width="2.13" height="2.07"/><rect class="cls-1" x="222.47" y="112.7" width="30.27" height="8.64" rx="1.65"/><rect class="cls-2" x="222.47" y="112.7" width="30.27" height="8.64" rx="1.65"/><rect class="cls-1" x="212.16" y="112.7" width="30.27" height="8.64" rx="1.65"/><ellipse class="cls-1" cx="237.58" cy="117.03" rx="1.87" ry="1.82"/><ellipse class="cls-1" cx="237.58" cy="117.03" rx="0.95" ry="0.92"/><rect class="cls-1" x="231.45" y="115.99" width="2.13" height="2.07"/><rect class="cls-1" x="222.53" y="103.26" width="30.27" height="8.64" rx="1.65"/><rect class="cls-2" x="222.53" y="103.26" width="30.27" height="8.64" rx="1.65"/><rect class="cls-1" x="212.22" y="103.26" width="30.27" height="8.64" rx="1.65"/><path class="cls-1" d="M239.51,107.59a1.87,1.87,0,1,1-1.87-1.82A1.84,1.84,0,0,1,239.51,107.59Z"/><ellipse class="cls-1" cx="237.64" cy="107.59" rx="0.95" ry="0.92"/><rect class="cls-1" x="231.51" y="106.55" width="2.13" height="2.07"/><rect class="cls-1" x="222.6" y="93.83" width="30.27" height="8.64" rx="1.65"/><rect class="cls-2" x="222.6" y="93.83" width="30.27" height="8.64" rx="1.65"/><rect class="cls-1" x="212.28" y="93.83" width="30.27" height="8.64" rx="1.65"/><path class="cls-1" d="M239.57,98.15a1.87,1.87,0,1,1-1.87-1.82A1.84,1.84,0,0,1,239.57,98.15Z"/><ellipse class="cls-1" cx="237.7" cy="98.15" rx="0.95" ry="0.92"/><rect class="cls-1" x="231.57" y="97.11" width="2.13" height="2.07"/><rect class="cls-1" x="222.66" y="84.39" width="30.27" height="8.64" rx="1.65"/><rect class="cls-2" x="222.66" y="84.39" width="30.27" height="8.64" rx="1.65"/><rect class="cls-1" x="212.34" y="84.39" width="30.27" height="8.64" rx="1.65"/><path class="cls-1" d="M239.63,88.71a1.87,1.87,0,1,1-1.87-1.82A1.85,1.85,0,0,1,239.63,88.71Z"/><path class="cls-1" d="M238.71,88.71a1,1,0,1,1-1-.92A.93.93,0,0,1,238.71,88.71Z"/><rect class="cls-1" x="231.64" y="87.68" width="2.13" height="2.07"/><rect class="cls-1" x="222.72" y="74.95" width="30.27" height="8.64" rx="1.65"/><rect class="cls-2" x="222.72" y="74.95" width="30.27" height="8.64" rx="1.65"/><rect class="cls-1" x="212.41" y="74.95" width="30.27" height="8.64" rx="1.65"/><ellipse class="cls-1" cx="237.82" cy="79.27" rx="1.87" ry="1.82"/><path class="cls-1" d="M238.77,79.27a1,1,0,1,1-1-.92A.94.94,0,0,1,238.77,79.27Z"/><rect class="cls-1" x="231.7" y="78.24" width="2.13" height="2.07"/><rect class="cls-1" x="222.78" y="65.51" width="30.27" height="8.64" rx="1.65"/><rect class="cls-2" x="222.78" y="65.51" width="30.27" height="8.64" rx="1.65"/><rect class="cls-1" x="212.47" y="65.51" width="30.27" height="8.64" rx="1.65"/><ellipse class="cls-1" cx="237.88" cy="69.83" rx="1.87" ry="1.82"/><path class="cls-1" d="M238.84,69.83a1,1,0,0,1-1.91,0,1,1,0,0,1,1.91,0Z"/><rect class="cls-1" x="231.76" y="68.8" width="2.13" height="2.07"/><rect class="cls-1" x="222.84" y="56.07" width="30.27" height="8.64" rx="1.65"/><rect class="cls-2" x="222.84" y="56.07" width="30.27" height="8.64" rx="1.65"/><rect class="cls-1" x="212.53" y="56.07" width="30.27" height="8.64" rx="1.65"/><ellipse class="cls-1" cx="237.95" cy="60.39" rx="1.87" ry="1.82"/><ellipse class="cls-1" cx="237.95" cy="60.39" rx="0.95" ry="0.92"/><rect class="cls-1" x="231.82" y="59.36" width="2.13" height="2.07"/><rect class="cls-1" x="222.9" y="46.63" width="30.27" height="8.64" rx="1.65"/><rect class="cls-2" x="222.9" y="46.63" width="30.27" height="8.64" rx="1.65"/><rect class="cls-1" x="212.59" y="46.63" width="30.27" height="8.64" rx="1.65"/><ellipse class="cls-1" cx="238.01" cy="50.96" rx="1.87" ry="1.82"/><ellipse class="cls-1" cx="238.01" cy="50.96" rx="0.95" ry="0.92"/><rect class="cls-1" x="231.88" y="49.92" width="2.13" height="2.07"/><rect class="cls-1" x="222.96" y="37.2" width="30.27" height="8.64" rx="1.65"/><rect class="cls-2" x="222.96" y="37.2" width="30.27" height="8.64" rx="1.65"/><rect class="cls-1" x="212.65" y="37.2" width="30.27" height="8.64" rx="1.65"/><path class="cls-1" d="M239.94,41.52a1.87,1.87,0,1,1-1.87-1.82A1.84,1.84,0,0,1,239.94,41.52Z"/><ellipse class="cls-1" cx="238.07" cy="41.52" rx="0.95" ry="0.92"/><rect class="cls-1" x="231.94" y="40.48" width="2.13" height="2.07"/><rect class="cls-1" x="223.02" y="27.76" width="30.27" height="8.64" rx="1.65"/><rect class="cls-2" x="223.02" y="27.76" width="30.27" height="8.64" rx="1.65"/><rect class="cls-1" x="212.71" y="27.76" width="30.27" height="8.64" rx="1.65"/><path class="cls-1" d="M240,32.08a1.87,1.87,0,1,1-1.87-1.82A1.85,1.85,0,0,1,240,32.08Z"/><path class="cls-1" d="M239.08,32.08a1,1,0,1,1-1-.92A.94.94,0,0,1,239.08,32.08Z"/><rect class="cls-1" x="232" y="31.05" width="2.13" height="2.07"/><rect class="cls-1" x="223.08" y="18.32" width="30.27" height="8.64" rx="1.65"/><rect class="cls-2" x="223.08" y="18.32" width="30.27" height="8.64" rx="1.65"/><rect class="cls-1" x="212.77" y="18.32" width="30.27" height="8.64" rx="1.65"/><path class="cls-1" d="M240.06,22.64a1.87,1.87,0,1,1-1.87-1.82A1.85,1.85,0,0,1,240.06,22.64Z"/><path class="cls-1" d="M239.14,22.64a1,1,0,1,1-.95-.92A.93.93,0,0,1,239.14,22.64Z"/><rect class="cls-1" x="232.06" y="21.61" width="2.13" height="2.07"/></g><g id="Trash_bin" data-name="Trash bin"><path class="cls-3" d="M265.82,191a2.06,2.06,0,0,0-1.7-3,4.39,4.39,0,0,0-1.45-4.85,1.06,1.06,0,0,0-.63-.27,1.23,1.23,0,0,0-.67.29l-4,2.79a2.22,2.22,0,0,0-.79.76c-.82,1.53,2.12,3.5.91,4.77-.34.37-.9.44-1.34.7-1,.58-1.06,1.85-1.5,2.85s-2,1.78-2.58.85c.44-1-.88-1.79-2-1.91s-2.19-.18-2.79-1.15c-1.52,1.29-4.92-2.32-4.84-3.77a2.9,2.9,0,0,0-2.38,2.37,16.81,16.81,0,0,0-.12,3.62c0,2.35-.82,4.66-.78,7,0,1.83.76,3.87,2.48,4.6a6.52,6.52,0,0,0,2.68.35l19.63-.12a3.06,3.06,0,0,0,1.38-.22c.89-.45,1.07-1.58,1.16-2.55l1.05-12.44Z"/><path class="cls-4" d="M265.82,191a2.06,2.06,0,0,0-1.7-3,4.39,4.39,0,0,0-1.45-4.85,1.06,1.06,0,0,0-.63-.27,1.23,1.23,0,0,0-.67.29l-4,2.79a2.22,2.22,0,0,0-.79.76c-.82,1.53,2.12,3.5.91,4.77-.34.37-.9.44-1.34.7-1,.58-1.06,1.85-1.5,2.85s-2,1.78-2.58.85c.44-1-.88-1.79-2-1.91s-2.19-.18-2.79-1.15c-1.52,1.29-4.92-2.32-4.84-3.77a2.9,2.9,0,0,0-2.38,2.37,16.81,16.81,0,0,0-.12,3.62c0,2.35-.82,4.66-.78,7,0,1.83.76,3.87,2.48,4.6a6.52,6.52,0,0,0,2.68.35l19.63-.12a3.06,3.06,0,0,0,1.38-.22c.89-.45,1.07-1.58,1.16-2.55l1.05-12.44Z"/><path class="cls-3" d="M267,170.79H236.51l.25,3,.18,2.14.46,5.56.27,3.2.35,4.25.15,1.82.05.55.18,2.14.24,2.94.15,1.82.16,1.85.18,2.15.13,1.62.15,1.82.07.79h28l.07-.79.15-1.82.14-1.63.17-2.14.16-1.85.15-1.82.25-2.95.17-2.13.05-.55.15-1.82.36-4.25.26-3.19.46-5.57.18-2.14.25-3Zm1.83,2h0l-.58-.57h.63Zm-.15,1.82-.06.72L265.87,178l-3.13-3,2.8-2.72h.66Zm-.79,9.48-2,1.94-3.13-3,3.13-3L268,182Zm-29-2h0l2.16-2.1,3.13,3L241,186l-2-1.94Zm26-3.09-3.13,3-3.13-3,3.13-3Zm-4.92-6.75h3.58l-1.79,1.74Zm.77,10.77-3.12,3-3.12-3,3.12-3Zm-10.38,4,3.13-3,3.12,3L253.46,190Zm2.11,4-3.13,3-3.12-3,3.13-3Zm5.15-3,3.12,3-3.12,3-3.12-3Zm-4.13-6-3.13-3,3.13-3,3.12,3Zm-1,1-3.12,3-3.13-3,3.13-3Zm-7.26-1-3.13-3,3.13-3,3.12,3Zm0,2,3.12,3L245.18,190,242.05,187ZM248.3,195l-3.12,3-3.13-3,3.13-3Zm1,1,3.13,3-3.12,3-3.13-3Zm1-1,3.13-3,3.12,3-3.12,3Zm7.26,1,3.12,3-3.12,3-3.12-3Zm4.14,4,3.13,3-2,2h-2.2l-2-2Zm-3.13-5,3.13-3,3.13,3-3.13,3Zm0-8.06,3.13-3,3.13,3L261.73,190Zm2.11-12.07-3.12,3-3.12-3,2.79-2.72h.66Zm-7.25-1-1.79-1.74h3.57Zm-1,1-3.12,3-3.13-3,2.8-2.72h.66ZM247,172.18l-1.78,1.74-1.79-1.74Zm-5.59,0,2.8,2.72L241,178l-2.72-2.66-.06-.72,2.45-2.39Zm-2.68,0-.58.57h0l-.05-.57Zm-.19,5.26,1.53,1.49-1.3,1.26Zm.85,10.2-.12-1.45h0l.8.78-.68.67Zm.15,1.83L241,188l3.13,3L241,194l-1.26-1.23Zm.46,5.62V195l.07.07-.07.06Zm.55,6.48-.4-4.66.93-.9,3.13,3-3.13,3-.53-.51Zm.28,3.47,0-.69.3-.3,1,1Zm1.26-2,3.13-3,3.12,3-2,2h-2.21Zm6.25,2,1-1,1,1Zm4,0-2-2,3.13-3,3.12,3-2,2Zm4.23,0,1-1,1,1Zm9.53,0h-1.26l1-1,.3.3Zm.29-3.47-.53.51-3.13-3,3.13-3,.92.9ZM267,195l0,.14-.06-.06L267,195Zm.17-2.14L265.87,194l-3.13-3,3.13-3,1.54,1.51Zm.43-5.17-.68-.67.81-.78Zm.86-10.21-.23,2.77-1.31-1.27,1.54-1.5Z"/><g class="cls-5"><path class="cls-6" d="M267,170.79H236.51l.25,3,.18,2.14.46,5.56.27,3.2.35,4.25.15,1.82.05.55.18,2.14.24,2.94.15,1.82.16,1.85.18,2.15.13,1.62.15,1.82.07.79h28l.07-.79.15-1.82.14-1.63.17-2.14.16-1.85.15-1.82.25-2.95.17-2.13.05-.55.15-1.82.36-4.25.26-3.19.46-5.57.18-2.14.25-3Zm1.83,2h0l-.58-.57h.63Zm-.15,1.82-.06.72L265.87,178l-3.13-3,2.8-2.72h.66Zm-.79,9.48-2,1.94-3.13-3,3.13-3L268,182Zm-29-2h0l2.16-2.1,3.13,3L241,186l-2-1.94Zm26-3.09-3.13,3-3.13-3,3.13-3Zm-4.92-6.75h3.58l-1.79,1.74Zm.77,10.77-3.12,3-3.12-3,3.12-3Zm-10.38,4,3.13-3,3.12,3L253.46,190Zm2.11,4-3.13,3-3.12-3,3.13-3Zm5.15-3,3.12,3-3.12,3-3.12-3Zm-4.13-6-3.13-3,3.13-3,3.12,3Zm-1,1-3.12,3-3.13-3,3.13-3Zm-7.26-1-3.13-3,3.13-3,3.12,3Zm0,2,3.12,3L245.18,190,242.05,187ZM248.3,195l-3.12,3-3.13-3,3.13-3Zm1,1,3.13,3-3.12,3-3.13-3Zm1-1,3.13-3,3.12,3-3.12,3Zm7.26,1,3.12,3-3.12,3-3.12-3Zm4.14,4,3.13,3-2,2h-2.2l-2-2Zm-3.13-5,3.13-3,3.13,3-3.13,3Zm0-8.06,3.13-3,3.13,3L261.73,190Zm2.11-12.07-3.12,3-3.12-3,2.79-2.72h.66Zm-7.25-1-1.79-1.74h3.57Zm-1,1-3.12,3-3.13-3,2.8-2.72h.66ZM247,172.18l-1.78,1.74-1.79-1.74Zm-5.59,0,2.8,2.72L241,178l-2.72-2.66-.06-.72,2.45-2.39Zm-2.68,0-.58.57h0l-.05-.57Zm-.19,5.26,1.53,1.49-1.3,1.26Zm.85,10.2-.12-1.45h0l.8.78-.68.67Zm.15,1.83L241,188l3.13,3L241,194l-1.26-1.23Zm.46,5.62V195l.07.07-.07.06Zm.55,6.48-.4-4.66.93-.9,3.13,3-3.13,3-.53-.51Zm.28,3.47,0-.69.3-.3,1,1Zm1.26-2,3.13-3,3.12,3-2,2h-2.21Zm6.25,2,1-1,1,1Zm4,0-2-2,3.13-3,3.12,3-2,2Zm4.23,0,1-1,1,1Zm9.53,0h-1.26l1-1,.3.3Zm.29-3.47-.53.51-3.13-3,3.13-3,.92.9ZM267,195l0,.14-.06-.06L267,195Zm.17-2.14L265.87,194l-3.13-3,3.13-3,1.54,1.51Zm.43-5.17-.68-.67.81-.78Zm.86-10.21-.23,2.77-1.31-1.27,1.54-1.5Z"/></g><rect class="cls-3" x="234.56" y="169.55" width="37.79" height="3.87" rx="1.64" transform="translate(506.91 342.97) rotate(180)"/><rect class="cls-3" x="237.28" y="204.35" width="32.34" height="3.87" rx="1.64"/></g><g id="Table"><polygon class="cls-7" points="109.88 67.06 119.08 67.06 116.63 92.67 131.17 94.79 131.17 96.58 100.54 96.58 100.54 94.79 106.81 92.67 109.88 67.06"/><path class="cls-7" d="M145.58,83.31a2.82,2.82,0,0,1-2.88,3.12H87a3.55,3.55,0,0,1-3.49-3.12l-3.3-34.66a2.8,2.8,0,0,1,2.88-3.11h55.68a3.54,3.54,0,0,1,3.48,3.11Z"/><path class="cls-3" d="M87,84.68a1.76,1.76,0,0,1-1.7-1.52L82,48.49a1.13,1.13,0,0,1,0-.42,1,1,0,0,1,1.07-.79h55.68a1.76,1.76,0,0,1,1.7,1.53l3.31,34.67a1.1,1.1,0,0,1-.28.87,1.09,1.09,0,0,1-.82.33Z"/><path class="cls-8" d="M87,84.68a1.76,1.76,0,0,1-1.7-1.52L82,48.49a1.13,1.13,0,0,1,0-.42,1,1,0,0,1,1.07-.79h55.68a1.76,1.76,0,0,1,1.7,1.53l3.31,34.67a1.1,1.1,0,0,1-.28.87,1.09,1.09,0,0,1-.82.33Z"/><polygon class="cls-7" points="76.09 208.23 71.7 208.23 63.83 101.56 69.64 101.56 76.09 208.23"/><polygon class="cls-9" points="76.09 208.23 71.7 208.23 64.21 106.86 63.83 101.73 69.64 101.73 69.96 106.86 76.09 208.23"/><polygon class="cls-10" points="69.96 106.61 64.21 106.61 63.83 101.73 69.64 101.73 69.96 106.61"/><polygon class="cls-7" points="179.84 208.23 175.46 208.23 174.74 101.56 180.56 101.56 179.84 208.23"/><polygon class="cls-11" points="180.56 101.73 180.45 118.94 179.85 208.23 175.46 208.23 174.86 118.94 174.74 101.73 180.56 101.73"/><polygon class="cls-10" points="180.56 101.73 180.45 119.14 174.86 119.14 174.74 101.73 180.56 101.73"/><polygon class="cls-7" points="226.4 208.23 222.01 208.23 214.13 101.56 219.95 101.56 226.4 208.23"/><polygon class="cls-11" points="226.4 208.23 222.01 208.23 214.52 106.86 214.13 101.73 219.95 101.73 220.26 106.86 226.4 208.23"/><polygon class="cls-10" points="220.26 106.61 214.52 106.61 214.13 101.73 219.95 101.73 220.26 106.61"/><polygon class="cls-7" points="25.93 208.23 21.55 208.23 27.99 101.56 33.81 101.56 25.93 208.23"/><polygon class="cls-11" points="33.81 101.73 33.42 106.86 25.93 208.23 21.55 208.23 27.67 106.86 27.99 101.73 33.81 101.73"/><polygon class="cls-10" points="27.99 101.73 33.81 101.73 33.42 106.61 27.67 106.61 27.99 101.73"/><path class="cls-3" d="M23.38,98.89H224.56a0,0,0,0,1,0,0v3.18a2.16,2.16,0,0,1-2.16,2.16H25.54a2.16,2.16,0,0,1-2.16-2.16V98.89A0,0,0,0,1,23.38,98.89Z"/><path class="cls-8" d="M23.38,98.89H224.56a0,0,0,0,1,0,0v3.18a2.16,2.16,0,0,1-2.16,2.16H25.54a2.16,2.16,0,0,1-2.16-2.16V98.89A0,0,0,0,1,23.38,98.89Z"/><rect class="cls-10" x="23.38" y="98.89" width="201.18" height="2.67"/><path class="cls-3" d="M227.28,99.59H20.66a1.54,1.54,0,0,1-1.55-1.51h0a1.53,1.53,0,0,1,1.55-1.5H227.28a1.53,1.53,0,0,1,1.55,1.5h0A1.54,1.54,0,0,1,227.28,99.59Z"/><path class="cls-8" d="M227.28,99.59H20.66a1.54,1.54,0,0,1-1.55-1.51h0a1.53,1.53,0,0,1,1.55-1.5H227.28a1.53,1.53,0,0,1,1.55,1.5h0A1.54,1.54,0,0,1,227.28,99.59Z"/><polygon class="cls-7" points="118.99 96.58 119.69 93.98 148.72 93.98 162.08 95.28 162.59 96.58 118.99 96.58"/><polygon class="cls-12" points="148.72 93.98 148.72 96.58 118.99 96.58 119.69 93.98 148.72 93.98"/><polygon class="cls-7" points="48.33 67.06 57.52 67.06 47.91 92.67 62.46 94.79 62.46 96.58 31.82 96.58 31.82 94.79 38.1 92.67 48.33 67.06"/><path class="cls-7" d="M75.25,48.26a4,4,0,0,0-3.76-3.14H21.54a2.55,2.55,0,0,0-2.63,2.12,2.93,2.93,0,0,0,0,1l6.33,35A4,4,0,0,0,29,86.42H79a2.58,2.58,0,0,0,2.62-3.15Z"/><path class="cls-13" d="M81.59,83.27A2.58,2.58,0,0,1,79,86.42H30.45a4,4,0,0,1-3.76-3.15l-6.33-35a2.93,2.93,0,0,1,0-1A2.55,2.55,0,0,1,23,45.12H71.49a4,4,0,0,1,3.76,3.14Z"/><path class="cls-3" d="M30.3,84.66a2,2,0,0,1-1.83-1.55l-6.34-35a1.26,1.26,0,0,1,0-.43.93.93,0,0,1,1-.79H71.64a2,2,0,0,1,1.84,1.55l6.33,35a1,1,0,0,1-1,1.22Z"/><path class="cls-14" d="M30.3,84.66a2,2,0,0,1-1.83-1.55l-6.34-35a1.26,1.26,0,0,1,0-.43.93.93,0,0,1,1-.79H71.64a2,2,0,0,1,1.84,1.55l6.33,35a1,1,0,0,1-1,1.22Z"/><polygon class="cls-7" points="168.57 67.06 177.77 67.06 168.16 92.67 182.7 94.79 182.7 96.58 152.07 96.58 152.07 94.79 158.34 92.67 168.57 67.06"/><path class="cls-7" d="M200.8,48.65a3.31,3.31,0,0,0-3.32-3.11H147.53a2.95,2.95,0,0,0-3.05,3.11L146,83.31a3.31,3.31,0,0,0,3.32,3.11h49.95a3,3,0,0,0,3.05-3.11Z"/><path class="cls-9" d="M202.27,83.31a3,3,0,0,1-3.05,3.11H150.7a3.31,3.31,0,0,1-3.32-3.11l-1.47-34.66a2.78,2.78,0,0,1,.13-1,3,3,0,0,1,2.92-2.1h48.52a3.31,3.31,0,0,1,3.32,3.11Z"/><path class="cls-3" d="M150.79,84.67a1.64,1.64,0,0,1-1.62-1.52L147.7,48.49a1.45,1.45,0,0,1,.05-.43,1.12,1.12,0,0,1,1.12-.78h48.52A1.65,1.65,0,0,1,199,48.81l1.46,34.66a1.12,1.12,0,0,1-.32.87,1.16,1.16,0,0,1-.84.33Z"/><path class="cls-14" d="M150.79,84.67a1.64,1.64,0,0,1-1.62-1.52L147.7,48.49a1.45,1.45,0,0,1,.05-.43,1.12,1.12,0,0,1,1.12-.78h48.52A1.65,1.65,0,0,1,199,48.81l1.46,34.66a1.12,1.12,0,0,1-.32.87,1.16,1.16,0,0,1-.84.33Z"/><path class="cls-12" d="M150.79,84.67a1.64,1.64,0,0,1-1.62-1.52L147.7,48.49a1.45,1.45,0,0,1,.05-.43,1.12,1.12,0,0,1,1.12-.78h48.52A1.65,1.65,0,0,1,199,48.81l1.46,34.66a1.12,1.12,0,0,1-.32.87,1.16,1.16,0,0,1-.84.33Z"/><polygon class="cls-6" points="194.98 50.97 159.36 50.97 159.33 50.32 194.95 50.32 194.98 50.97"/><polygon class="cls-6" points="195.07 52.95 163.37 52.95 163.34 52.3 195.04 52.3 195.07 52.95"/><polygon class="cls-6" points="195.16 54.93 175.13 54.93 175.1 54.28 195.13 54.28 195.16 54.93"/><polygon class="cls-6" points="195.25 56.91 169.24 56.91 169.21 56.26 195.22 56.26 195.25 56.91"/><polygon class="cls-6" points="195.34 58.88 178.09 58.88 178.06 58.24 195.31 58.24 195.34 58.88"/><polygon class="cls-6" points="195.61 64.92 159.99 64.92 159.96 64.27 195.58 64.27 195.61 64.92"/><polygon class="cls-6" points="195.7 66.9 164.01 66.9 163.98 66.25 195.67 66.25 195.7 66.9"/><polygon class="cls-6" points="195.79 68.88 175.76 68.88 175.73 68.23 195.76 68.23 195.79 68.88"/><polygon class="cls-6" points="195.88 70.85 169.87 70.85 169.84 70.21 195.85 70.21 195.88 70.85"/><polygon class="cls-6" points="195.97 72.83 178.72 72.83 178.69 72.19 195.94 72.19 195.97 72.83"/><polygon class="cls-3" points="118.18 72 87.1 72 85.28 52.23 116.35 52.23 118.18 72"/><polygon class="cls-3" points="118.18 72 87.1 72 85.28 52.23 116.35 52.23 118.18 72"/><polygon class="cls-7" points="116.95 71.02 88.15 71.02 86.76 55.94 115.56 55.94 116.95 71.02"/><polygon class="cls-6" points="110.68 58.84 89.37 58.84 89.31 58.19 110.62 58.19 110.68 58.84"/><polygon class="cls-6" points="99.78 60.83 89.56 60.83 89.5 60.18 99.72 60.18 99.78 60.83"/><polygon class="cls-6" points="102.61 62.81 89.74 62.81 89.68 62.17 102.55 62.17 102.61 62.81"/><polygon class="cls-6" points="94.46 64.8 89.92 64.8 89.86 64.15 94.4 64.15 94.46 64.8"/><polygon class="cls-6" points="93.04 66.79 90.11 66.79 90.05 66.14 92.98 66.14 93.04 66.79"/><polygon class="cls-3" points="138.7 81.89 107.63 81.89 105.8 62.12 136.88 62.12 138.7 81.89"/><polygon class="cls-3" points="138.7 81.89 107.63 81.89 105.8 62.12 136.88 62.12 138.7 81.89"/><polygon class="cls-7" points="137.47 80.9 108.67 80.9 107.28 65.83 136.08 65.83 137.47 80.9"/><polygon class="cls-6" points="131.2 68.73 109.9 68.73 109.84 68.08 131.14 68.08 131.2 68.73"/><polygon class="cls-6" points="120.3 70.71 110.08 70.71 110.02 70.06 120.24 70.06 120.3 70.71"/><polygon class="cls-6" points="123.14 72.7 110.26 72.7 110.2 72.05 123.08 72.05 123.14 72.7"/><polygon class="cls-6" points="114.98 74.68 110.45 74.68 110.39 74.04 114.92 74.04 114.98 74.68"/><polygon class="cls-6" points="113.57 76.67 110.63 76.67 110.57 76.02 113.51 76.02 113.57 76.67"/><polygon class="cls-8" points="78.24 80.9 29.82 80.9 24.16 50.19 72.57 50.19 78.24 80.9"/><polygon class="cls-8" points="43.17 79.69 30.57 79.69 25.91 54.4 38.51 54.4 43.17 79.69"/><polygon class="cls-8" points="44.3 79.69 77 79.69 72.33 54.4 39.64 54.4 44.3 79.69"/><g class="cls-15"><polygon points="37.24 56.99 28.11 56.99 27.99 56.35 37.13 56.35 37.24 56.99"/><polygon points="33.67 58.9 28.46 58.9 28.34 58.26 33.55 58.26 33.67 58.9"/><polygon points="35.96 60.81 28.81 60.81 28.69 60.17 35.84 60.17 35.96 60.81"/><polygon points="33.7 62.72 29.16 62.72 29.05 62.08 33.58 62.08 33.7 62.72"/><polygon points="32.45 64.63 29.52 64.63 29.4 63.99 32.34 63.99 32.45 64.63"/><polygon points="39.01 66.55 29.87 66.55 29.75 65.9 38.89 65.9 39.01 66.55"/><polygon points="35.43 68.46 30.22 68.46 30.1 67.81 35.31 67.81 35.43 68.46"/><polygon points="37.72 70.37 30.57 70.37 30.45 69.73 37.6 69.73 37.72 70.37"/><polygon points="35.46 72.28 30.93 72.28 30.81 71.64 35.34 71.64 35.46 72.28"/><polygon points="34.22 74.19 31.28 74.19 31.16 73.55 34.1 73.55 34.22 74.19"/><polygon points="36.17 76.1 31.63 76.1 31.51 75.46 36.05 75.46 36.17 76.1"/><polygon points="34.92 78.01 31.98 78.01 31.86 77.37 34.8 77.37 34.92 78.01"/></g><g class="cls-15"><polygon points="65.87 56.99 42.42 56.99 42.3 56.35 65.76 56.35 65.87 56.99"/><polygon points="62.3 58.9 42.77 58.9 42.66 58.26 62.18 58.26 62.3 58.9"/><polygon points="64.59 60.81 43.13 60.81 43.01 60.17 64.47 60.17 64.59 60.81"/><polygon points="62.33 62.72 43.48 62.72 43.36 62.08 62.21 62.08 62.33 62.72"/><polygon points="61.08 64.63 43.83 64.63 43.71 63.99 60.97 63.99 61.08 64.63"/><polygon points="67.64 66.55 44.18 66.55 44.06 65.9 67.52 65.9 67.64 66.55"/><polygon points="64.06 68.46 44.54 68.46 44.42 67.81 63.95 67.81 64.06 68.46"/><polygon points="66.35 70.37 44.89 70.37 44.77 69.73 66.23 69.73 66.35 70.37"/><polygon points="64.09 72.28 45.24 72.28 45.12 71.64 63.98 71.64 64.09 72.28"/><polygon points="62.85 74.19 45.59 74.19 45.48 73.55 62.73 73.55 62.85 74.19"/><polygon points="64.8 76.1 45.95 76.1 45.83 75.46 64.68 75.46 64.8 76.1"/><polygon points="63.55 78.01 46.3 78.01 46.18 77.37 63.43 77.37 63.55 78.01"/></g></g><g id="Bubble"><rect class="cls-3" x="166.58" width="25.86" height="25.15" rx="3.03" transform="translate(359.03 25.15) rotate(180)"/><path class="cls-3" d="M182.48,22.91S181.16,30,171.53,33.19c0,0,5.47-5.14,5.47-10.28Z"/><path class="cls-16" d="M181,9.87V8.34l-.8-.07a4,4,0,0,0-.61-1.41l.52-.61L179,5.18l-.62.5a4.3,4.3,0,0,0-1.45-.59l-.08-.78h-1.56l-.08.78a4.39,4.39,0,0,0-1.45.59l-.62-.5L172,6.25l.52.61a3.77,3.77,0,0,0-.6,1.41l-.81.07V9.87l.81.07a3.77,3.77,0,0,0,.6,1.41L172,12,173.1,13l.62-.51a4.39,4.39,0,0,0,1.45.59l.08.78h1.56l.08-.78a4.3,4.3,0,0,0,1.45-.59L179,13,180.07,12l-.52-.61a4,4,0,0,0,.61-1.41ZM176,11.17a2.07,2.07,0,1,1,2.12-2.06A2.09,2.09,0,0,1,176,11.17Z"/><path class="cls-17" d="M187.32,14.17V13l-.64-.06a3.21,3.21,0,0,0-.47-1.11l.41-.47-.87-.85-.49.4a3.18,3.18,0,0,0-1.14-.46l-.06-.62h-1.22l-.06.62a3.18,3.18,0,0,0-1.14.46l-.49-.4-.87.85.41.47a3.21,3.21,0,0,0-.47,1.11l-.63.06v1.19l.63.06a3.08,3.08,0,0,0,.47,1.1l-.41.48.87.84.49-.39a3.59,3.59,0,0,0,1.14.46l.06.61h1.22l.06-.61a3.59,3.59,0,0,0,1.14-.46l.49.39.87-.84-.41-.48a3.08,3.08,0,0,0,.47-1.1Zm-3.87,1a1.62,1.62,0,1,1,1.66-1.62A1.63,1.63,0,0,1,183.45,15.19Z"/><path class="cls-18" d="M181,17.56v-1l-.53,0a2.74,2.74,0,0,0-.39-.93l.34-.4-.73-.71-.41.33a2.88,2.88,0,0,0-1-.38l-.05-.52h-1l0,.52a2.83,2.83,0,0,0-1,.38l-.41-.33-.73.71.34.4a2.58,2.58,0,0,0-.4.93l-.53,0v1l.53.05a2.58,2.58,0,0,0,.4.93l-.34.4.73.71.41-.34a2.65,2.65,0,0,0,1,.39l0,.52h1l.05-.52a2.7,2.7,0,0,0,1-.39l.41.34.73-.71-.34-.4a2.74,2.74,0,0,0,.39-.93Zm-3.24.86a1.36,1.36,0,1,1,1.39-1.36A1.38,1.38,0,0,1,177.72,18.42Z"/></g><g id="Character"><g id="_Group_" data-name="&lt;Group&gt;"><polygon class="cls-19" points="195.29 209.96 189.59 209.2 188.8 196.02 194.49 196.79 195.29 209.96"/><polygon class="cls-10" points="194.49 196.79 188.8 196.03 189.25 203.56 194.94 204.05 194.49 196.79"/><path class="cls-7" d="M189.16,208.53l6.44-.39a.42.42,0,0,1,.45.35h0l.63,4.94a1,1,0,0,1-.94,1.05c-2.25.1-3.33,0-6.16.19a54.48,54.48,0,0,1-7.57.23c-2.4-.22-2.11-2.52-1.07-2.63a16,16,0,0,0,7.25-3.37A1.69,1.69,0,0,1,189.16,208.53Z"/><path class="cls-3" d="M189,209.21h0c0-.09-.1-1.67-.7-2.18a.84.84,0,0,0-.64-.14.52.52,0,0,0-.48.42,1.93,1.93,0,0,0,.56,1.28,2.39,2.39,0,0,0-1.59-.29.51.51,0,0,0-.29.39.68.68,0,0,0,.21.72,1.59,1.59,0,0,0,1.09.21,7.65,7.65,0,0,0,1.5-.29s0,0,0,0,0,0,0,0,.14,0,.15-.05H189Zm-1.58-1.85c0-.08.05-.17.24-.21h.06a.39.39,0,0,1,.29.11,2.75,2.75,0,0,1,.49,1.71l-.12-.07A2.58,2.58,0,0,1,187.44,207.36Zm-1.18,1.84a.46.46,0,0,1-.12-.46.23.23,0,0,1,.13-.19c.37-.16,1.36.25,2,.62C187.3,209.43,186.55,209.44,186.26,209.2Z"/><path class="cls-7" d="M195.06,132.48l1.39-8.47,32-1.86s3.39,17.63.78,22.33c-4.66,8.39-29.78,4.16-37.14,5,4.4,17.48,4,51.63,4,51.63l-10.5.78s-8.08-36.8-9.71-54.29C174.71,135.78,184.77,136.07,195.06,132.48Z"/><path class="cls-10" d="M195.06,132.48l1.39-8.47,32-1.86s3.39,17.63.78,22.33c-4.66,8.39-29.78,4.16-37.14,5,4.4,17.48,4,51.63,4,51.63l-10.5.78s-8.08-36.8-9.71-54.29C174.71,135.78,184.77,136.07,195.06,132.48Z"/><path class="cls-20" d="M171.68,60.67c.14,1.3-.43,2.43-1.29,2.53s-1.66-.9-1.81-2.2.42-2.44,1.28-2.53S171.53,59.36,171.68,60.67Z"/><path class="cls-21" d="M171.7,67.4a8.69,8.69,0,0,0,.44.86,9.12,9.12,0,0,0,4,3.68,9.27,9.27,0,0,0,1.32.52,8.61,8.61,0,0,0,7.19-.86,8.51,8.51,0,0,0,2.41-2.28c2.74-3.79,2-7.52,1.26-13.92A8.52,8.52,0,0,0,187,51.53a9.2,9.2,0,0,0-12.48-2.76C168.53,52.35,169.29,61.93,171.7,67.4Z"/><path class="cls-10" d="M176.13,71.94a9.27,9.27,0,0,0,1.32.52,8.61,8.61,0,0,0,7.19-.86,9.55,9.55,0,0,0-1.54-2A13.38,13.38,0,0,0,176.13,71.94Z"/><path class="cls-21" d="M193.38,73.64c-1.13,4.14-8.42,7.45-8.42,7.45s-4.92,1.52-4.89-.3c2.2-2,2.65-3.81,2.19-5.55a8.07,8.07,0,0,0-1.56-2.9A18,18,0,0,0,179.47,71l4.32-11.17C185.32,64.4,188.81,72.47,193.38,73.64Z"/><path class="cls-7" d="M172.62,53.38s-1.84,6,4.53,10.4c0,0,2.69,5.58,4.18,6.27s4.87.28,6,0,7-5,5.33-16.19-11.34-7.62-11.34-7.62Z"/><path class="cls-21" d="M178,60.89a4.13,4.13,0,0,1-1.68,3.17c-1.23.77-2.42-.91-2.56-2.84-.11-1.72.37-4.25,1.85-4.17S178.19,59.11,178,60.89Z"/><path class="cls-7" d="M185.28,45.73s-7.08-1.89-12.6,1c0,0,1.09-.72.76-1.58s-2.84,2.3-2.84,2.3.85-3,.33-3.29-3.77,4.45-2.12,6.74c0,0-3.14-2.11-2.59-.46s.56,4.45,7.83,3.08S185.28,45.73,185.28,45.73Z"/><line class="cls-20" x1="168.58" y1="61" x2="173.77" y2="58.89"/><path class="cls-3" d="M179.26,76.11s4.79-5.76,12.44-5.68l4.67,3.79Z"/><path class="cls-11" d="M179.26,76.11s4.79-5.76,12.44-5.68l4.67,3.79Z"/><path class="cls-21" d="M150.34,99.94l-5.19-2.3s-4.34-.79-6.13-.39-5.76,5.63-5.66,6.27,6.87,2.2,7,2.2,3.09-1.62,3.09-1.62l4.8,1.62Z"/><polygon class="cls-3" points="197.26 201.57 184.64 202.38 183.56 197.12 197.42 196.5 197.26 201.57"/><polygon class="cls-22" points="197.26 201.57 184.64 202.38 183.56 197.12 197.42 196.5 197.26 201.57"/><polygon class="cls-19" points="182.13 209.91 176.4 210.32 172.8 197.59 178.53 197.19 182.13 209.91"/><path class="cls-3" d="M175.62,210.51h-.1c0-.09-.29-1.65-1-2a.67.67,0,0,0-.57,0,.48.48,0,0,0-.35.5,2,2,0,0,0,.85,1.14,2.33,2.33,0,0,0-1.61,0,.5.5,0,0,0-.2.44.69.69,0,0,0,.36.65,1.6,1.6,0,0,0,1.12,0,7.54,7.54,0,0,0,1.4-.59h.05l0,0A.14.14,0,0,0,175.62,210.51ZM173.9,209c0-.07,0-.17.19-.24l.06,0a.42.42,0,0,1,.31,0c.41.22.7,1.07.84,1.58l-.13,0C174.6,210,173.94,209.33,173.9,209Zm-.76,2.05a.5.5,0,0,1-.22-.42.23.23,0,0,1,.1-.22c.32-.24,1.37,0,2.13.19C174.21,211,173.48,211.17,173.14,211Z"/><polygon class="cls-10" points="178.53 197.19 172.8 197.6 174.86 204.88 180.52 204.2 178.53 197.19"/><path class="cls-7" d="M170.86,204l10.1-2.89s-6-33.12-12.15-44.6c.46-.15,1.07-.34,1.82-.55,1.35-.4,3.15-.89,5.26-1.46,14.68-4,44.45-11.39,44.45-11.39l-13.6-12.34s-54.16,8-55.29,21.91C150.92,159.33,170.86,204,170.86,204Z"/><polygon class="cls-3" points="182.27 201.31 170.1 204.65 167.91 199.73 181.34 196.31 182.27 201.31"/><polygon class="cls-22" points="182.27 201.31 170.1 204.65 167.91 199.73 181.34 196.31 182.27 201.31"/><path class="cls-7" d="M175.83,209.76l6.22-1.69a.4.4,0,0,1,.51.25h0l1.67,4.7a1,1,0,0,1-.69,1.22c-2.18.55-3.25.71-6,1.43a55.67,55.67,0,0,1-7.35,1.77c-2.4.26-2.61-2-1.62-2.37a15.71,15.71,0,0,0,6.38-4.76A1.62,1.62,0,0,1,175.83,209.76Z"/><path class="cls-3" d="M171.84,81.72s9-9.86,21.13-8.84S217.18,83,223.2,97.25,231,133.09,231,133.09s-19.57,5.45-39.45.48A202,202,0,0,0,171.84,81.72Z"/><path class="cls-8" d="M171.84,81.72s9-9.86,21.13-8.84S217.18,83,223.2,97.25,231,133.09,231,133.09s-19.57,5.45-39.45.48A202,202,0,0,0,171.84,81.72Z"/><path class="cls-3" d="M171.84,81.72c-3.06,3.08-11.78,17.22-14.26,17.75s-6.1-1.65-8.93-.82-5.74,3.33-5.09,4.94,7.31,5.89,15.56,6.12c7.06.2,21.95-16.91,21.95-16.91C181.07,86.19,171.84,81.72,171.84,81.72Z"/><path class="cls-11" d="M171.84,81.72c-3.06,3.08-11.78,17.22-14.26,17.75s-6.1-1.65-8.93-.82-5.74,3.33-5.09,4.94,7.31,5.89,15.56,6.12c7.06.2,21.95-16.91,21.95-16.91C181.07,86.19,171.84,81.72,171.84,81.72Z"/><path class="cls-3" d="M230.35,137.83c-20.53,3.85-40.67-4-40.67-4s-.05-1.43-.3-3.67h0c-.1-.84-.23-1.81-.38-2.86s-.33-2-.55-3a47.16,47.16,0,0,0-2.6-8.79c-1.13-2.75-2-5-2.7-6.87l-.28-.78c-.29-.81-.54-1.54-.76-2.19-1.47-4.43-1.27-5.27-1.27-5.27,5.2.71,5.59-9.69-1.36-17.43a9,9,0,0,0-5.71-3s-.71-1.1,6.62-5.12c4-2.16,8.37-.57,11.64-.57,5.26,0,6-.72,6-.72,8.59,0,19,11,25.65,24.12.33.66.66,1.32,1,2s.64,1.38,1,2.08a60,60,0,0,1,4.7,16c.07.57.14,1.11.2,1.64.09.75.17,1.47.25,2.16.09.85.17,1.65.24,2.41C232.3,137.3,230.35,137.83,230.35,137.83Z"/><polygon class="cls-4" points="212.22 99.04 223.63 111.69 220.34 127.98 208.68 115.22 212.22 99.04"/><path class="cls-4" d="M230.55,119.36l-6.92-7.67,2-10a60,60,0,0,1,4.7,16C230.42,118.29,230.49,118.83,230.55,119.36Z"/></g><path class="cls-3" d="M175.39,146.79h64.36a0,0,0,0,1,0,0v3.14a5,5,0,0,1-5,5H180.39a5,5,0,0,1-5-5v-3.14A0,0,0,0,1,175.39,146.79Z" transform="translate(415.14 301.72) rotate(180)"/><path class="cls-10" d="M175.39,146.79h64.36a0,0,0,0,1,0,0v3.14a5,5,0,0,1-5,5H180.39a5,5,0,0,1-5-5v-3.14A0,0,0,0,1,175.39,146.79Z" transform="translate(415.14 301.72) rotate(180)"/><path class="cls-7" d="M237.66,201.25l-20.63-2V171.09h-8.17v28.18l-20.71,2a3.94,3.94,0,0,0-3.62,3.88v3h56.75v-3A3.94,3.94,0,0,0,237.66,201.25Z"/><path class="cls-13" d="M237.66,201.25l-20.63-2V171.09h-8.17v28.18l-20.71,2a3.94,3.94,0,0,0-3.62,3.88v3h56.75v-3A3.94,3.94,0,0,0,237.66,201.25Z"/><ellipse class="cls-7" cx="186.71" cy="211.88" rx="5.34" ry="5.2"/><ellipse class="cls-7" cx="239.1" cy="211.88" rx="5.34" ry="5.2"/><path class="cls-7" d="M207.45,152h11a0,0,0,0,1,0,0v21a4.13,4.13,0,0,1-4.13,4.13h-2.72a4.13,4.13,0,0,1-4.13-4.13V152A0,0,0,0,1,207.45,152Z"/><path class="cls-4" d="M207.45,152h11a0,0,0,0,1,0,0v21a4.13,4.13,0,0,1-4.13,4.13h-2.72a4.13,4.13,0,0,1-4.13-4.13V152A0,0,0,0,1,207.45,152Z"/><path class="cls-3" d="M200.72,152.05s10.24-31.8,12-78.19a10.48,10.48,0,0,1,10.61-9.92h19A10.47,10.47,0,0,1,253,74.21c.07,16.85-1.14,51.31-10.91,79.32Z"/><path class="cls-10" d="M200.72,152.05s10.24-31.8,12-78.19a10.48,10.48,0,0,1,10.61-9.92h19A10.47,10.47,0,0,1,253,74.21c.07,16.85-1.14,51.31-10.91,79.32Z"/><path class="cls-7" d="M207.21,151.65a354.46,354.46,0,0,0,11.38-76.59,9.66,9.66,0,0,1,9.78-9.15h17.55a9.67,9.67,0,0,1,9.8,9.47c.07,15.55-1.05,50.44-10.07,76.27Z"/><path class="cls-4" d="M245.65,151.65H207.21a354.46,354.46,0,0,0,11.38-76.59,9.67,9.67,0,0,1,9.79-9.15h17.54a9.66,9.66,0,0,1,9.8,9.48C255.78,90.93,254.67,125.81,245.65,151.65Z"/><path class="cls-7" d="M214.73,127.08s-20.85-4.1-41-2.12,9.47,27.57,9.47,27.57h4.16s-15.69-16.22-14.82-20.26S213,133.56,213,133.56Z"/><path class="cls-4" d="M214.73,127.08s-20.85-4.1-41-2.12,9.47,27.57,9.47,27.57h4.16s-15.69-16.22-14.82-20.26S213,133.56,213,133.56Z"/><path class="cls-10" d="M245.65,151.65H211.5a354.81,354.81,0,0,0,11.39-76.59,9.66,9.66,0,0,1,9.78-9.15h13.25a9.66,9.66,0,0,1,9.8,9.48C255.78,90.93,254.67,125.81,245.65,151.65Z"/><rect class="cls-7" x="173.1" y="150.86" width="73.24" height="4.07" rx="2.01" transform="translate(419.44 305.79) rotate(180)"/><rect class="cls-8" x="173.1" y="150.86" width="73.24" height="4.07" rx="2.01" transform="translate(419.44 305.79) rotate(180)"/><text class="cls-23" transform="translate(249.4 70.63) scale(1.03 1)"> <tspan x="-17.95" y="10.02">PHP</tspan></text></g></g></svg>