<svg width="504" height="504" xmlns="http://www.w3.org/2000/svg">

 <g>
  <title>background</title>
  <rect fill="none" id="canvas_background" height="506" width="506" y="-1" x="-1"/>
 </g>
 <g>
  <title>Layer 1</title>
  <circle id="svg_1" fill="#84dbff" r="252" cy="251" cx="252"/>
  <path id="svg_2" fill="#F1543F" d="m195.7,293c-17.5,-17.5 -23.1,-42.2 -17.1,-64.4l40.8,40.8l46.6,-46.6l-40.8,-40.8c22.2,-6 47,-0.4 64.4,17.1c17.5,17.5 23.1,42.2 17.1,64.4l27.2,27.2c-9.7,20.5 -26.8,36.8 -47.9,45.4l-25.8,-26.1c-22.3,6.1 -47,0.4 -64.5,-17z"/>
  <path id="svg_3" fill="#324A5E" d="m125.9,283c3.2,12.9 8.3,25.1 15,36.2l-22.2,22.2l43.9,43.9l22.2,-22.2c11.1,6.7 23.3,11.8 36.2,15l0,31.4l62,0l0,-31.4c12.9,-3.2 25.1,-8.3 36.2,-15l22.2,22.2l43.9,-43.9l-22.2,-22.2c6.7,-11.1 11.8,-23.3 15,-36.2l31.4,0l0,-62l-31.4,0c-3.2,-13 -8.3,-25.1 -15,-36.2l22.2,-22.2l-43.9,-43.9l-22.2,22.2c-11.1,-6.7 -23.3,-11.8 -36.2,-15l0,-31.4l-62,0l0,31.4c-13,3.2 -25.1,8.3 -36.2,15l-22.2,-22.2l-43.9,43.9l22.2,22.2c-6.7,11.1 -11.8,23.3 -15,36.2l-31.4,0l0,62l31.4,0zm35.5,-31c0,-50 40.6,-90.6 90.6,-90.6s90.6,40.6 90.6,90.6c0,13.8 -3.1,26.9 -8.6,38.6c-9.7,20.5 -26.8,36.8 -47.9,45.4c-10.5,4.3 -22,6.6 -34.1,6.6c-50,0 -90.6,-40.6 -90.6,-90.6z"/>
  <g id="svg_4"/>
  <g id="svg_5"/>
  <g id="svg_6"/>
  <g id="svg_7"/>
  <g id="svg_8"/>
  <g id="svg_9"/>
  <g id="svg_10"/>
  <g id="svg_11"/>
  <g id="svg_12"/>
  <g id="svg_13"/>
  <g id="svg_14"/>
  <g id="svg_15"/>
  <g id="svg_16"/>
  <g id="svg_17"/>
  <g id="svg_18"/>
 </g>
</svg>